<svg width="1577" height="306" viewBox="0 0 1577 306" fill="none" xmlns="http://www.w3.org/2000/svg">
<path d="M149.933 43.3334L125.667 86.5334L125.933 146.667L126.333 206.933L129.933 204.133C135.667 199.6 151.4 192.267 161.933 189.333C175.8 185.333 196.867 184.4 210.733 187.2C216.733 188.4 222.6 189.733 223.667 190.133C225.4 190.8 225.667 184.667 225.667 138.8V86.5334L201.133 43.6C187.667 20 176.067 0.533369 175.4 0.400036C174.867 0.266703 163.4 19.4667 149.933 43.3334Z" fill="black"/>
<path d="M1263.27 96.2667C1261 98.5333 1261 242.8 1263.27 245.067C1264.2 246 1268.73 246.667 1274.6 246.667C1282.73 246.667 1284.47 246.267 1285.67 244.133C1286.47 242.533 1287 230.933 1287 215.6V189.733L1305.4 188.933C1334.6 187.867 1349.67 181.067 1357.27 165.6C1360.73 158.533 1361 156.8 1360.87 142.667C1360.87 129.733 1360.47 126.267 1357.93 120.667C1352.07 107.867 1341.4 100.133 1324.47 96.5333C1313 94.1333 1265.67 93.8667 1263.27 96.2667ZM1325 118.667C1334.6 123.467 1336.6 128 1336.07 144.133C1335.8 154.8 1335.27 157.6 1333 160C1327.93 165.733 1320.07 168.133 1303 168.933L1287 169.733V142V114.4L1302.73 114.933C1316.07 115.333 1319.53 116 1325 118.667Z" fill="black"/>
<path d="M452.467 99.6001C450.467 103.6 399 240.933 399 242.533C399 243.6 401.8 244 407.8 243.733L416.733 243.333L423 226L429.4 208.667H461.667H494.067L500.333 226L506.733 243.333L515.533 243.733C522.733 244 524.333 243.733 524.333 242.133C524.333 240.933 512.2 207.867 497.533 168.667L470.6 97.3334H462.2C455.533 97.3334 453.533 97.8667 452.467 99.6001ZM475.267 156.933C482.333 176.533 488.067 192.8 487.8 192.933C487.533 193.2 475.667 193.2 461.4 193.067L435.267 192.667L448.2 157.067C455.267 137.467 461.267 121.333 461.667 121.333C462.067 121.333 468.2 137.333 475.267 156.933Z" fill="black"/>
<path d="M551.933 98.1334C551.4 98.6667 551 131.733 551 171.6V244.133L559.4 243.733L567.667 243.333V170.667V98L560.333 97.6C556.2 97.3334 552.467 97.6 551.933 98.1334Z" fill="black"/>
<path d="M711.667 98.9334C711.267 99.8667 711.133 132.8 711.267 172L711.667 243.333L719.933 243.733L728.333 244.133L728.6 198.4L729 152.8L739.667 149.067C747.133 146.533 753 145.333 759.267 145.333C767.4 145.333 768.733 145.733 772.6 149.2L777 153.067L777.667 198.267L778.333 243.333H786.333H794.333L794.733 199.6C794.867 170.533 794.6 153.867 793.533 150.267C791.267 141.733 782.467 134 772.867 132C763.667 130 751.8 131.067 740.067 134.667C735.4 136.133 731.133 137.467 730.333 137.6C729.533 137.867 728.733 130.4 728.333 118L727.667 98L719.933 97.6C714.6 97.3334 712.067 97.7334 711.667 98.9334Z" fill="black"/>
<path d="M1402.07 129.333C1389.4 131.867 1380.73 139.333 1377.8 150C1375.93 157.067 1375.93 167.067 1377.93 169.067C1380.07 171.2 1395.27 171.2 1397.4 169.067C1398.33 168.133 1399 165.333 1399 162.667C1399 151.067 1402.87 148 1417.67 148C1428.87 148 1435.93 150.533 1437 154.933C1437.4 156.667 1437.67 162.533 1437.4 168L1437 178L1415.67 178.667C1395.67 179.333 1393.8 179.6 1386.6 183.067C1373.53 189.6 1369 198.667 1369.93 216.8C1370.2 223.467 1371.4 229.2 1373 232.533C1375.93 238.8 1384.47 244.4 1393.93 246.8C1402.07 248.667 1421.67 247.733 1432.33 244.8C1439.13 242.8 1439.67 242.933 1441.93 245.333C1444.6 248.133 1455.27 249.067 1458.73 246.8C1460.07 246 1460.33 235.733 1460.07 196.533C1459.67 147.6 1459.67 147.333 1456.6 142.267C1452.73 136.267 1444.87 131.467 1435.27 129.467C1427.27 127.733 1410.33 127.733 1402.07 129.333ZM1437.4 210.267L1437 223.067L1431.67 224.933C1423.8 227.733 1409.53 229.2 1402.87 228C1394.33 226.4 1391.93 222.8 1392.6 212.4C1393.4 199.067 1396.33 197.733 1422.07 197.467L1437.8 197.333L1437.4 210.267Z" fill="black"/>
<path d="M1474.73 130.8C1473.4 131.467 1472.33 133.2 1472.33 134.533C1472.33 135.867 1481.4 160.133 1492.33 188.533C1503.4 216.933 1512.33 241.467 1512.33 243.067C1512.33 248 1506.2 259.333 1502.2 262C1499.27 263.867 1495.8 264.533 1488.33 264.667C1482.87 264.667 1477.53 265.2 1476.73 265.733C1474.2 267.333 1474.47 279.333 1477.13 281.867C1479.93 284.667 1498.73 284.8 1507.93 282C1516.07 279.6 1524.2 272.133 1528.73 263.067C1532.2 256.267 1576.33 137.333 1576.33 134.933C1576.33 134.133 1575.4 132.533 1574.2 131.467C1571.67 128.8 1557.93 128.533 1554.6 130.933C1553.4 131.867 1546.33 149.867 1539 171.333C1531.53 192.533 1525.4 210.133 1525.13 210.267C1525 210.533 1518.33 193.067 1510.33 171.6C1502.47 150.267 1495 131.867 1493.93 130.933C1491.4 129.067 1477.93 128.8 1474.73 130.8Z" fill="black"/>
<path d="M624.333 132.4C615.533 134.533 607.4 138.533 603.4 142.933C596.867 149.867 596.333 153.6 596.333 188.933C596.333 219.6 596.467 222.267 599.133 227.6C604.067 237.733 613.8 243.067 632.067 245.333C648.867 247.467 667.8 243.333 676.2 235.6C681.8 230.4 684.334 223.067 684.334 211.067C684.334 204.533 683.8 200 682.867 199.733C682.067 199.467 678.334 199.6 674.6 200L667.667 200.667L667 210.933C666.467 219.867 665.8 221.733 662.6 225.067C658.067 229.867 651.133 232 640.867 232C630.467 232 623.8 230 618.6 225.333L614.333 221.6L613.933 190.533C613.533 156.933 613.933 153.867 620.333 149.333C628.6 143.467 652.067 143.467 660.467 149.467C665.667 153.2 667 156.8 667 167.867C667 173.067 667.667 177.467 668.6 178.4C670.333 180.133 678.6 180.533 682.2 179.2C685.4 178 685.134 157.2 681.8 149.867C678.734 143.2 671.133 136.8 663.133 134C654.733 131.067 633.533 130.267 624.333 132.4Z" fill="black"/>
<path d="M851 132.4C840.867 134.667 831.667 140.4 827.267 146.933L823.667 152.4L822.867 221.467L826.467 228C832.867 239.6 845.4 245.467 864.333 245.733C885.267 245.867 899.133 240.533 906.467 229.333C909.4 225.067 910.2 221.867 910.733 213.867L911.4 203.867L894.333 204.667L893.533 212.267C892.467 221.733 889.667 226.133 882.6 229.467C874.867 232.933 857.8 232.933 850.067 229.467C842.333 225.867 840.333 221.467 840.333 207.333V196L863.4 195.867C875.933 195.867 891.8 195.733 898.333 195.6L910.333 195.333L910.733 177.6C910.867 167.333 910.467 157.6 909.533 154.267C907.533 146.533 899 138.533 889 134.8C879.133 131.067 861.4 130 851 132.4ZM882.867 147.733C891 151.733 893 155.867 893.4 170.133L893.933 182.667H867H840.067L840.6 168.8C841 156.133 841.267 154.533 844.333 151.333C849.133 146.267 857.933 143.867 869 144.667C874.067 145.067 880.333 146.4 882.867 147.733Z" fill="black"/>
<path d="M969.267 132.8C965.133 133.733 959.8 135.6 957.667 136.667C953.8 138.667 953.533 138.667 952.333 135.333C951.133 132.133 950.467 131.867 944.733 132.267L938.333 132.667V188V243.333L946.733 243.733L955 244.133V198V151.867L960.733 149.333C975.4 142.8 988.2 142.8 995.4 149.333L999.667 153.067L1000.33 198.267L1001 243.333L1009.4 243.733L1017.67 244.133V198.267V152.267L1024.07 149.6C1033.53 145.467 1042.73 143.733 1049 144.8C1056.33 146 1058.6 147.333 1061.27 152.4C1063.4 156.133 1063.67 161.6 1064.07 200.4L1064.47 244.133L1072.47 243.733L1080.6 243.333L1080.33 198.133C1080.2 157.467 1079.93 152.267 1077.8 147.333C1070.07 129.733 1046.2 126 1016.73 138C1011.27 140.133 1011.13 140.133 1006.07 136.8C996.867 130.667 983.667 129.333 969.267 132.8Z" fill="black"/>
<path d="M1097.67 134.4C1097.67 135.067 1100.6 143.067 1104.2 152.133C1107.67 161.2 1117 185.2 1124.87 205.467L1139.13 242.4L1136.2 249.867C1130.87 264.133 1123.27 269.067 1108.73 267.6C1101.27 266.8 1100.33 267.6 1100.33 274.667C1100.33 280.4 1104.07 281.733 1116.87 281.067C1132.2 280.267 1141.93 274.8 1148.07 263.333C1151.4 257.067 1196.07 135.467 1195.4 134.267C1195.13 133.733 1191 133.333 1186.47 133.333H1177.93L1171.27 152.267C1167.67 162.8 1161.27 181.467 1157 194C1152.73 206.4 1148.87 217.2 1148.33 217.733C1147.8 218.267 1140.2 199.733 1131.53 176.4L1115.67 134L1106.6 133.6C1101.67 133.333 1097.67 133.733 1097.67 134.4Z" fill="black"/>
<path d="M44.2001 228.667L0.733398 304.667L44.0667 305.067C67.9334 305.2 87.6667 305.2 87.9334 304.933C88.2001 304.667 88.2001 270.267 88.0667 228.533L87.6667 152.667L44.2001 228.667Z" fill="black"/>
<path d="M263 229.067V305.333H307.133H351.267L349.4 302.267C348.333 300.667 329 266.933 306.333 227.333C283.8 187.733 264.733 154.8 264.2 154C263.533 153.333 263 187.067 263 229.067Z" fill="black"/>
<path d="M174.333 221.867C151.933 227.333 131.933 248 127.133 270.4C125.267 279.467 125.267 291.867 127.133 299.467L128.6 305.333H177.133H225.667V267.867V230.533L217.267 226.667C203.4 220.133 188.333 218.4 174.333 221.867Z" fill="black"/>
</svg>
