<svg width="226" height="50" viewBox="0 0 226 50" fill="none" xmlns="http://www.w3.org/2000/svg">
<path d="M89.3424 6.22559H85.4155V35.1103H95.4786V31.1262H89.3424V6.22559Z" fill="#66DDDD"/>
<path d="M103.58 6.22559H99.6528V35.1103H109.716V31.1262H103.58V6.22559Z" fill="#66DDDD"/>
<path d="M135.733 35.1099H139.66V18.6755H147.76V14.4424H135.488V35.1099H135.733Z" fill="white"/>
<path d="M156.106 14.4424H152.179V35.1099H156.106V14.4424Z" fill="white"/>
<path d="M122.48 14.4428C120.026 14.4428 118.062 15.1898 116.344 16.6839V6.22559H112.417V24.9011C112.417 30.6282 117.08 35.1103 122.48 35.1103C127.88 35.1103 132.544 30.3792 132.544 24.9011C132.789 19.1739 128.125 14.4428 122.48 14.4428ZM122.48 31.1262C119.044 31.1262 116.344 28.3872 116.344 24.9011C116.344 21.415 119.044 18.6759 122.48 18.6759C125.916 18.6759 128.616 21.415 128.616 24.9011C128.616 28.3872 125.916 31.1262 122.48 31.1262Z" fill="white"/>
<path d="M176.234 16.6829C174.516 15.4378 172.307 14.4418 170.098 14.4418C164.453 14.4418 160.034 19.1729 160.034 24.6511C160.034 30.3782 164.698 34.8603 170.098 34.8603C175.498 34.8603 180.161 30.1292 180.161 24.6511V5.97559H176.234V16.6829ZM169.852 31.1252C166.416 31.1252 163.716 28.3862 163.716 24.9001C163.716 21.414 166.416 18.6749 169.852 18.6749C173.288 18.6749 175.988 21.414 175.988 24.9001C175.988 28.3862 173.288 31.1252 169.852 31.1252Z" fill="white"/>
<path d="M192.924 14.4424C187.279 14.4424 182.861 19.1735 182.861 24.6517C182.861 30.3788 187.524 34.8609 192.924 34.8609C195.133 34.8609 197.342 34.1139 199.06 32.8689V37.849C198.815 41.0861 196.115 43.5761 192.924 43.5761C189.488 43.5761 186.788 40.8371 186.788 37.351H182.861C182.861 43.0781 187.524 47.5603 192.924 47.5603C198.324 47.5603 202.742 43.3271 202.988 37.849V24.6517C203.233 19.1735 198.569 14.4424 192.924 14.4424ZM192.924 31.1258C189.488 31.1258 186.788 28.3867 186.788 24.9007C186.788 21.4146 189.488 18.6755 192.924 18.6755C196.36 18.6755 199.06 21.4146 199.06 24.9007V25.6477C198.815 28.6358 196.115 31.1258 192.924 31.1258Z" fill="white"/>
<path d="M215.751 31.1258C213.787 31.1258 212.069 30.1298 210.842 28.6358L225.814 23.4066C225.078 18.4265 220.905 14.4424 215.751 14.4424C210.105 14.4424 205.688 19.1735 205.688 24.6517C205.688 30.3788 210.351 34.8609 215.751 34.8609C219.432 34.8609 222.869 32.8689 224.587 29.6318L220.66 28.3868C219.432 30.1298 217.714 31.1258 215.751 31.1258ZM215.751 18.6755C217.714 18.6755 219.432 19.6715 220.66 21.1656L209.614 24.9007C209.614 21.4146 212.314 18.6755 215.751 18.6755Z" fill="white"/>
<path d="M38.5349 18.6755L30.4349 10.4583H18.1624L14.2356 14.4424V0.249023H10.0625V25.3987V30.8768L18.1624 39.094H30.4349L34.3623 35.1099V49.3033H38.7806V25.6477L38.5349 18.6755ZM28.4712 34.8609H20.3719L14.4807 28.8848V25.3987V20.6676L20.3719 14.6914H28.4712L34.3623 20.6676V25.8967V28.8848L28.4712 34.8609Z" fill="white"/>
<path d="M67.0088 14.4424L60.8726 20.6675V29.1338L67.0088 35.3589H75.3538L77.3175 33.3669V35.3589H81.4901V29.1338V21.6636V20.6675L75.3538 14.4424H67.0088ZM73.6358 31.1258H68.7268L65.0451 27.3907V22.4106L68.7268 18.6755H73.6358L77.3175 22.4106V27.6397L73.6358 31.1258Z" fill="#66DDDD"/>
<path d="M4.17252 33.1176V10.458H0V35.1097L14.2362 49.552H28.4718V45.3189H16.1993L4.17252 33.1176Z" fill="#66DDDD"/>
<path d="M20.3721 0V4.23311H32.6445L44.6713 16.4344V39.094H48.8438V14.4424L34.6077 0H20.3721Z" fill="#66DDDD"/>
</svg>
