<svg width="704" height="113" viewBox="0 0 704 113" fill="none" xmlns="http://www.w3.org/2000/svg">
<mask id="mask0_1_9" style="mask-type:luminance" maskUnits="userSpaceOnUse" x="0" y="0" width="704" height="113">
<path d="M704 0H0V112.5H704V0Z" fill="white"/>
</mask>
<g mask="url(#mask0_1_9)">
<g clip-path="url(#clip0_1_9)">
<path d="M25.391 56.27L12.675 68.975L-0.0300293 56.27L12.675 43.565L25.391 56.27ZM56.224 25.415L78.004 47.195L90.709 34.49L56.224 0.0159888L21.75 34.49L34.455 47.195L56.235 25.415H56.224ZM99.784 43.565L87.079 56.27L99.784 68.975L112.478 56.27L99.784 43.565ZM56.224 87.114L34.444 65.345L21.739 78.05L56.213 112.524L90.698 78.05L77.993 65.356L56.224 87.114ZM56.224 68.975L68.929 56.27L56.224 43.565L43.519 56.27L56.224 68.975ZM190.314 70.196V70.02C190.314 61.726 185.914 57.59 178.764 54.862C183.164 52.387 186.882 48.515 186.882 41.552V41.376C186.882 31.685 179.116 25.415 166.51 25.415H137.888V87.125H167.236C181.162 87.125 190.325 81.482 190.314 70.196ZM173.396 43.818C173.396 48.405 169.612 50.341 163.606 50.341H151.11V37.317H164.508C170.239 37.317 173.407 39.605 173.407 43.653L173.396 43.818ZM176.828 68.502C176.828 73.078 173.22 75.19 167.225 75.19H151.11V61.638H166.796C173.77 61.638 176.839 64.201 176.839 68.348L176.828 68.502ZM218.826 87.125V25.426H205.208V87.125H218.826ZM291.8 87.125V25.426H278.358V63.42L249.439 25.426H236.932V87.125H250.33V47.888L280.206 87.114L291.8 87.125ZM366.985 87.125L340.497 24.986H327.99L301.546 87.125H315.384L321.049 73.287H347.13L352.784 87.125H366.985ZM342.301 61.297H325.878L334.073 41.299L342.301 61.297ZM431.687 87.125V25.426H418.245V63.42L389.337 25.415H376.819V87.114H390.217V47.888L420.104 87.114L431.687 87.125ZM501.757 77.159L493.122 68.425C488.271 72.825 483.959 75.652 476.908 75.652C466.337 75.652 459.011 66.852 459.011 56.259V56.083C459.011 45.512 466.502 36.866 476.908 36.866C483.068 36.866 487.897 39.506 492.682 43.829L501.295 33.874C495.575 28.242 488.601 24.359 476.974 24.359C458.021 24.359 444.81 38.725 444.81 56.237V56.413C444.81 74.134 458.296 88.137 476.446 88.137C488.315 88.17 495.377 83.946 501.713 77.159H501.757ZM559.672 87.125V75.036H526.144V62.056H555.239V49.956H526.144V37.504H559.188V25.415H512.658V87.114L559.672 87.125ZM575.864 87.136V77.874H583.982V87.136H575.864ZM647.287 60.769C647.287 78.754 636.958 88.104 621.536 88.104C606.114 88.104 595.829 78.765 595.829 61.297V25.404H602.792V60.857C602.792 74.167 609.832 81.658 621.668 81.658C633.042 81.658 640.28 74.783 640.28 61.286V25.393H647.254L647.287 60.769ZM683.851 52.904C697.612 55.907 703.97 60.934 703.97 70.493C703.97 81.163 695.17 88.082 682.883 88.082C673.093 88.082 665.063 84.782 657.605 78.193L661.983 73.045C668.418 78.864 674.589 81.779 683.147 81.779C691.43 81.746 696.93 77.434 696.93 71.186C696.93 65.356 693.839 62.1 680.87 59.361C666.669 56.27 660.135 51.661 660.135 41.453C660.135 31.564 668.704 24.535 680.43 24.535C688.35 24.304 696.072 27.01 702.122 32.125L698.03 37.493C692.299 32.818 686.568 30.783 680.21 30.783C672.191 30.783 667.021 35.183 667.021 40.837C667.087 46.733 670.266 49.956 683.851 52.904Z" fill="#F0B90B"/>
</g>
</g>
<defs>
<clipPath id="clip0_1_9">
<rect width="704" height="112.508" fill="white" transform="matrix(1 0 0 -1 -0.0300293 112.524)"/>
</clipPath>
</defs>
</svg>
