<svg width="600" height="136" viewBox="0 0 600 136" fill="none" xmlns="http://www.w3.org/2000/svg">
<path d="M0 135.5H519.4V121.9H0V135.5Z" fill="#159E49"/>
<path d="M555.4 135.5H600V121.9H555.4V135.5Z" fill="#159E49"/>
<path d="M101.2 101.3H119.8V31.3H101.2V101.3ZM99.4 11.1C99.4 7.89998 100.4 5.29998 102.6 3.09998C104.6 1.09998 107.4 0.0999756 110.6 0.0999756C114 0.0999756 116.6 1.09998 118.6 3.09998C120.6 5.09998 121.8 7.69998 121.8 11.1C121.8 14.3 120.8 16.9 118.6 19.1C116.6 21.1 113.8 22.1 110.6 22.1C107.4 22.1 104.8 21.1 102.6 19.1C100.4 17.1 99.4 14.3 99.4 11.1Z" fill="#333433"/>
<path d="M162.6 31.1H181.6V45.1H162.6V78.7C162.6 81.7 163.4 84.1 165.2 85.9C167 87.7 169.2 88.7 172.2 88.7C174.8 88.7 177.8 88.3 181 87.5L183.4 101.3C178 102.7 172.8 103.5 167.8 103.5C164.4 103.5 161.2 102.9 158.4 101.9C155.6 100.9 153.2 99.3 151 97.3C149 95.3 147.4 92.9 146.2 90.1C145 87.3 144.6 84.3 144.6 80.9V45.5H131.8V31.5H144.6V10.9H162.4V31.1H162.6Z" fill="#333433"/>
<path d="M192.6 50.5C192.6 47.5 193.2 44.5 194.6 41.9C196 39.3 197.8 37.1 200 35.1C202.4 33.3 205.2 31.7 208.4 30.7C211.6 29.7 215.4 29.1 219.2 29.1C223.2 29.1 227.4 29.5 231.6 30.3C235.8 31.1 240.2 32.3 244.6 33.9L240.6 47.1C237.2 45.7 233.8 44.7 230.4 43.9C227 43.1 223.8 42.7 220.8 42.7C217.6 42.7 215 43.3 213 44.7C211 46.1 210.2 47.9 210.2 50.3C210.2 52.5 211.2 54.1 213 55.1C214.8 56.1 217 57.1 219.8 57.9C222.6 58.7 225.4 59.5 228.6 60.1C231.8 60.9 234.8 62.1 237.4 63.7C240.2 65.3 242.4 67.5 244.2 70.1C246 72.9 247 76.5 247 80.9C247 84.1 246.4 86.9 245 89.7C243.6 92.3 241.8 94.7 239.4 96.7C237 98.7 234.2 100.1 230.6 101.3C227.2 102.3 223.4 102.9 219.4 102.9C210.8 102.9 201.6 101.1 192 97.3L195.8 84.3C204 87.7 211.4 89.3 218 89.3C221.4 89.3 224.2 88.5 226.2 87.1C228.2 85.7 229.2 83.7 229.2 81.1C229.2 78.9 228.2 77.3 226.4 76.1C224.6 74.9 222.4 73.9 219.6 73.1C216.8 72.3 214 71.5 210.8 70.7C207.6 69.9 204.8 68.7 202 67.1C199.2 65.5 197 63.5 195.2 60.9C193.4 58.5 192.6 54.9 192.6 50.5Z" fill="#333433"/>
<path d="M284.4 31.1H303.4V45.1H284.4V78.7C284.4 81.7 285.2 84.1 287 85.9C288.8 87.7 291 88.7 294 88.7C296.6 88.7 299.6 88.3 302.8 87.5L305.2 101.3C299.8 102.7 294.6 103.5 289.6 103.5C286.2 103.5 283 102.9 280.2 101.9C277.4 100.9 275 99.3 272.8 97.3C270.6 95.3 269.2 92.9 268 90.1C266.8 87.3 266.4 84.3 266.4 80.9V45.5H253.6V31.5H266.4V10.9H284.2V31.1H284.4Z" fill="#333433"/>
<path d="M332.8 79.9C332.8 82.7 334 85.1 336.2 87.1C338.6 89.1 341.4 90.1 344.8 90.1C349.6 90.1 353.4 88.5 356.4 85.5C359.4 82.5 360.8 78.5 360.8 73.7V69.5C357.4 68.5 353.6 68.1 349.4 68.1C344.2 68.1 340.2 69.1 337.2 71.3C334.4 73.3 332.8 76.3 332.8 79.9ZM315.4 80.9C315.4 73.5 318.2 67.7 323.8 63.7C329.4 59.7 337.2 57.7 347.4 57.7C349.6 57.7 351.8 57.9 354 58.1C356.2 58.3 358.6 58.7 360.8 59.1V55.3C360.8 51.7 359.6 48.7 357 46.5C354.4 44.3 351 43.1 346.6 43.1C339.6 43.1 332 44.7 323.8 48.1L319.2 35.3C329.2 31.3 339 29.5 348.6 29.5C353 29.5 356.8 30.1 360.4 31.5C364 32.7 367 34.5 369.6 36.9C372.2 39.1 374.2 41.9 375.6 45.1C377 48.3 377.8 51.9 377.8 55.7V84.3C377.8 85.9 378.2 87.1 379 87.9C379.8 88.9 381 89.3 382.6 89.3C383.4 89.3 384 89.3 384.8 89.1C385.4 89.1 386 88.9 386.2 88.9L387.4 102.3C385.8 102.5 384.4 102.9 382.8 103.1C381.2 103.3 379.6 103.3 377.8 103.3C374.2 103.3 371.2 102.5 368.6 100.7C366 99.1 364.2 96.7 363 93.7C360 96.7 356.4 99.1 352.6 100.7C348.6 102.3 344.6 103.1 340.2 103.1C336.6 103.1 333.2 102.5 330.2 101.5C327.2 100.5 324.6 98.9 322.4 96.9C320.2 94.9 318.6 92.7 317.4 89.9C316 87.1 315.4 84.1 315.4 80.9Z" fill="#333433"/>
<path d="M397.8 30.9H412.2L414.4 40.5C417.2 36.9 420.4 34.1 424.4 32.1C428.4 30.1 432.6 29.1 437.2 29.1C442.4 29.1 446.8 30.3 450.8 32.5C454.6 34.7 457.6 37.9 459.6 41.9C462.8 37.7 466.6 34.5 470.8 32.3C475 30.1 479.6 29.1 484.8 29.1C488.6 29.1 492 29.7 495.2 30.9C498.4 32.1 501.2 33.9 503.4 36.3C505.8 38.5 507.6 41.3 508.8 44.5C510 47.7 510.8 51.1 510.8 54.9V101.3H492.6V57.9C492.6 53.9 491.4 50.7 488.8 48.1C486.2 45.7 483 44.3 479 44.3C474.4 44.3 470.6 45.9 467.6 49.1C464.6 52.3 463.2 56.3 463.2 61.5V101.3H445V57.9C445 53.9 443.8 50.7 441.4 48.1C439 45.7 435.8 44.3 431.8 44.3C427 44.3 423.2 45.9 420.2 49.1C417.2 52.3 415.8 56.3 415.8 61.5V101.3H397.6V30.9H397.8Z" fill="#333433"/>
<path d="M580 65.9C580 62.7 579.6 59.7 578.6 56.9C577.8 54.1 576.4 51.7 574.8 49.9C573.2 47.9 571.4 46.5 569.2 45.3C567 44.1 564.6 43.7 562 43.7C557.2 43.7 553.4 45.3 550.2 48.7C547.2 51.9 545.6 56.1 545.6 61.3V70.7C545.6 73.3 546 75.7 546.8 77.7C547.6 79.9 548.8 81.7 550.2 83.3C551.6 84.9 553.4 86.1 555.4 86.9C557.4 87.7 559.6 88.1 562 88.1C564.6 88.1 567 87.5 569.2 86.5C571.4 85.5 573.2 83.9 574.8 81.9C576.4 79.9 577.6 77.5 578.6 74.9C579.6 72.3 580 69.1 580 65.9ZM528 30.9H542.4L544.6 39.9C547.2 36.5 550.2 33.9 554 31.9C557.8 30.1 562 29.1 566.6 29.1C571.2 29.1 575.4 30.1 579.4 31.9C583.2 33.7 586.6 36.3 589.4 39.5C592.2 42.7 594.4 46.5 596 51.1C597.6 55.5 598.4 60.5 598.4 65.9C598.4 71.3 597.6 76.3 596 80.7C594.4 85.1 592.2 89.1 589.4 92.3C586.6 95.5 583.2 98.1 579.4 99.9C575.6 101.7 571.2 102.7 566.6 102.7C562.4 102.7 558.4 101.9 555 100.3C551.4 98.7 548.4 96.3 546 93.1V135.7H528V30.9Z" fill="#333433"/>
<path d="M61.2 83.3C58.4 86.1 54.6 87.3 49.8 87.3H27.4V58.3H49.8C54.4 58.3 58.2 59.7 61.2 62.3C64 64.9 65.4 68.5 65.4 72.7C65.6 77.1 64.2 80.7 61.2 83.3ZM27.4 19.1H48C52.2 19.1 55.6 20.3 58.4 22.9C61.2 25.3 62.4 28.7 62.4 32.7C62.4 36.7 61 39.9 58.4 42.3C55.6 44.7 52.2 45.9 48 45.9H27.4V19.1ZM79.6 60.1C76.6 55.9 72.6 52.9 67.6 51.1C71.6 49.3 74.6 46.7 77 43.1C79.4 39.5 80.6 35.3 80.6 30.5C80.6 26.7 79.8 23.3 78.4 20.3C77 17.1 74.8 14.5 72.2 12.3C69.6 10.1 66.4 8.29998 62.8 7.09998C59.2 5.89998 55.2 5.29997 50.8 5.29997H0V18.1C7.8 18.1 14 24.5 14 32.3C14 40.1 7.8 46.5 0 46.5V58.1C7.8 58.1 14 64.5 14 72.3V74.5C14 82.3 7.8 88.7 0 88.7V101.5H53C57.6 101.5 61.6 100.9 65.4 99.5C69.2 98.3 72.4 96.5 75.2 94.1C78 91.7 80.2 88.9 81.6 85.7C83.2 82.5 84 78.9 84 74.9C84 69.1 82.6 64.3 79.6 60.1Z" fill="#333433"/>
</svg>
