<svg width="738" height="178" viewBox="0 0 738 178" fill="none" xmlns="http://www.w3.org/2000/svg">
<g filter="url(#filter0_d_3_93)">
<path d="M125.8 116.5L143.3 131.5C139.9 136.2 135.9 140.3 131.3 143.8C125.6 148.3 119.2 151.9 112.4 154.5C104.9 157.4 96.9001 158.9 88.8001 158.8C76.5001 159 64.4001 155.9 53.8001 149.8C43.8001 144 35.6001 135.6 30.0001 125.4C24.1001 114.7 21.2001 102.6 21.4001 90.3C21.3001 81.1 23.0001 72 26.3001 63.4C29.5001 55.1 34.3001 47.6 40.4001 41.2C46.4001 34.8 53.7001 29.7 61.8001 26.2C70.6001 22.5 80.0001 20.6 89.5001 20.7C100.9 20.3 112.1 22.9 122.1 28.3C130.3 33.1 137.5 39.5 143.1 47.2L125.4 62.8C121.5 57 116.5 52.1 110.7 48.2C104.3 44.3 96.9001 42.4 89.5001 42.7C81.5001 42.5 73.7001 44.7 67.1001 49.1C60.8001 53.5 55.8001 59.5 52.6001 66.5C49.2001 73.8 47.4001 81.8 47.5001 89.9C47.4001 97.8 49.2001 105.6 52.6001 112.7C55.8001 119.3 60.6001 125 66.7001 129.1C73.1001 133.2 80.5001 135.3 88.1001 135.1C94.5001 135.4 100.9 134.2 106.8 131.8C111 129.9 114.9 127.3 118.2 124L125.8 116.5Z" fill="#1C2951"/>
<path d="M150.1 109.1C150 100.5 152.2 92 156.4 84.5C160.6 77.1 166.7 70.9 174.1 66.6C190.4 57.8 210.1 57.8 226.4 66.6C233.8 70.9 239.8 77.1 244 84.5C257.1 109 247.8 139.5 223.3 152.6C199.6 165.3 170 157 156.3 133.9C152.1 126.4 149.9 117.9 150 109.3L150.1 109.1ZM200 138.6C205.3 138.8 210.5 137.2 214.7 134.1C218.6 131.2 221.6 127.3 223.5 122.8C225.4 118.6 226.4 114 226.4 109.3C226.4 104.7 225.3 100.1 223.5 95.8C221.6 91.3 218.5 87.4 214.7 84.5C205.8 78.5 194.1 78.5 185.2 84.5C181.4 87.4 178.4 91.2 176.6 95.6C174.7 99.8 173.7 104.4 173.6 109.1C173.7 113.8 174.7 118.5 176.6 122.7C178.5 127.2 181.6 131.1 185.4 134C189.7 137.1 194.9 138.7 200.1 138.5" fill="#1C2951"/>
<path d="M255 23.9H278.4V48.5H255V23.9ZM255 62.9H278.4V155.5H255V62.9Z" fill="#1C2951"/>
<path d="M287.6 155.5V63.1H310L310.6 73.6C313.7 70.4 317.2 67.7 321 65.4C326.4 62.3 332.5 60.8 338.7 61.1C348.6 60.5 358.3 64.2 365.2 71.4C371.7 79.2 375 89.2 374.4 99.3V155.4H350.9V99.4C351.2 94.4 349.4 89.4 346 85.8C344.4 84.2 342.4 82.9 340.2 82.1C338 81.3 335.7 80.9 333.4 81C327.3 80.8 321.4 83.4 317.3 88C313.1 92.8 310.8 99 311 105.4V155.5H287.6Z" fill="#1C2951"/>
<path d="M663.3 85L704.6 24H665.5L644.1 58.1L622.1 24H578.8L580.8 26.7L579.4 26.1C569.2 22.3 558.3 20.4 547.4 20.5C534.8 20.3 522.4 23.4 511.4 29.7C503.6 34.2 496.8 40.3 491.6 47.6C485.8 40.4 478.4 34.8 470 31.2C458.4 26.4 446 24 433.5 24.2H382.6V155.6H433.3C445.9 155.8 458.3 153.4 469.8 148.4C478.2 144.8 485.6 139.2 491.4 132.2C496.8 139.6 503.7 145.7 511.6 150.1C522.5 156.1 534.9 159.1 547.4 158.9C559.2 159.1 570.9 156.6 581.6 151.5L578.8 155.6H617.3L643 115.2L669.5 155.6H713.5L663.3 85ZM458.8 115C451.6 121.8 441.9 125.4 432.1 124.8H417.8V54.6H432.2C442.3 53.7 452.4 57.3 459.7 64.4C465.8 71.4 468.9 80.5 468.6 89.8C468.8 99.1 465.3 108.2 458.8 115ZM599.7 124.5L583 109C579.1 114 574.3 118.3 568.9 121.7C563.1 124.7 556.5 126.1 550 125.8C543.5 126 537.1 124.3 531.5 121.1C526.3 118 522 113.5 519.3 108C516.4 102.1 514.9 95.6 515 89.1C514.9 82.7 516.3 76.3 519.1 70.6C521.8 65.2 526 60.7 531.1 57.5C536.9 54.1 543.5 52.4 550.2 52.6C556.4 52.5 562.5 54 567.9 57.1C573.1 60.2 577.7 64.3 581.3 69.2L598.8 51.8L624.3 88.3L599.7 124.5Z" fill="#F94A29"/>
</g>
<defs>
<filter id="filter0_d_3_93" x="17.3904" y="20.4909" width="700.11" height="146.42" filterUnits="userSpaceOnUse" color-interpolation-filters="sRGB">
<feFlood flood-opacity="0" result="BackgroundImageFix"/>
<feColorMatrix in="SourceAlpha" type="matrix" values="0 0 0 0 0 0 0 0 0 0 0 0 0 0 0 0 0 0 127 0" result="hardAlpha"/>
<feOffset dy="4"/>
<feGaussianBlur stdDeviation="2"/>
<feComposite in2="hardAlpha" operator="out"/>
<feColorMatrix type="matrix" values="0 0 0 0 0 0 0 0 0 0 0 0 0 0 0 0 0 0 0.25 0"/>
<feBlend mode="normal" in2="BackgroundImageFix" result="effect1_dropShadow_3_93"/>
<feBlend mode="normal" in="SourceGraphic" in2="effect1_dropShadow_3_93" result="shape"/>
</filter>
</defs>
</svg>
