<?xml version="1.0" encoding="utf-8"?>
<!-- Generator: Adobe Illustrator 25.4.1, SVG Export Plug-In . SVG Version: 6.00 Build 0)  -->
<svg version="1.0" id="Layer_1" xmlns="http://www.w3.org/2000/svg" xmlns:xlink="http://www.w3.org/1999/xlink" x="0px" y="0px"
	 viewBox="0 0 229.9 41.1" enable-background="new 0 0 229.9 41.1" xml:space="preserve">
<g>
	<defs>
		<rect id="SVGID_1_" width="229.9" height="41.1"/>
	</defs>
	<clipPath id="SVGID_00000062186582070498988380000008589056061310051469_">
		<use xlink:href="#SVGID_1_"  overflow="visible"/>
	</clipPath>
	<g clip-path="url(#SVGID_00000062186582070498988380000008589056061310051469_)">
		<path fill="#0052FF" d="M46.4,11.5c-8.4,0-14.9,6.3-14.9,14.8c0,8.5,6.4,14.8,14.9,14.8c8.5,0,15-6.4,15-14.8
			C61.4,17.9,55,11.5,46.4,11.5z M46.5,34.9c-4.8,0-8.2-3.7-8.2-8.7c0-5,3.4-8.7,8.2-8.7c4.8,0,8.3,3.7,8.3,8.7S51.2,34.9,46.5,34.9
			z M63.2,17.9h4.1v22.6H74V12H63.2V17.9z M14.8,17.6c3.5,0,6.3,2.1,7.3,5.3h7c-1.3-6.8-6.9-11.5-14.3-11.5C6.5,11.5,0,17.8,0,26.3
			s6.4,14.8,14.9,14.8c7.2,0,12.9-4.6,14.2-11.5h-7c-1,3.2-3.8,5.4-7.2,5.4c-4.8,0-8.2-3.7-8.2-8.7C6.7,21.3,10,17.6,14.8,17.6z
			 M189.3,23.5l-4.9-0.7c-2.3-0.3-4-1.1-4-2.9c0-2,2.2-3,5.1-3c3.2,0,5.3,1.4,5.7,3.6h6.4c-0.7-5.7-5.1-9.1-11.9-9.1
			c-7,0-11.7,3.6-11.7,8.7c0,4.8,3,7.7,9.2,8.5l4.9,0.7c2.4,0.3,3.7,1.3,3.7,3c0,2.3-2.3,3.2-5.5,3.2c-3.9,0-6.1-1.6-6.5-4h-6.5
			c0.6,5.6,5,9.5,12.9,9.5c7.2,0,12.1-3.3,12.1-9C198.3,27,194.8,24.4,189.3,23.5z M70.7,0.3c-2.4,0-4.3,1.8-4.3,4.2
			s1.8,4.2,4.3,4.2c2.4,0,4.3-1.8,4.3-4.2S73.1,0.3,70.7,0.3z M168.1,21.8c0-6.2-3.8-10.3-11.7-10.3c-7.5,0-11.7,3.8-12.6,9.6h6.6
			c0.3-2.3,2.1-4.1,5.9-4.1c3.4,0,5,1.5,5,3.3c0,2.4-3,3-6.8,3.4c-5.1,0.6-11.4,2.3-11.4,8.9c0,5.1,3.8,8.4,9.9,8.4
			c4.8,0,7.7-2,9.2-5.1c0.2,2.8,2.3,4.6,5.3,4.6h3.9v-5.9h-3.3L168.1,21.8L168.1,21.8z M161.5,28.9c0,3.8-3.3,6.6-7.4,6.6
			c-2.5,0-4.6-1-4.6-3.3c0-2.8,3.4-3.6,6.5-3.9c3-0.3,4.6-0.9,5.5-2.2V28.9z M126.3,11.5c-3.7,0-6.8,1.5-9,4.1V0h-6.6v40.5h6.5v-3.7
			c2.2,2.7,5.4,4.3,9.1,4.3c8,0,14-6.3,14-14.8S134.2,11.5,126.3,11.5z M125.3,34.9c-4.8,0-8.2-3.7-8.2-8.7s3.5-8.7,8.3-8.7
			c4.8,0,8.2,3.7,8.2,8.7C133.6,31.3,130.1,34.9,125.3,34.9z M94.8,11.5c-4.3,0-7.1,1.8-8.8,4.2V12h-6.6v28.5H86V25
			c0-4.4,2.8-7.4,6.9-7.4c3.8,0,6.2,2.7,6.2,6.6v16.3h6.6V23.7C105.7,16.5,102,11.5,94.8,11.5z M229.9,25.4c0-8.2-6-13.9-14-13.9
			c-8.5,0-14.8,6.4-14.8,14.8c0,8.9,6.7,14.8,14.9,14.8c6.9,0,12.3-4.1,13.7-9.9h-6.9c-1,2.5-3.4,4-6.7,4c-4.3,0-7.5-2.6-8.2-7.3h22
			L229.9,25.4L229.9,25.4z M208.3,23.2c1.1-4,4-5.9,7.5-5.9c3.8,0,6.6,2.1,7.3,5.9H208.3z"/>
	</g>
</g>
</svg>
