<svg width="77" height="26" viewBox="0 0 858 290" fill="none" xmlns="http://www.w3.org/2000/svg">
  <path d="M170.3 187.4h-51.1v51.1h51.1v-51.1Z" fill="#7CE8FE"/>
  <path d="M205.6 119.2h-86.4v51.1H221.5v-51.1h-15.9Z" fill="#3EC7E3"/>
  <path d="M272.6 51H119.2v51.1h153.4V51Z" fill="#00A2C7"/>
  <path d="M102.1 119.2H51v51.1h51.1v-51.1Z" fill="#3EC7E3"/>
  <path d="M323.7 238.5h39.7v-77.4h76.2v-32.7h-76.2V83.7h84.5V51H323.7v187.5ZM467.4 83.7h57.4v154.8H564V83.7h57.4V51h-154v32.7ZM684 51h-45l57.6 93.8-58.7 93.7h45.4l38.5-64h1.4l38.5 64h45.6l-58.5-93.7L806 51h-44.8l-38 64h-1.4L684 51Z" fill="#000"/>
</svg>
