<svg width="123" height="30" viewBox="0 0 131 32" xmlns="http://www.w3.org/2000/svg">
  <path d="M18.62 20.36h-5.24v5.24h5.24v-5.24Z" fill="#7CE8FE"/>
  <path d="M22.23 13.38h-8.85v5.24H23.85v-5.24h-1.62Z" fill="#3EC7E3"/>
  <path d="M29.09 6.4h-15.7v5.24h15.7V6.4Z" fill="#00A2C7"/>
  <path d="M11.64 13.38H6.4v5.24h5.24v-5.24Z" fill="#CC1423"/>
  <path d="M105.2 6.37v12.6c0 3.05-2.17 5.28-5.51 5.28-3.35 0-5.53-2.23-5.53-5.29V6.37h-1.75v12.71c0 3.92 2.95 6.82 7.28 6.82s7.27-2.9 7.27-6.82V6.38h-1.75ZM122.48 11.17h1.7c-.13-2.91-2.66-5.07-6.23-5.07-3.54 0-6.27 2.13-6.27 5.22 0 2.47 1.74 4.01 4.75 4.9l2.3.68c2.38.7 4.01 1.58 4.01 3.54 0 2.31-2.09 3.86-4.96 3.86-2.58 0-4.6-1.25-4.8-3.53h-1.8c.21 3.04 2.68 5.13 6.6 5.13 4.17 0 6.66-2.35 6.66-5.43 0-3.19-2.77-4.46-5.21-5.14l-2.03-.59c-1.86-.52-3.82-1.47-3.82-3.5 0-2.06 1.84-3.56 4.53-3.56 2.54 0 4.36 1.35 4.57 3.5ZM34.32 25.6h4.06v-7.93h7.81v-3.35h-7.8V9.75h8.65V6.4H34.32v19.2ZM49.03 9.75h5.88V25.6h4.02V9.75h5.87V6.4H49.03v3.35ZM71.2 6.4h-4.6l5.9 9.6-6.01 9.6h4.65l3.94-6.55h.15l3.93 6.55h4.67L77.84 16l5.86-9.6h-4.58l-3.9 6.54h-.14L71.2 6.4Z" fill="#000"/>
</svg>
