<?xml version="1.0" encoding="UTF-8"?>
<svg fill="none" viewBox="0 0 217 24" xmlns="http://www.w3.org/2000/svg">
<path d="M19.34 9.646c1.47 1.961-2.835 5.754-1.868 4.188h-9.17C7.31 12.536 6.628 11.118 6.3 9.646h13.04Z" fill="url(#l)"/>
<path d="M16.682 20.95a23.755 23.755 0 0 1-4.203 2.683l-.73.367-.734-.366C4.116 20.172 0 14.208 0 7.674V0h4.208v7.673c0 .49.032.978.099 1.463.53 3.97 3.21 7.633 7.426 10.1a.056.056 0 0 0 .014.009l.011-.007.018-.011a15.188 15.188 0 0 0 4.906 1.724Z" fill="url(#k)"/>
<path d="M23.368 9.646a15.653 15.653 0 0 1-1.235 4.392c-1.153 2.592-3.007 4.951-5.449 6.914a15.187 15.187 0 0 1-4.904-1.724c.55-.325 1.084-.677 1.599-1.055.051-.033.1-.07.148-.108a15.234 15.234 0 0 0 5.813-8.42h4.028Z" fill="url(#j)"/>
<path d="M23.498.001H4.208v4.206h19.29V.001Z" fill="url(#i)"/>
<path d="M23.499 4.208v3.465c0 .143-.005.287-.01.43h-4.21c.005-.143.007-.287.007-.43V4.208h4.213Z" fill="url(#h)"/>
<path d="M67.306 11.28c0 1.425-.16 2.59-.482 3.492a6.131 6.131 0 0 1-2.428 3.165 6.911 6.911 0 0 1-3.861 1.06c-2.42 0-4.275-.822-5.568-2.468A7.032 7.032 0 0 1 53.5 12.06c0-1.918.573-3.529 1.718-4.835C56.518 5.742 58.332 5 60.662 5c1.556 0 2.874.4 3.956 1.198.772.564 1.431 1.4 1.978 2.507l-3.238 1.342c-.216-.527-.546-1-.968-1.382a2.884 2.884 0 0 0-1.888-.654c-1.49 0-2.53.767-3.116 2.301a4.777 4.777 0 0 0-.33 1.753 4.362 4.362 0 0 0 1.192 3.134c.588.624 1.373.935 2.353.933.87 0 1.56-.253 2.07-.759.373-.41.604-.928.66-1.479h-2.819v-2.615h6.794Zm17.619 1.736c.008.68-.06 1.358-.203 2.023a4.699 4.699 0 0 1-1.418 2.386c-1.069 1.01-2.498 1.516-4.287 1.516-1.82 0-3.241-.515-4.264-1.544a4.236 4.236 0 0 1-1.11-2.036 10.22 10.22 0 0 1-.213-2.335V5.42h3.426v7.125c0 .574.01 1 .03 1.281.062.895.467 1.519 1.215 1.872.32.15.67.225 1.024.22.835 0 1.465-.291 1.89-.876.316-.43.473-1.262.473-2.497V5.421h3.427l.01 7.595Zm18.043 5.577h-3.659l-.848-2.297h-4.729l-.907 2.297h-3.618l5.06-13.172h3.741l4.96 13.172Zm-5.433-4.901-1.417-4.2-1.439 4.2h2.856Zm21.856 4.901h-4.25l-3.272-5.06v5.06h-3.435V5.421h5.329c1.557 0 2.708.466 3.454 1.398a4.11 4.11 0 0 1 .907 2.655c0 1.165-.347 2.094-1.042 2.789-.51.478-1.146.8-1.834.927l4.143 5.403Zm-4.817-8.93a1.549 1.549 0 0 0-.512-1.184c-.323-.303-.843-.453-1.56-.452h-.639v3.28h.639c.725 0 1.243-.151 1.56-.453a1.577 1.577 0 0 0 .51-1.191h.002Zm21.758 2.339a6.747 6.747 0 0 1-4.412 6.233 6.316 6.316 0 0 1-2.085.356h-5.059V5.42h5.059a6.172 6.172 0 0 1 3.441 1.032 6.65 6.65 0 0 1 2.38 2.675 6.51 6.51 0 0 1 .676 2.874Zm-3.552 0a3.846 3.846 0 0 0-.765-2.38c-.675-.897-1.686-1.345-3.036-1.344h-.783v7.46h.783c1.35 0 2.361-.449 3.036-1.346.511-.69.779-1.531.761-2.39h.004Zm20.62 6.591h-3.657l-.85-2.297h-4.729l-.907 2.297h-3.619l5.06-13.172h3.742l4.96 13.172Zm-5.434-4.901-1.416-4.2-1.429 4.2h2.845Zm21.857 4.901h-4.262l-3.271-5.06v5.06h-3.422V5.421h5.327c1.556 0 2.708.466 3.454 1.398.604.752.925 1.691.907 2.655 0 1.165-.348 2.094-1.043 2.789a3.64 3.64 0 0 1-1.833.927l4.143 5.403Zm-4.815-8.93a1.566 1.566 0 0 0-.514-1.184c-.324-.302-.842-.452-1.558-.452h-.64v3.28h.634c.723 0 1.242-.15 1.558-.453a1.593 1.593 0 0 0 .518-1.191h.002Zm13.632 8.93h-3.428V5.421h3.426l.002 13.172Zm19.238 0h-3.659l-.85-2.297h-4.728l-.906 2.297h-3.621l5.06-13.172h3.733l4.971 13.172Zm-5.432-4.901-1.417-4.2-1.439 4.2h2.856Zm24.052 4.901h-3.426l-6.302-8.066v8.066h-3.426V5.421h3.426l6.302 8.058V5.421h3.426v13.172Z" fill="url(#g)"/>
<defs>
<linearGradient id="l" x1="19.649" x2="10.194" y1="9.646" y2="18.406" gradientUnits="userSpaceOnUse">
<stop stop-color="#000756" offset="0"/>
<stop stop-color="#0042B8" offset="1"/>
</linearGradient>
<linearGradient id="k" x1="16.682" x2="-4.265" y2="4.607" gradientUnits="userSpaceOnUse">
<stop stop-color="#000756" offset="0"/>
<stop stop-color="#0042B8" offset="1"/>
</linearGradient>
<linearGradient id="j" x1="23.368" x2="9.565" y1="9.646" y2="14.121" gradientUnits="userSpaceOnUse">
<stop stop-color="#000756" offset="0"/>
<stop stop-color="#0042B8" offset="1"/>
</linearGradient>
<linearGradient id="i" x1="23.498" x2="15.322" y1=".001" y2="11.866" gradientUnits="userSpaceOnUse">
<stop stop-color="#000756" offset="0"/>
<stop stop-color="#0042B8" offset="1"/>
</linearGradient>
<linearGradient id="h" x1="23.499" x2="18.528" y1="4.208" y2="5.911" gradientUnits="userSpaceOnUse">
<stop stop-color="#000756" offset="0"/>
<stop stop-color="#0042B8" offset="1"/>
</linearGradient>
<linearGradient id="g" x1="216.5" x2="201.77" y1="5" y2="59.249" gradientUnits="userSpaceOnUse">
<stop stop-color="#000756" offset="0"/>
<stop stop-color="#0042B8" offset="1"/>
</linearGradient>
</defs>
</svg>
