<svg xmlns="http://www.w3.org/2000/svg" width="118" height="19" viewBox="0 0 117 19">
  <g fill="#5841d8">
    <path d="M11.2.66C5.03.66 0 5.7 0 11.9v4.83a1.6 1.6 0 1 0 3.2 0v-4.83a1.6 1.6 0 1 1 3.2 0v4.83a1.6 1.6 0 1 0 3.2 0v-4.83a1.6 1.6 0 1 1 3.2 0v4.83a1.6 1.6 0 1 0 3.21 0v-4.83a1.6 1.6 0 1 1 3.2 0v4.83a1.6 1.6 0 1 0 3.2 0v-4.83C22.42 5.7 17.4.66 11.22.66ZM24.93.66h2.85v7.5l7.59-7.5h3.78l-6.77 6.57 7.15 11.11h-3.78l-5.54-9-2.43 2.36v6.64h-2.85ZM41.07.66h2.82V3.7c.22-.6.79-1.32 1.69-2.17A4.4 4.4 0 0 1 48.96.28c.14 0 .36.03.68.06v3.14a4.08 4.08 0 0 0-.97-.08c-1.49 0-2.63.48-3.44 1.44-.8.96-1.2 2.07-1.2 3.33v10.17h-2.96ZM60.66 7.64c.68-.09 1.14-.37 1.37-.86.13-.26.2-.64.2-1.14 0-1.01-.36-1.75-1.08-2.21a5.74 5.74 0 0 0-3.08-.7c-1.54 0-2.63.43-3.28 1.27-.36.46-.6 1.16-.7 2.07h-2.77c.06-2.18.76-3.7 2.11-4.56A8.63 8.63 0 0 1 58.14.23c2.07 0 3.75.4 5.04 1.18 1.28.8 1.93 2.03 1.93 3.7v10.2c0 .3.06.55.18.74.13.19.4.28.8.28a4.74 4.74 0 0 0 .97-.1v2.2c-.46.13-.8.21-1.05.25-.24.03-.57.05-.99.05-1.02 0-1.75-.37-2.22-1.1a4.28 4.28 0 0 1-.5-1.63c-.6.8-1.47 1.48-2.6 2.06a7.97 7.97 0 0 1-3.73.88c-1.63 0-2.97-.5-4-1.5a4.97 4.97 0 0 1-1.56-3.73c0-1.64.51-2.9 1.53-3.8a7.24 7.24 0 0 1 4.01-1.67Zm-6.23 8.03c.63.5 1.37.74 2.22.74 1.04 0 2.05-.24 3.03-.72a4.1 4.1 0 0 0 2.46-3.94v-2.4c-.36.24-.82.43-1.4.58-.56.16-1.12.27-1.67.34l-1.78.22a6.96 6.96 0 0 0-2.42.68c-.92.51-1.37 1.34-1.37 2.47 0 .86.3 1.54.93 2.03ZM71.83.66v7.5l7.6-7.5h3.77l-6.77 6.57 7.15 11.11H79.8l-5.54-9-2.43 2.37v6.63h-2.85V.66ZM95.65 1.14a6.68 6.68 0 0 1 2.67 2.29c.58.9.97 1.93 1.17 3.12.17.82.26 2.11.26 3.9h-12.8c.05 1.8.47 3.24 1.25 4.33.78 1.09 2 1.63 3.64 1.63a4.65 4.65 0 0 0 4.76-3.61h2.9a6.18 6.18 0 0 1-.76 2.16c-.43.8-.91 1.46-1.44 1.97-.9.87-2 1.47-3.32 1.78-.7.17-1.5.26-2.4.26-2.17 0-4.02-.8-5.53-2.4-1.52-1.6-2.28-3.84-2.28-6.73 0-2.84.77-5.15 2.3-6.92A7.51 7.51 0 0 1 92.03.26c1.24 0 2.44.3 3.61.88Zm1.06 6.95A7.74 7.74 0 0 0 95.88 5c-.8-1.43-2.15-2.14-4.03-2.14-1.35 0-2.47.49-3.39 1.47a5.63 5.63 0 0 0-1.45 3.76ZM105.16.66v2.5a7.9 7.9 0 0 1 2.65-2.22 7 7 0 0 1 3.1-.68c2.5 0 4.2.88 5.07 2.63.48.95.73 2.32.73 4.11v11.34h-3.01V7.2c0-1.08-.16-1.95-.48-2.61-.52-1.1-1.48-1.65-2.86-1.65a4.52 4.52 0 0 0-3.87 1.67 4.44 4.44 0 0 0-.96 1.8c-.14.63-.22 1.52-.22 2.67v9.26h-2.96V.66Zm0 0"/>
  </g>
</svg>
