<svg xmlns="http://www.w3.org/2000/svg" width="167" height="27" viewBox="0 0 186 30" fill="none"><script xmlns=""/>
<path d="M17.814 1C7.97524 1 0 8.97941 0 18.8223V26.4599C0 27.8648 1.13813 29.003 2.54307 29.003C3.94802 29.003 5.09448 27.8648 5.09448 26.4599V18.8223C5.09448 17.4132 6.22844 16.2751 7.63755 16.2751C9.0425 16.2751 10.1806 17.4132 10.1806 18.8223V26.4599C10.1806 27.8648 11.3188 29.003 12.7237 29.003C14.1328 29.003 15.2709 27.8648 15.2709 26.4599V18.8223C15.2709 17.4132 16.4091 16.2751 17.814 16.2751C19.2231 16.2751 20.3654 17.4132 20.3654 18.8223V26.4599C20.3654 27.8648 21.5036 29.003 22.9085 29.003C24.3134 29.003 25.4516 27.8648 25.4516 26.4599V18.8223C25.4516 17.4132 26.5897 16.2751 28.003 16.2751C29.4079 16.2751 30.546 17.4132 30.546 18.8223V26.4599C30.546 27.8648 31.6842 29.003 33.0933 29.003C34.4982 29.003 35.6364 27.8648 35.6364 26.4599V18.8223C35.6364 8.97941 27.657 1 17.814 1Z" fill="#5841d8"/>
<path d="M39.6364 1.00272H44.1578V12.8926L56.2235 1.00272H62.2354L51.476 11.4105L62.8383 28.9941H56.8264L48.022 14.7514L44.1578 18.49V28.9983H39.6364V1.00272Z" fill="#5841d8"/>
<path d="M65.2958 1.00305H69.7671V5.83853C70.1313 4.89656 71.0314 3.75362 72.459 2.40136C73.8867 1.05329 75.5362 0.375066 77.3992 0.375066C77.4871 0.375066 77.6336 0.383439 77.843 0.400186C78.0523 0.416932 78.4081 0.450425 78.9147 0.50485V5.4743C78.6342 5.41988 78.3788 5.38638 78.1444 5.36964C77.9099 5.35289 77.6504 5.34452 77.3741 5.34452C75.0045 5.34452 73.1833 6.10647 71.9106 7.63038C70.6379 9.15429 70.0015 10.9085 70.0015 12.8971V28.9986H65.2958V1.00305Z" fill="#5841d8"/>
<path d="M96.4397 12.0556C97.5198 11.9174 98.2441 11.4653 98.6083 10.6991C98.8176 10.2805 98.9223 9.67761 98.9223 8.89054C98.9223 7.2829 98.3529 6.11485 97.2142 5.38639C96.0754 4.66211 94.4469 4.29788 92.3243 4.29788C89.871 4.29788 88.1335 4.96354 87.1078 6.29487C86.5343 7.03171 86.1617 8.1244 85.9858 9.57714H81.5941C81.682 6.11903 82.7998 3.71176 84.9476 2.35531C87.0994 1.00305 89.5905 0.324829 92.429 0.324829C95.7196 0.324829 98.3906 0.952814 100.442 2.2046C102.481 3.46057 103.498 5.4115 103.498 8.0616V24.1882C103.498 24.6781 103.599 25.0674 103.8 25.3647C103.996 25.6619 104.419 25.8084 105.068 25.8084C105.278 25.8084 105.512 25.7959 105.776 25.7708C106.035 25.7456 106.316 25.7038 106.613 25.6535V29.1284C105.88 29.3377 105.324 29.4675 104.943 29.5219C104.557 29.5722 104.038 29.6015 103.373 29.6015C101.752 29.6015 100.576 29.0279 99.8434 27.8766C99.4624 27.2654 99.1903 26.4029 99.0354 25.2893C98.0766 26.5453 96.7034 27.6338 94.9074 28.5548C93.1114 29.4801 91.1353 29.9406 88.975 29.9406C86.3794 29.9406 84.2568 29.1535 82.6115 27.5794C80.9661 26.0052 80.1414 24.0333 80.1414 21.6679C80.1414 19.0765 80.9536 17.0669 82.5738 15.6393C84.194 14.2117 86.3208 13.3325 88.9499 13.0017L96.4397 12.0556ZM86.5343 24.766C87.5265 25.5489 88.7029 25.9382 90.0635 25.9382C91.7172 25.9382 93.3207 25.5573 94.8739 24.7911C97.4863 23.5226 98.7925 21.4419 98.7925 18.5531V14.7685C98.219 15.1369 97.4779 15.4425 96.5736 15.6853C95.6693 15.9282 94.7818 16.104 93.9152 16.2087L91.0725 16.5729C89.3686 16.799 88.0875 17.1548 87.2292 17.6405C85.7723 18.4568 85.048 19.7631 85.048 21.5507C85.0438 22.9155 85.5421 23.9831 86.5343 24.766Z" fill="#5841d8"/>
<path d="M114.195 1.00305V12.8929L126.261 1.00305H132.268L121.509 11.4109L132.871 28.9944H126.859L118.055 14.7517L114.191 18.4903V28.9986H109.669V1.00305H114.195Z" fill="#5841d8"/>
<path d="M152.062 1.77338C153.917 2.70698 155.328 3.91271 156.295 5.39476C157.229 6.80563 157.852 8.45095 158.166 10.3349C158.443 11.6244 158.581 13.68 158.581 16.5017H138.222C138.31 19.3486 138.975 21.6344 140.219 23.3551C141.462 25.0758 143.392 25.9382 146 25.9382C148.437 25.9382 150.384 25.126 151.836 23.4975C152.649 22.5513 153.226 21.4586 153.565 20.2152H158.192C158.07 21.2451 157.664 22.388 156.977 23.6524C156.291 24.9167 155.521 25.9466 154.675 26.7504C153.256 28.1446 151.501 29.0865 149.408 29.5722C148.286 29.8527 147.013 29.9908 145.594 29.9908C142.132 29.9908 139.197 28.7223 136.79 26.1894C134.383 23.6524 133.181 20.1064 133.181 15.5388C133.181 11.0424 134.391 7.39175 136.819 4.58675C139.243 1.78175 142.412 0.379253 146.327 0.379253C148.294 0.375067 150.208 0.843962 152.062 1.77338ZM153.745 12.7673C153.557 10.7284 153.113 9.09987 152.422 7.88158C151.146 5.61665 149.01 4.48209 146.021 4.48209C143.878 4.48209 142.082 5.26079 140.633 6.82238C139.18 8.38397 138.414 10.3642 138.326 12.7673H153.745Z" fill="#5841d8"/>
<path d="M167.184 1.00305V4.9761C168.507 3.33915 169.91 2.16273 171.392 1.44683C172.874 0.730924 174.519 0.375066 176.332 0.375066C180.305 0.375066 182.989 1.76082 184.383 4.53233C185.149 6.04786 185.534 8.2165 185.534 11.0424V28.9986H180.749V11.3564C180.749 9.64831 180.498 8.27093 179.991 7.22847C179.154 5.48686 177.638 4.61606 175.444 4.61606C174.331 4.61606 173.414 4.72909 172.698 4.95517C171.408 5.34033 170.278 6.10647 169.298 7.25359C168.516 8.17882 168.005 9.12917 167.77 10.1172C167.536 11.1052 167.419 12.5077 167.419 14.3373V28.9986H162.713V1.00305H167.184Z" fill="#5841d8"/>
</svg>