<svg width="112" height="22" viewBox="0 0 112 22" fill="none" xmlns="http://www.w3.org/2000/svg">
<g clip-path="url(#clip0_108_778)">
<path d="M104.438 17.7538L100.238 7.82786H103.051L105.919 14.9466L109.234 7.82786H112L105.463 21.5H102.65L104.438 17.7538ZM94.2113 15.6987C94.4595 15.6406 94.699 15.5487 94.9237 15.4256C95.1408 15.3067 95.3426 15.1603 95.5244 14.9897C95.7058 14.8187 95.8626 14.6219 95.99 14.4052C96.1234 14.1777 96.2268 13.9328 96.2973 13.6771C96.3736 13.3981 96.4112 13.1094 96.409 12.8196C96.4116 12.5266 96.374 12.2347 96.2973 11.9525C96.2267 11.6968 96.1234 11.4519 95.99 11.2243C95.8619 11.0068 95.7052 10.8085 95.5244 10.6351C95.3448 10.463 95.1426 10.3179 94.9237 10.204C94.6975 10.0868 94.4582 9.99835 94.2113 9.94048C93.9517 9.87925 93.6861 9.84871 93.4197 9.84946C93.1549 9.84853 92.8909 9.87907 92.6328 9.94048C92.3889 9.99838 92.1527 10.0869 91.9297 10.204C91.7117 10.3194 91.5097 10.4644 91.3291 10.6351C91.146 10.8076 90.9876 11.006 90.8588 11.2243C90.7256 11.4515 90.6238 11.6965 90.5562 11.9525C90.4826 12.2352 90.4466 12.5269 90.4491 12.8196C90.4469 13.1091 90.4829 13.3976 90.5562 13.6771C90.6237 13.9331 90.7256 14.1781 90.8588 14.4052C90.9868 14.6228 91.1453 14.8197 91.3291 14.9897C91.5119 15.1589 91.7135 15.3052 91.9297 15.4256C92.1511 15.5487 92.3876 15.6405 92.6328 15.6987C92.8908 15.7602 93.1549 15.7908 93.4197 15.7897C93.6861 15.7906 93.9517 15.76 94.2113 15.6987ZM91.3756 17.9215C90.9445 17.8086 90.5296 17.6379 90.1417 17.4137C89.3863 16.9766 88.7627 16.3334 88.3398 15.555C88.1219 15.1525 87.956 14.7226 87.8462 14.2759C87.6165 13.3162 87.6165 12.3135 87.8462 11.3537C87.9555 10.9084 88.1214 10.48 88.3398 10.0794C88.7647 9.30378 89.3878 8.66262 90.1417 8.2255C90.5296 8.00136 90.9445 7.83063 91.3756 7.7177C91.8367 7.59739 92.3108 7.53783 92.7865 7.54045C93.0433 7.53986 93.2999 7.55586 93.5547 7.58836C93.7892 7.61821 94.0211 7.66625 94.2485 7.73207C94.4593 7.79363 94.6662 7.86883 94.8678 7.95723C95.0565 8.03983 95.2387 8.13754 95.4125 8.24945C95.5761 8.3548 95.729 8.47677 95.8689 8.61353C95.9997 8.74133 96.1212 8.87905 96.232 9.02552V7.82786H98.9047V17.8113H96.232V16.6137C96.0611 16.8343 95.8658 17.0336 95.65 17.2077C95.4114 17.4004 95.1502 17.5614 94.8724 17.6868C94.5635 17.8263 94.2402 17.9292 93.9086 17.9934C93.5387 18.0654 93.1629 18.1007 92.7864 18.0988C92.3108 18.1014 91.8367 18.0418 91.3756 17.9215ZM81.6728 10.3573C82.0556 10.3645 82.4377 10.3194 82.8089 10.2231C83.0983 10.1479 83.3684 10.009 83.6005 9.81593C83.81 9.63615 83.9705 9.40337 84.0661 9.14047C84.1703 8.84259 84.2208 8.52764 84.2151 8.21111C84.2211 7.89611 84.1706 7.58269 84.0661 7.28654C83.9702 7.02648 83.8097 6.79687 83.6005 6.62065C83.3672 6.43047 83.0975 6.29332 82.8089 6.21825C82.4376 6.12212 82.0556 6.07702 81.6728 6.08411H79.0467V10.3573L81.6728 10.3573ZM76.2809 3.72717H81.9336C82.8214 3.72717 83.5912 3.83895 84.243 4.06251C84.8949 4.28607 85.4319 4.59586 85.8541 4.99187C86.274 5.38453 86.5979 5.87367 86.7993 6.41945C87.0107 6.99483 87.1165 7.60559 87.1113 8.22069C87.1179 8.83435 87.0121 9.44381 86.7993 10.0171C86.5946 10.5584 86.2711 11.0437 85.8541 11.4351C85.4319 11.8344 84.8949 12.1458 84.243 12.3693C83.5912 12.593 82.8214 12.7048 81.9336 12.7046H79.0467V17.8113H76.2809V3.72717ZM64.4045 7.82786H67.0585V9.0255C67.2223 8.79304 67.4166 8.58507 67.6359 8.40752C67.8679 8.22019 68.1212 8.06255 68.3902 7.93805C68.6865 7.8017 68.9976 7.702 69.3168 7.64103C69.6714 7.57243 70.0315 7.53874 70.3923 7.54043C70.9542 7.53216 71.5128 7.62957 72.0406 7.82786C72.5109 8.0061 72.937 8.28911 73.2885 8.65663C73.6417 9.03749 73.9088 9.49387 74.0708 9.99318C74.2576 10.5673 74.3489 11.1698 74.3408 11.7753V17.8113H71.6868V12.4843C71.6931 12.0948 71.6397 11.7068 71.5285 11.3345C71.4364 11.0272 71.2825 10.7432 71.0768 10.501C70.8791 10.276 70.6315 10.1034 70.3551 9.99797C70.0418 9.88138 69.7104 9.82456 69.3773 9.83031C69.0427 9.82486 68.7098 9.88166 68.3948 9.99797C68.1166 10.1025 67.8673 10.2752 67.6685 10.501C67.4628 10.7432 67.3089 11.0272 67.2168 11.3345C67.1055 11.7068 67.0521 12.0948 67.0585 12.4843V17.8113H64.4045V7.82786ZM57.8735 15.67C58.1268 15.6069 58.3722 15.5137 58.6045 15.3921C58.8255 15.2758 59.0281 15.1256 59.2051 14.9466C59.3805 14.7699 59.5323 14.5702 59.6568 14.3525C59.7837 14.1284 59.8778 13.8863 59.9362 13.634C59.9995 13.3609 60.0308 13.0811 60.0293 12.8004C60.0309 12.5213 59.9997 12.243 59.9362 11.9716C59.8187 11.4715 59.5651 11.0162 59.2051 10.659C59.0257 10.4816 58.8237 10.3301 58.6045 10.2087C58.3741 10.0816 58.1282 9.98651 57.8735 9.92609C57.5971 9.8608 57.3143 9.82865 57.0307 9.83028C56.7502 9.82899 56.4705 9.86114 56.1972 9.92609C55.9437 9.98594 55.6994 10.081 55.4709 10.2087C55.2536 10.3309 55.0532 10.4823 54.8749 10.659C54.6992 10.833 54.5501 11.0333 54.4325 11.2531C54.3124 11.4789 54.2186 11.7185 54.1531 11.9669C54.0828 12.2387 54.0483 12.5191 54.0507 12.8004C54.0491 13.0817 54.0836 13.362 54.1531 13.634C54.2169 13.8845 54.3107 14.1259 54.4325 14.3526C54.5516 14.5713 54.7005 14.7714 54.8749 14.9466C55.0508 15.1248 55.2517 15.275 55.4709 15.3921C55.7013 15.5142 55.9452 15.6075 56.1972 15.67C56.47 15.7382 56.7499 15.7719 57.0307 15.7706C57.3145 15.7723 57.5975 15.7385 57.8735 15.67V15.67ZM55.4662 17.9167C54.9873 17.802 54.5232 17.63 54.0833 17.4041C53.6695 17.1919 53.2857 16.9228 52.9425 16.6041C52.6099 16.2945 52.3215 15.9381 52.0858 15.5454C51.8469 15.1457 51.6635 14.7136 51.541 14.2615C51.2865 13.3051 51.2865 12.2958 51.541 11.3393C51.663 10.8886 51.8464 10.458 52.0858 10.0603C52.3231 9.66886 52.6114 9.31267 52.9425 9.00157C53.2848 8.68038 53.6687 8.40953 54.0833 8.19676C54.5232 7.97096 54.9873 7.79893 55.4662 7.68417C56.5021 7.44145 57.5778 7.44145 58.6138 7.68417C59.0899 7.7979 59.5511 7.97 59.9874 8.19676C60.4001 8.4127 60.7836 8.68326 61.1281 9.00157C61.4644 9.31154 61.7574 9.6678 61.9988 10.0603C62.2409 10.4572 62.4259 10.888 62.5483 11.3393C62.8028 12.2958 62.8028 13.3051 62.5483 14.2615C62.4254 14.7142 62.2404 15.1465 61.9988 15.5454C61.7591 15.9392 61.4659 16.2956 61.1281 16.6041C60.7827 16.9199 60.3993 17.1887 59.9874 17.4041C59.5525 17.6305 59.093 17.8026 58.6184 17.9167C57.5809 18.1594 56.5037 18.1594 55.4662 17.9167ZM45.1097 15.67C45.3631 15.607 45.6084 15.5137 45.8408 15.3921C46.0618 15.2758 46.2643 15.1256 46.4414 14.9466C46.6167 14.7699 46.7686 14.5702 46.8931 14.3525C47.02 14.1285 47.1142 13.8863 47.1724 13.634C47.2358 13.3609 47.267 13.0811 47.2655 12.8004C47.2672 12.5213 47.2359 12.243 47.1724 11.9716C47.055 11.4715 46.8014 11.0162 46.4414 10.659C46.262 10.4816 46.0599 10.3301 45.8408 10.2087C45.6104 10.0815 45.3645 9.98649 45.1097 9.92609C44.8333 9.8608 44.5505 9.82865 44.267 9.83028C43.9865 9.82899 43.7068 9.86114 43.4335 9.92609C43.18 9.98594 42.9356 10.081 42.7071 10.2087C42.4899 10.3309 42.2895 10.4824 42.1111 10.659C41.9355 10.833 41.7863 11.0333 41.6688 11.2531C41.5488 11.4789 41.455 11.7185 41.3894 11.9669C41.3191 12.2387 41.2846 12.5191 41.287 12.8004C41.2854 13.0817 41.3198 13.3619 41.3894 13.634C41.4532 13.8845 41.5471 14.1258 41.6688 14.3525C41.7878 14.5713 41.9368 14.7714 42.1111 14.9466C42.2871 15.1248 42.488 15.2749 42.7071 15.3921C42.9376 15.5142 43.1814 15.6075 43.4335 15.67C43.7063 15.7381 43.9862 15.7719 44.267 15.7706C44.5508 15.7723 44.8338 15.7385 45.1097 15.67ZM42.7025 17.9167C42.2236 17.8021 41.7595 17.63 41.3196 17.4042C40.9058 17.1919 40.5221 16.9228 40.1788 16.6041C39.8462 16.2945 39.5578 15.9381 39.3221 15.5455C39.0831 15.1457 38.8998 14.7136 38.7773 14.2616C38.5227 13.3051 38.5227 12.2958 38.7773 11.3394C38.8993 10.8887 39.0827 10.4581 39.3221 10.0603C39.5595 9.66894 39.8477 9.31275 40.1788 9.00162C40.5211 8.68046 40.905 8.40961 41.3196 8.19681C41.7595 7.97101 42.2236 7.79898 42.7025 7.68422C43.7384 7.4415 44.8141 7.4415 45.8501 7.68422C46.3262 7.79793 46.7874 7.97002 47.2236 8.19681C47.6364 8.41271 48.0199 8.68329 48.3644 9.00162C48.7007 9.31156 48.9937 9.66782 49.2351 10.0603C49.4772 10.4572 49.6623 10.888 49.7846 11.3394C50.0391 12.2958 50.0391 13.3051 49.7846 14.2616C49.6618 14.7143 49.4768 15.1466 49.2351 15.5455C48.9954 15.9392 48.7022 16.2957 48.3644 16.6041C48.019 16.92 47.6356 17.1888 47.2236 17.4042C46.7888 17.6305 46.3292 17.8026 45.8547 17.9167C44.8172 18.1594 43.74 18.1594 42.7025 17.9167ZM21.755 3.72717H24.5487L29.326 11.2387L34.1219 3.72717H36.9156V17.8113H34.1498V8.15362L30.1827 14.3813H28.4879L24.5208 8.15362V17.8113H21.755V3.72717Z" fill="black"/>
<path d="M15.376 6.24863C15.9285 6.24863 16.4687 6.08006 16.9281 5.76422C17.3875 5.44839 17.7456 4.99948 17.957 4.47427C18.1685 3.94906 18.2238 3.37113 18.116 2.81357C18.0082 2.256 17.7421 1.74385 17.3514 1.34187C16.9607 0.939889 16.4629 0.666137 15.921 0.55523C15.3791 0.444324 14.8173 0.501245 14.3069 0.718795C13.7964 0.936346 13.3601 1.30475 13.0531 1.77743C12.7461 2.25011 12.5822 2.80583 12.5822 3.37432C12.5822 3.75178 12.6545 4.12556 12.7949 4.4743C12.9352 4.82304 13.141 5.13991 13.4005 5.40682C13.6599 5.67373 13.9679 5.88545 14.3068 6.02989C14.6458 6.17432 15.0091 6.24865 15.376 6.24863ZM6.80971 19.1938C5.46288 19.1938 4.14629 18.7829 3.02644 18.0131C1.90659 17.2432 1.03377 16.149 0.51836 14.8688C0.00294978 13.5886 -0.131905 12.1799 0.130851 10.8208C0.393606 9.46177 1.04217 8.2134 1.99453 7.23357C2.94688 6.25374 4.16026 5.58647 5.48121 5.31614C6.80217 5.04581 8.17137 5.18456 9.41568 5.71484C10.66 6.24512 11.7235 7.14312 12.4718 8.29528C13.22 9.44744 13.6194 10.802 13.6194 12.1877C13.6194 13.1078 13.4433 14.0188 13.1011 14.8689C12.7589 15.7189 12.2573 16.4912 11.625 17.1418C10.9926 17.7924 10.2419 18.3085 9.4157 18.6606C8.5895 19.0126 7.70398 19.1938 6.80971 19.1938Z" fill="#7D00FF"/>
</g>
<defs>
<clipPath id="clip0_108_778">
<rect width="112" height="21" fill="white" transform="translate(0 0.5)"/>
</clipPath>
</defs>
</svg>
