<svg width="748" height="224" viewBox="0 0 748 224" fill="none" xmlns="http://www.w3.org/2000/svg">
<g clip-path="url(#clip0_2_22)">
<path d="M219.67 0H5.63002C4.31002 0 3.04401 0.524008 2.11101 1.45801C1.17701 2.39101 0.653015 3.657 0.653015 4.978V219.018C0.653015 220.338 1.17701 221.604 2.11101 222.537C3.04401 223.471 4.31002 223.995 5.63002 223.995H219.67C220.991 223.995 222.257 223.471 223.19 222.537C224.124 221.604 224.648 220.338 224.648 219.018V4.978C224.648 3.657 224.124 2.39101 223.19 1.45801C222.257 0.524008 220.991 0 219.67 0ZM149.983 144.35C149.983 145.67 149.459 146.936 148.525 147.87C147.592 148.803 146.326 149.328 145.006 149.328H80.296C78.976 149.328 77.71 148.803 76.776 147.87C75.843 146.936 75.319 145.67 75.319 144.35V79.64C75.319 78.32 75.843 77.054 76.776 76.121C77.71 75.187 78.976 74.663 80.296 74.663H145.006C146.326 74.663 147.592 75.187 148.525 76.121C149.459 77.054 149.983 78.32 149.983 79.64V144.35Z" fill="black"/>
<path d="M667.78 74.67H603.071C600.322 74.67 598.093 76.898 598.093 79.647V144.357C598.093 147.106 600.322 149.335 603.071 149.335H667.78C670.529 149.335 672.758 147.106 672.758 144.357V79.647C672.758 76.898 670.529 74.67 667.78 74.67Z" fill="black"/>
<path d="M593.09 0.0100098H528.381C525.632 0.0100098 523.403 2.23801 523.403 4.98801V69.697C523.403 72.446 525.632 74.675 528.381 74.675H593.09C595.84 74.675 598.068 72.446 598.068 69.697V4.98801C598.068 2.23801 595.84 0.0100098 593.09 0.0100098Z" fill="black"/>
<path d="M742.42 0.0100098H677.71C674.961 0.0100098 672.732 2.23801 672.732 4.98801V69.697C672.732 72.446 674.961 74.675 677.71 74.675H742.42C745.169 74.675 747.397 72.446 747.397 69.697V4.98801C747.397 2.23801 745.169 0.0100098 742.42 0.0100098Z" fill="black"/>
<path d="M593.09 149.33H528.381C525.632 149.33 523.403 151.558 523.403 154.307V219.017C523.403 221.766 525.632 223.995 528.381 223.995H593.09C595.84 223.995 598.068 221.766 598.068 219.017V154.307C598.068 151.558 595.84 149.33 593.09 149.33Z" fill="black"/>
<path d="M742.42 149.33H677.71C674.961 149.33 672.732 151.558 672.732 154.307V219.017C672.732 221.766 674.961 223.995 677.71 223.995H742.42C745.169 223.995 747.397 221.766 747.397 219.017V154.307C747.397 151.558 745.169 149.33 742.42 149.33Z" fill="black"/>
<path d="M481 0.0100098H416.291C413.542 0.0100098 411.313 2.23801 411.313 4.98801V69.697C411.313 72.446 413.542 74.675 416.291 74.675H481C483.749 74.675 485.978 72.446 485.978 69.697V4.98801C485.978 2.23801 483.749 0.0100098 481 0.0100098Z" fill="black"/>
<path d="M481 149.33H416.291C413.542 149.33 411.313 151.558 411.313 154.307V219.017C411.313 221.766 413.542 223.995 416.291 223.995H481C483.749 223.995 485.978 221.766 485.978 219.017V154.307C485.978 151.558 483.749 149.33 481 149.33Z" fill="black"/>
<path d="M411.31 79.59C411.31 78.27 410.785 77.004 409.852 76.071C408.918 75.137 407.652 74.613 406.332 74.613H336.645V4.98199C336.645 3.66099 336.12 2.39501 335.187 1.46201C334.253 0.528006 332.987 0.0039978 331.667 0.0039978H266.958C265.637 0.0039978 264.371 0.528006 263.438 1.46201C262.504 2.39501 261.98 3.66099 261.98 4.98199V218.912C261.98 220.232 262.504 221.498 263.438 222.431C264.371 223.365 265.637 223.889 266.958 223.889H331.667C332.987 223.889 334.253 223.365 335.187 222.431C336.12 221.498 336.645 220.232 336.645 218.912V149.281H406.332C407.652 149.281 408.918 148.756 409.852 147.823C410.785 146.889 411.31 145.623 411.31 144.303V79.593V79.59Z" fill="black"/>
</g>
<defs>
<clipPath id="clip0_2_22">
<rect width="748" height="224" fill="white"/>
</clipPath>
</defs>
</svg>
