<?xml version="1.0" encoding="UTF-8"?>
<svg fill="none" viewBox="0 0 163 26" xmlns="http://www.w3.org/2000/svg">
<path d="m26.916 0c5.4909 0 9.9409 4.45 9.9409 9.9409 0 5.4909-4.45 9.9046-9.9409 9.9046h-17.011c-5.4909 0-9.9046-4.4137-9.9046-9.9046 0-5.4909 4.4136-9.9409 9.9046-9.9409h17.011zm97.254 0.64657c5.061 0 8.613 3.8398 8.613 9.367 0 5.1682-3.445 9.1875-8.541 9.1875-2.333 0-4.486-0.933-6.101-2.5477v9.0079h-3.158v-24.835h2.799l0.287 2.2613c1.4-1.6159 3.553-2.4409 6.101-2.4409zm-18.23 0c2.045 0 6.746 0.75342 6.746 7.8591v10.515h-3.121v-10.335c0-2.4409-0.718-5.2398-4.091-5.2398-2.835 0-4.593 2.1534-4.593 5.8136v9.7613h-3.1231v-10.335c0-3.3738-1.4-5.2398-4.0193-5.2398-2.7989 0-4.5932 2.2614-4.5932 5.9216v9.6534h-3.1943v-18.194h2.8352l0.1796 1.9739c1.2204-1.2204 2.9784-2.1534 5.2397-2.1534 2.2614 0 4.2352 1.1125 5.5262 2.9784 1.5062-1.9739 3.5522-2.9784 6.2082-2.9784zm-23.615 15.288c0 0.2159 0.1796 0.2511 0.3591 0.2511h1.6864v2.8352h-1.6864c-1.5795 0-2.692-0.7534-3.158-2.0818-1.6147 1.6148-3.4807 2.2614-6.209 2.2614-3.1943 0-6.4603-1.7943-6.4603-5.5262 0-3.7318 2.7273-5.8136 7.3205-5.8136h4.9523v-0.86136c0-2.333-1.5068-3.6602-4.1989-3.6602-2.2613 0-3.9477 0.93296-4.3068 2.6557l-0.0716 0.35909h-3.1943l0.1432-0.64547c0.7182-3.1943 3.4807-5.0602 7.608-5.0602 4.5932 0 7.2136 2.4409 7.2136 6.5318v8.7546h0.0022zm60.83-15.288c4.844 0 8.289 3.4454 8.289 8.433 0 0.43068 0 1.1125-0.071 1.5069h-13.566v0.0716c0.071 3.4807 2.225 5.8136 5.24 5.8136 2.261 0 4.414-1.2204 4.952-3.2659l0.108-0.3943h3.194l-0.179 0.7534c-0.862 3.5886-3.948 5.6341-7.788 5.6341-5.348 0-8.9-3.8398-8.9-9.2943 0-5.5262 3.552-9.258 8.721-9.258zm-123.31 9.2943c0 3.9477 3.1227 7.0341 7.0693 7.0341s7.0693-3.0864 7.0693-7.0341c0-3.9477-3.1579-7.0693-7.0693-7.0693-3.9466 0-7.0693 3.158-7.0693 7.0693zm27.849-9.2943c2.1534 0 7.142 0.82501 7.142 8.2545v10.12h-3.1943v-9.941c0-2.5477-0.7534-5.6341-4.4863-5.6341-3.3012 0-5.275 2.4398-5.275 6.4591v9.1159h-3.0864v-18.195h2.7273l0.1795 1.9739c1.5069-1.4 3.6603-2.1534 5.9932-2.1534zm81.823 9.2591c0-3.9114-2.261-6.5671-5.634-6.5671s-5.742 2.7273-5.742 6.5671c0 3.8397 2.261 6.567 5.634 6.567s5.742-2.6193 5.742-6.567zm-69.37-7.1057c0.933-1.2204 2.225-1.9739 3.7318-1.9739h2.9069v2.9784h-2.7989c-2.5478 0-3.6603 3.1216-3.6603 5.9216v9.2943h-3.1943v-18.194h2.8353l0.1795 1.9739zm-43.136 7.1409c0-2.7636 1.1125-5.275 2.9069-7.0693h-1.5069c-3.9477 0-7.0693 3.158-7.0693 7.0693 0 3.9114 2.9784 6.8909 6.7829 7.0341h1.7944c-1.7955-1.7943-2.908-4.2705-2.908-7.0341zm-14.175 0c0 3.9114 3.1227 7.0341 7.0693 7.0341h1.5068c-1.7943-1.7943-2.9068-4.2705-2.9068-7.0341 0-2.7636 1.1125-5.275 2.9068-7.0693h-1.5068c-3.9477 0-7.0693 3.158-7.0693 7.0693zm71.057 6.6398c3.1943 0 5.2398-2.0818 5.2398-5.3478v-0.8613h-5.3477c-2.4409 0-3.7318 1.1488-3.7318 3.1943 0 2.6193 2.4398 3.0148 3.8397 3.0148zm74.215-8.6489c-0.466-2.7989-2.333-4.5932-4.952-4.5932-2.62 0-4.594 1.9023-5.169 4.5932h10.121zm8.254-5.1318c0.933-1.2204 2.225-1.9739 3.732-1.9739h2.907v2.9784h-2.799c-2.548 0-3.66 3.1216-3.66 5.9216v9.2943h-3.194v-18.194h2.835l0.179 1.9739z" fill="#1D211E"/>
</svg>
