<svg width="123" height="26" viewBox="0 0 123 26" fill="none" xmlns="http://www.w3.org/2000/svg">
<path d="M28.3454 6.54579C25.4842 5.42958 21.9156 6.66028 19.6262 8.34898C18.9193 8.8641 18.8521 9.78011 19.458 10.3812C20.0639 10.9822 21.1411 11.0394 21.8482 10.5242C23.5315 9.26496 25.7195 8.69246 26.965 9.1505C28.4127 9.69419 28.6148 11.7837 28.6148 12.957C28.6148 14.1306 28.413 16.2199 26.965 16.7636C25.7195 17.279 23.531 16.7064 21.8482 15.4472L12.355 8.37734C10.0658 6.68867 6.49748 5.45793 3.63578 6.57414C1.98615 7.20402 0 8.83532 0 12.9853C0 17.1351 1.98615 18.7668 3.63578 19.4248C6.49721 20.5411 10.0656 19.3102 12.355 17.6216C13.0619 17.1065 13.1291 16.1905 12.5232 15.5893C11.9173 14.9884 10.84 14.9312 10.133 15.4463C8.44975 16.7055 6.26171 17.2781 5.01612 16.82C3.56863 16.2763 3.36646 14.1869 3.36646 13.0135C3.36646 11.84 3.56834 9.75067 5.01612 9.207C6.22816 8.72043 8.44981 9.32149 10.0995 10.5807L19.5928 17.6501C21.276 18.9092 23.6323 19.8824 25.9217 19.8824C26.7297 19.8824 27.5373 19.768 28.3119 19.4529C29.9614 18.8234 31.9476 17.1632 31.9476 13.0134C31.981 8.83503 29.9951 7.20399 28.3454 6.54579Z" fill="black"/>
<path d="M52.2384 5.42249H49.5173V15.2789H49.3845L42.2756 5.42249H39.8273V19.8824H42.5631V10.033H42.6885L49.8048 19.8824H52.2384V5.42249ZM60.116 20.0942C62.7561 20.0942 64.5702 18.8586 65.0421 16.9734L62.5495 16.7052C62.1882 17.623 61.3034 18.1031 60.1529 18.1031C58.4273 18.1031 57.2843 17.0158 57.2621 15.1589H65.1528V14.3752C65.1528 10.5696 62.7634 8.89625 59.9759 8.89625C56.7311 8.89625 54.6147 11.1768 54.6147 14.5235C54.6147 17.9266 56.7017 20.0942 60.116 20.0942ZM57.2696 13.4362C57.3506 12.0523 58.4199 10.8873 60.0128 10.8873C61.5467 10.8873 62.5791 11.9605 62.5938 13.4362H57.2696ZM70.6705 20.1012C72.4478 20.1012 73.5098 19.3033 73.9965 18.3926H74.085V19.8824H76.6512V12.6242C76.6512 9.75763 74.2104 8.89625 72.0496 8.89625C69.6677 8.89625 67.8388 9.91296 67.2489 11.8899L69.7415 12.2288C70.007 11.4875 70.759 10.852 72.0644 10.852C73.3032 10.852 73.9817 11.4592 73.9817 12.5253V12.5677C73.9817 13.302 73.1778 13.3373 71.1795 13.5421C68.9819 13.768 66.8802 14.3964 66.8802 16.8393C66.8802 18.9716 68.5099 20.1012 70.6705 20.1012ZM71.3638 18.2231C70.2503 18.2231 69.4538 17.736 69.4538 16.797C69.4538 15.8155 70.3461 15.4061 71.5408 15.2436C72.2414 15.1519 73.6425 14.9824 73.9892 14.7141V15.992C73.9892 17.1993 72.9715 18.2231 71.3638 18.2231ZM79.3355 19.8824H82.0051V13.5068C82.0051 12.13 83.0891 11.1556 84.5566 11.1556C85.0064 11.1556 85.5668 11.2333 85.7954 11.3039V8.95274C85.5521 8.91037 85.1318 8.88214 84.8368 8.88214C83.5389 8.88214 82.4549 9.58819 82.042 10.845H81.9239V9.03746H79.3355V19.8824ZM87.687 19.8824H90.4229V14.9965H93.3136C96.8017 14.9965 98.6748 12.9913 98.6748 10.2095C98.6748 7.44885 96.8239 5.42249 93.3505 5.42249H87.687V19.8824ZM90.4229 12.8431V7.61124H92.9302C94.9803 7.61124 95.8873 8.67031 95.8873 10.2095C95.8873 11.7487 94.9803 12.8431 92.9449 12.8431H90.4229ZM103.99 20.1012C105.767 20.1012 106.829 19.3033 107.316 18.3926H107.404V19.8824H109.97V12.6242C109.97 9.75763 107.53 8.89625 105.369 8.89625C102.987 8.89625 101.158 9.91296 100.568 11.8899L103.061 12.2288C103.326 11.4875 104.078 10.852 105.384 10.852C106.622 10.852 107.301 11.4592 107.301 12.5253V12.5677C107.301 13.302 106.497 13.3373 104.499 13.5421C102.301 13.768 100.199 14.3964 100.199 16.8393C100.199 18.9716 101.829 20.1012 103.99 20.1012ZM104.683 18.2231C103.57 18.2231 102.773 17.736 102.773 16.797C102.773 15.8155 103.665 15.4061 104.86 15.2436C105.561 15.1519 106.962 14.9824 107.308 14.7141V15.992C107.308 17.1993 106.291 18.2231 104.683 18.2231ZM113.908 23.9492C115.988 23.9492 117.19 22.9255 117.832 21.1957L122.382 9.05158L119.528 9.03746L116.91 17.2276H116.792L114.181 9.03746H111.35L115.457 20.1083L115.228 20.6944C114.734 21.93 113.953 22.0147 112.787 21.6898L112.168 23.681C112.529 23.8221 113.178 23.9492 113.908 23.9492Z" fill="black"/>
</svg>
