<svg width="201" height="26" viewBox="0 0 201 26" fill="none" xmlns="http://www.w3.org/2000/svg">
<path d="M19.7233 11.7368C24.5704 11.7368 28.4998 15.747 28.4998 20.6938H40C40 9.26491 30.9218 0 19.7233 0V11.7368Z" fill="#272729"/>
<rect width="5.75264" height="5.87097" transform="matrix(-1 0 0 1 19.7233 5.87097)" fill="#0072CE"/>
<rect width="5.75264" height="5.87097" transform="matrix(-1 0 0 1 13.9707 5.87097)" fill="#37DBF4"/>
<rect width="5.75264" height="5.87097" transform="matrix(-1 0 0 1 5.75262 9.22583)" fill="#F2EE83"/>
<rect width="5.75264" height="5.87097" transform="matrix(-1 0 0 1 13.9707 11.7419)" fill="#00C08B"/>
<rect width="5.75263" height="5.87097" transform="matrix(-1 0 0 1 8.21808 17.6129)" fill="#FFB259"/>
<rect width="5.75263" height="5.87097" transform="matrix(-1 0 0 1 16.4361 20.129)" fill="#FF585D"/>
<rect width="5.75264" height="5.87097" transform="matrix(-1 0 0 1 19.7233 0)" fill="#8FCDFF"/>
<path d="M57.1009 20.5V5.95455H63.1094C64.1984 5.95455 65.1383 6.15104 65.929 6.54403C66.7244 6.93229 67.3376 7.491 67.7685 8.22017C68.1993 8.9446 68.4148 9.80398 68.4148 10.7983C68.4148 11.8068 68.1946 12.6638 67.7543 13.3693C67.3139 14.0701 66.6889 14.6051 65.8793 14.9744C65.0696 15.339 64.1108 15.5213 63.0028 15.5213H59.2031V12.7514H62.3494C62.8797 12.7514 63.3224 12.6828 63.6776 12.5455C64.0374 12.4034 64.3097 12.1903 64.4943 11.9062C64.679 11.6174 64.7713 11.2481 64.7713 10.7983C64.7713 10.3485 64.679 9.9768 64.4943 9.68324C64.3097 9.38494 64.0374 9.16241 63.6776 9.01562C63.3177 8.86411 62.875 8.78835 62.3494 8.78835H60.6165V20.5H57.1009ZM65.2898 13.8523L68.9119 20.5H65.0767L61.5256 13.8523H65.2898ZM72.6183 20.6847C71.9223 20.6847 71.3044 20.5687 70.7646 20.3366C70.2296 20.0999 69.8058 19.7448 69.4933 19.2713C69.1856 18.7931 69.0317 18.1941 69.0317 17.4744C69.0317 16.8684 69.1382 16.357 69.3513 15.9403C69.5643 15.5237 69.8579 15.1851 70.232 14.9247C70.606 14.6643 71.0369 14.4678 71.5246 14.3352C72.0123 14.1979 72.5331 14.1056 73.0871 14.0582C73.7073 14.0014 74.2069 13.9422 74.5857 13.8807C74.9644 13.8144 75.2391 13.7221 75.4095 13.6037C75.5847 13.4806 75.6723 13.3078 75.6723 13.0852V13.0497C75.6723 12.6851 75.5468 12.4034 75.2959 12.2045C75.0449 12.0057 74.7064 11.9062 74.2803 11.9062C73.821 11.9062 73.4517 12.0057 73.1723 12.2045C72.8929 12.4034 72.7154 12.678 72.6396 13.0284L69.4365 12.9148C69.5312 12.2519 69.775 11.66 70.168 11.1392C70.5658 10.6136 71.1103 10.2017 71.8016 9.90341C72.4976 9.60038 73.3333 9.44886 74.3087 9.44886C75.0047 9.44886 75.6463 9.53172 76.2334 9.69744C76.8205 9.85843 77.3319 10.0952 77.7675 10.4077C78.2031 10.7154 78.5393 11.0942 78.776 11.544C79.0175 11.9938 79.1382 12.5076 79.1382 13.0852V20.5H75.8712V18.9801H75.7859C75.5918 19.3494 75.3432 19.6619 75.0402 19.9176C74.7419 20.1733 74.3892 20.3651 73.982 20.4929C73.5795 20.6207 73.125 20.6847 72.6183 20.6847ZM73.6908 18.4119C74.0648 18.4119 74.401 18.3362 74.6993 18.1847C75.0023 18.0331 75.2438 17.8248 75.4237 17.5597C75.6036 17.2898 75.6936 16.9773 75.6936 16.6222V15.5852C75.5942 15.6373 75.4734 15.6847 75.3314 15.7273C75.1941 15.7699 75.0426 15.8101 74.8768 15.848C74.7111 15.8859 74.5407 15.919 74.3655 15.9474C74.1903 15.9759 74.0222 16.0019 73.8612 16.0256C73.5345 16.0777 73.2552 16.1581 73.0232 16.267C72.7959 16.3759 72.6207 16.518 72.4976 16.6932C72.3792 16.8636 72.32 17.0672 72.32 17.304C72.32 17.6638 72.4479 17.9384 72.7036 18.1278C72.964 18.3172 73.293 18.4119 73.6908 18.4119ZM80.4618 20.5V9.59091H83.9348V20.5H80.4618ZM82.2018 8.3196C81.7142 8.3196 81.2951 8.15862 80.9447 7.83665C80.5944 7.50994 80.4192 7.11695 80.4192 6.65767C80.4192 6.20312 80.5944 5.81487 80.9447 5.4929C81.2951 5.16619 81.7142 5.00284 82.2018 5.00284C82.6943 5.00284 83.1133 5.16619 83.4589 5.4929C83.8093 5.81487 83.9845 6.20312 83.9845 6.65767C83.9845 7.11695 83.8093 7.50994 83.4589 7.83665C83.1133 8.15862 82.6943 8.3196 82.2018 8.3196ZM88.8184 14.2784V20.5H85.3454V9.59091H88.6479V11.5938H88.7687C89.0102 10.9261 89.4221 10.4029 90.0045 10.0241C90.5869 9.64062 91.2805 9.44886 92.0854 9.44886C92.8525 9.44886 93.5177 9.62169 94.0812 9.96733C94.6494 10.3082 95.0897 10.7865 95.4022 11.402C95.7194 12.0128 95.8757 12.7277 95.871 13.5469V20.5H92.3979V14.2287C92.4027 13.6226 92.2488 13.1491 91.9363 12.8082C91.6285 12.4673 91.2 12.2969 90.6508 12.2969C90.2862 12.2969 89.9642 12.3774 89.6849 12.5384C89.4103 12.6946 89.1972 12.9195 89.0457 13.2131C88.8989 13.5066 88.8231 13.8617 88.8184 14.2784ZM97.2212 20.5V5.95455H100.694V11.4588H100.765C100.907 11.1274 101.108 10.8078 101.369 10.5C101.634 10.1922 101.97 9.94129 102.377 9.74716C102.789 9.5483 103.282 9.44886 103.855 9.44886C104.612 9.44886 105.32 9.64773 105.978 10.0455C106.641 10.4432 107.176 11.0563 107.583 11.8849C107.991 12.7135 108.194 13.7694 108.194 15.0526C108.194 16.2884 107.998 17.3229 107.605 18.1562C107.216 18.9896 106.691 19.6146 106.028 20.0312C105.37 20.4479 104.638 20.6562 103.833 20.6562C103.284 20.6562 102.808 20.5663 102.406 20.3864C102.003 20.2064 101.665 19.9697 101.39 19.6761C101.12 19.3826 100.912 19.0677 100.765 18.7315H100.659V20.5H97.2212ZM100.623 15.0455C100.623 15.6326 100.701 16.1439 100.858 16.5795C101.019 17.0152 101.248 17.3537 101.546 17.5952C101.849 17.8319 102.212 17.9503 102.633 17.9503C103.059 17.9503 103.421 17.8319 103.72 17.5952C104.018 17.3537 104.243 17.0152 104.394 16.5795C104.551 16.1439 104.629 15.6326 104.629 15.0455C104.629 14.4583 104.551 13.9493 104.394 13.5185C104.243 13.0876 104.018 12.7538 103.72 12.517C103.426 12.2803 103.064 12.1619 102.633 12.1619C102.207 12.1619 101.845 12.2779 101.546 12.5099C101.248 12.742 101.019 13.0734 100.858 13.5043C100.701 13.9351 100.623 14.4489 100.623 15.0455ZM114.306 20.706C113.161 20.706 112.176 20.4716 111.352 20.0028C110.533 19.5294 109.901 18.8712 109.456 18.0284C109.015 17.1809 108.795 16.1984 108.795 15.081C108.795 13.9588 109.015 12.9763 109.456 12.1335C109.901 11.286 110.533 10.6278 111.352 10.1591C112.176 9.68561 113.161 9.44886 114.306 9.44886C115.452 9.44886 116.435 9.68561 117.254 10.1591C118.078 10.6278 118.71 11.286 119.15 12.1335C119.595 12.9763 119.818 13.9588 119.818 15.081C119.818 16.1984 119.595 17.1809 119.15 18.0284C118.71 18.8712 118.078 19.5294 117.254 20.0028C116.435 20.4716 115.452 20.706 114.306 20.706ZM114.328 18.0852C114.744 18.0852 115.097 17.9574 115.386 17.7017C115.675 17.446 115.895 17.0909 116.047 16.6364C116.203 16.1818 116.281 15.6562 116.281 15.0597C116.281 14.4536 116.203 13.9233 116.047 13.4688C115.895 13.0142 115.675 12.6591 115.386 12.4034C115.097 12.1477 114.744 12.0199 114.328 12.0199C113.897 12.0199 113.532 12.1477 113.234 12.4034C112.94 12.6591 112.716 13.0142 112.559 13.4688C112.408 13.9233 112.332 14.4536 112.332 15.0597C112.332 15.6562 112.408 16.1818 112.559 16.6364C112.716 17.0909 112.94 17.446 113.234 17.7017C113.532 17.9574 113.897 18.0852 114.328 18.0852ZM122.601 20.5L119.76 9.59091H123.247L124.717 16.5795H124.81L126.386 9.59091H129.788L131.408 16.5298H131.5L132.928 9.59091H136.415L133.567 20.5H129.852L128.148 14.1435H128.027L126.323 20.5H122.601ZM140.506 20.5V5.95455H146.571C147.66 5.95455 148.571 6.10843 149.305 6.41619C150.044 6.72396 150.598 7.15483 150.967 7.70881C151.341 8.26278 151.528 8.90436 151.528 9.63352C151.528 10.1875 151.412 10.6823 151.18 11.1179C150.948 11.5488 150.629 11.9062 150.221 12.1903C149.814 12.4744 149.343 12.6733 148.808 12.7869V12.929C149.395 12.9574 149.937 13.116 150.435 13.4048C150.936 13.6937 151.339 14.0961 151.642 14.6122C151.945 15.1236 152.096 15.7296 152.096 16.4304C152.096 17.2116 151.898 17.91 151.5 18.5256C151.102 19.1364 150.527 19.6193 149.774 19.9744C149.021 20.3248 148.107 20.5 147.033 20.5H140.506ZM144.021 17.6662H146.194C146.957 17.6662 147.518 17.5218 147.878 17.233C148.242 16.9441 148.425 16.5417 148.425 16.0256C148.425 15.6515 148.337 15.3295 148.162 15.0597C147.987 14.785 147.738 14.5743 147.416 14.4276C147.094 14.276 146.708 14.2003 146.258 14.2003H144.021V17.6662ZM144.021 11.9347H145.967C146.351 11.9347 146.692 11.8707 146.99 11.7429C147.288 11.6151 147.52 11.4304 147.686 11.1889C147.856 10.9474 147.942 10.6562 147.942 10.3153C147.942 9.82765 147.769 9.44413 147.423 9.16477C147.078 8.88542 146.611 8.74574 146.024 8.74574H144.021V11.9347ZM152.987 20.5V9.59091H156.36V11.5795H156.474C156.673 10.8598 156.997 10.3248 157.447 9.97443C157.897 9.61932 158.42 9.44176 159.017 9.44176C159.178 9.44176 159.343 9.4536 159.514 9.47727C159.684 9.49621 159.843 9.52699 159.99 9.5696V12.5881C159.824 12.5312 159.606 12.4863 159.336 12.4531C159.071 12.42 158.834 12.4034 158.626 12.4034C158.214 12.4034 157.842 12.4957 157.511 12.6804C157.184 12.8603 156.926 13.1136 156.737 13.4403C156.552 13.7623 156.46 14.1411 156.46 14.5767V20.5H152.987ZM160.605 20.5V9.59091H164.078V20.5H160.605ZM162.345 8.3196C161.857 8.3196 161.438 8.15862 161.088 7.83665C160.737 7.50994 160.562 7.11695 160.562 6.65767C160.562 6.20312 160.737 5.81487 161.088 5.4929C161.438 5.16619 161.857 5.00284 162.345 5.00284C162.837 5.00284 163.256 5.16619 163.602 5.4929C163.952 5.81487 164.127 6.20312 164.127 6.65767C164.127 7.11695 163.952 7.50994 163.602 7.83665C163.256 8.15862 162.837 8.3196 162.345 8.3196ZM169.473 20.6562C168.668 20.6562 167.936 20.4479 167.278 20.0312C166.62 19.6146 166.094 18.9896 165.701 18.1562C165.308 17.3229 165.112 16.2884 165.112 15.0526C165.112 13.7694 165.316 12.7135 165.723 11.8849C166.13 11.0563 166.663 10.4432 167.321 10.0455C167.984 9.64773 168.696 9.44886 169.459 9.44886C170.031 9.44886 170.521 9.5483 170.929 9.74716C171.336 9.94129 171.672 10.1922 171.937 10.5C172.202 10.8078 172.404 11.1274 172.541 11.4588H172.612V5.95455H176.085V20.5H172.647V18.7315H172.541C172.394 19.0677 172.186 19.3826 171.916 19.6761C171.646 19.9697 171.307 20.2064 170.9 20.3864C170.498 20.5663 170.022 20.6562 169.473 20.6562ZM170.68 17.9503C171.102 17.9503 171.461 17.8319 171.76 17.5952C172.058 17.3537 172.288 17.0152 172.449 16.5795C172.61 16.1439 172.69 15.6326 172.69 15.0455C172.69 14.4489 172.61 13.9351 172.449 13.5043C172.292 13.0734 172.063 12.742 171.76 12.5099C171.461 12.2779 171.102 12.1619 170.68 12.1619C170.249 12.1619 169.885 12.2803 169.586 12.517C169.288 12.7538 169.061 13.0876 168.905 13.5185C168.753 13.9493 168.677 14.4583 168.677 15.0455C168.677 15.6326 168.755 16.1439 168.912 16.5795C169.068 17.0152 169.293 17.3537 169.586 17.5952C169.885 17.8319 170.249 17.9503 170.68 17.9503ZM182.567 24.8182C181.53 24.8182 180.642 24.6738 179.903 24.3849C179.165 24.0961 178.585 23.7008 178.163 23.1989C177.742 22.697 177.488 22.1288 177.403 21.4943L180.692 21.3097C180.753 21.5322 180.867 21.7263 181.032 21.892C181.203 22.0578 181.423 22.1856 181.693 22.2756C181.968 22.3655 182.29 22.4105 182.659 22.4105C183.241 22.4105 183.722 22.2685 184.101 21.9844C184.484 21.705 184.676 21.215 184.676 20.5142V18.5966H184.555C184.418 18.9328 184.21 19.2334 183.93 19.4986C183.651 19.7637 183.303 19.9721 182.886 20.1236C182.474 20.2751 182.001 20.3509 181.466 20.3509C180.67 20.3509 179.941 20.1662 179.278 19.7969C178.62 19.4228 178.092 18.8452 177.694 18.0639C177.301 17.2779 177.105 16.267 177.105 15.0312C177.105 13.7576 177.309 12.7088 177.716 11.8849C178.123 11.0563 178.656 10.4432 179.314 10.0455C179.977 9.64773 180.689 9.44886 181.451 9.44886C182.024 9.44886 182.514 9.5483 182.922 9.74716C183.334 9.94129 183.672 10.1922 183.937 10.5C184.202 10.8078 184.404 11.1274 184.541 11.4588H184.64V9.59091H188.099V20.5426C188.099 21.4659 187.867 22.2448 187.403 22.8793C186.939 23.5137 186.291 23.9943 185.457 24.321C184.624 24.6525 183.66 24.8182 182.567 24.8182ZM182.673 17.8224C183.094 17.8224 183.454 17.7112 183.753 17.4886C184.051 17.2661 184.281 16.9465 184.442 16.5298C184.603 16.1132 184.683 15.6136 184.683 15.0312C184.683 14.4394 184.603 13.9304 184.442 13.5043C184.285 13.0734 184.056 12.742 183.753 12.5099C183.454 12.2779 183.094 12.1619 182.673 12.1619C182.242 12.1619 181.878 12.2803 181.579 12.517C181.281 12.7538 181.054 13.0876 180.898 13.5185C180.746 13.9446 180.67 14.4489 180.67 15.0312C180.67 15.6136 180.748 16.1132 180.905 16.5298C181.061 16.9465 181.286 17.2661 181.579 17.4886C181.878 17.7112 182.242 17.8224 182.673 17.8224ZM194.613 20.706C193.472 20.706 192.487 20.4811 191.658 20.0312C190.834 19.5767 190.2 18.9304 189.755 18.0923C189.314 17.2495 189.094 16.2481 189.094 15.0881C189.094 13.9612 189.317 12.9763 189.762 12.1335C190.207 11.286 190.834 10.6278 191.644 10.1591C192.454 9.68561 193.408 9.44886 194.506 9.44886C195.283 9.44886 195.993 9.5696 196.637 9.81108C197.281 10.0526 197.837 10.41 198.306 10.8835C198.775 11.357 199.139 11.9418 199.4 12.6378C199.66 13.3291 199.79 14.1222 199.79 15.017V15.8835H190.309V13.8665H196.559C196.554 13.4972 196.466 13.1681 196.296 12.8793C196.126 12.5904 195.891 12.3655 195.593 12.2045C195.299 12.0388 194.961 11.956 194.577 11.956C194.189 11.956 193.841 12.0436 193.533 12.2188C193.225 12.3892 192.982 12.6236 192.802 12.9219C192.622 13.2154 192.527 13.5492 192.518 13.9233V15.9759C192.518 16.4209 192.605 16.8116 192.78 17.1477C192.956 17.4792 193.204 17.7372 193.526 17.9219C193.848 18.1065 194.232 18.1989 194.677 18.1989C194.984 18.1989 195.264 18.1562 195.515 18.071C195.766 17.9858 195.981 17.8603 196.161 17.6946C196.341 17.5289 196.476 17.3253 196.566 17.0838L199.755 17.1761C199.622 17.8911 199.331 18.5137 198.881 19.044C198.436 19.5696 197.851 19.9792 197.127 20.2727C196.403 20.5616 195.564 20.706 194.613 20.706Z" fill="#111618"/>
</svg>

