<?xml version="1.0" encoding="UTF-8"?>
<svg viewBox="0 0 138 32" xmlns="http://www.w3.org/2000/svg">
<path d="m34.443 18.831-6.0588 6.0811c-0.5133 0.5152-0.5128 1.3527 1e-3 1.8672l4.63 4.6366c0.7891 0.7789 2.0791 0.7789 2.8682 0l14.191-14.006c0.7891-0.7788 0.7891-2.0522 0-2.831l-14.191-13.994c-0.7891-0.77883-2.0791-0.77883-2.8682 0l-4.63 4.6367c-0.5138 0.51457-0.5143 1.352-1e-3 1.8672l6.0588 6.0812c1.5782 1.5576 1.5782 4.1042 0 5.6618z" fill="#0A6E5C"/>
<path d="m16.223 18.831 6.0588 6.0811c0.5133 0.5152 0.5128 1.3527-1e-3 1.8672l-4.63 4.6366c-0.7891 0.7789-2.0791 0.7789-2.8682 0l-14.191-14.006c-0.78908-0.7788-0.78908-2.0522 0-2.831l14.191-13.994c0.7891-0.77883 2.0791-0.77883 2.8682 0l4.63 4.6367c0.5138 0.51457 0.5143 1.352 1e-3 1.8672l-6.0588 6.0812c-1.5782 1.5576-1.5782 4.1042 0 5.6618z" fill="#21BF73"/>
<path d="m17.813 17.157c-0.6391-0.639-0.6391-1.675 0-2.314l6.3637-6.3637c0.639-0.63901 1.675-0.63901 2.314 0l6.3637 6.3637c0.639 0.639 0.639 1.675 0 2.314l-6.3637 6.3637c-0.639 0.6391-1.675 0.6391-2.314 0l-6.3637-6.3637z" fill="#21BF73"/>
<path d="m77.805 25.6h-4.5222l-2.494-6.5242c-0.201-0.5139-0.5116-0.8718-0.9319-1.0736-0.4019-0.2019-0.9135-0.3029-1.5347-0.3029h-2.7681v7.9007h-4.2207v-19.6h8.688c2.2656 0 3.9831 0.49551 5.1525 1.4865 1.1693 0.99103 1.754 2.4133 1.754 4.267 0 1.303-0.3471 2.4225-1.0414 3.3585-0.6761 0.9359-1.6536 1.6058-2.9326 2.0095 1.1511 0.2386 1.9825 1.037 2.4941 2.395l2.357 6.0838zm-8.414-11.177c1.2242 0 2.1195-0.2018 2.6859-0.6056 0.5664-0.4221 0.8496-1.0736 0.8496-1.9545s-0.2832-1.5233-0.8496-1.927c-0.5664-0.42211-1.4617-0.63316-2.6859-0.63316h-3.8918v5.1203h3.8918z" fill="#22272F"/>
<path d="m94.386 11.643v13.957h-4.0836v-2.0646c-0.4202 0.7157-1.014 1.2755-1.7814 1.6792-0.7674 0.4038-1.6353 0.6057-2.6037 0.6057-1.2059 0-2.2748-0.2937-3.2066-0.8809-0.9136-0.5873-1.6353-1.4224-2.1651-2.5051-0.5116-1.1012-0.7674-2.3675-0.7674-3.799s0.2558-2.707 0.7674-3.8265c0.5298-1.1195 1.2607-1.982 2.1925-2.5876 0.9318-0.624 1.9916-0.936 3.1792-0.936 0.9684 0 1.8363 0.211 2.6037 0.6331s1.3612 0.9911 1.7814 1.7068v-1.982h4.0836zm-7.2628 11.011c1.0232 0 1.8089-0.3487 2.357-1.0461s0.8222-1.7068 0.8222-3.0281c0-1.3214-0.2741-2.3308-0.8222-3.0282-0.5481-0.7157-1.3338-1.0736-2.357-1.0736s-1.818 0.367-2.3844 1.1011-0.8496 1.7527-0.8496 3.0557 0.2741 2.3032 0.8222 3.0006c0.5664 0.6791 1.3704 1.0186 2.4118 1.0186z" fill="#22272F"/>
<path d="m114.72 11.286c1.59 0 2.768 0.4863 3.536 1.459 0.785 0.9543 1.178 2.4225 1.178 4.4046v8.4512h-4.138v-8.3136c0-0.9727-0.156-1.6701-0.466-2.0922-0.311-0.4404-0.822-0.6606-1.535-0.6606-0.84 0-1.489 0.2936-1.946 0.8809-0.457 0.5872-0.685 1.4131-0.685 2.4775v7.708h-4.139v-8.3136c0-0.9543-0.164-1.6517-0.493-2.0922-0.31-0.4404-0.813-0.6606-1.507-0.6606-0.841 0-1.498 0.2936-1.974 0.8809-0.456 0.5872-0.685 1.4131-0.685 2.4775v7.708h-4.1381v-9.9653c0-1.4865-0.0731-2.8171-0.2193-3.9916h3.8914l0.247 2.0921c0.42-0.7891 1.005-1.3948 1.754-1.8169 0.767-0.4221 1.645-0.6331 2.631-0.6331 2.065 0 3.435 0.8625 4.111 2.5877 0.457-0.7892 1.087-1.4132 1.891-1.872 0.822-0.4771 1.718-0.7157 2.686-0.7157z" fill="#22272F"/>
<path d="m131.19 11.286c1.188 0 2.248 0.312 3.18 0.936 0.931 0.6056 1.653 1.4681 2.165 2.5876 0.53 1.1195 0.794 2.395 0.794 3.8265s-0.255 2.6978-0.767 3.799c-0.511 1.0827-1.233 1.9178-2.165 2.5051-0.932 0.5872-2.001 0.8809-3.207 0.8809-0.968 0-1.836-0.2019-2.603-0.6057-0.768-0.4037-1.352-0.9635-1.754-1.6792v8.4643h-4.139v-16.365c0-1.4865-0.073-2.8171-0.219-3.9916h3.892l0.274 2.3124c0.365-0.8259 0.95-1.4774 1.754-1.9546 0.822-0.4771 1.754-0.7157 2.795-0.7157zm-1.178 11.369c1.023 0 1.809-0.3395 2.357-1.0186 0.548-0.6974 0.822-1.6976 0.822-3.0006s-0.283-2.3216-0.85-3.0557c-0.548-0.7341-1.324-1.1011-2.329-1.1011-1.023 0-1.818 0.3579-2.385 1.0736-0.548 0.6974-0.822 1.7068-0.822 3.0282 0 1.3213 0.274 2.3307 0.822 3.0281 0.567 0.6974 1.362 1.0461 2.385 1.0461z" fill="#22272F"/>
</svg>
