<svg width="130" height="38" viewBox="0 0 130 38" fill="none" xmlns="http://www.w3.org/2000/svg">
<g clip-path="url(#clip0_1_2)">
<path d="M37.247 1.10601C36.9331 0.750067 36.547 0.465093 36.1144 0.270074C35.6818 0.0750538 35.2126 -0.0255344 34.738 -0.0249917H3.39999C2.96003 -0.0249918 2.52438 0.061698 2.11793 0.230126C1.71148 0.398554 1.3422 0.64542 1.03119 0.956615C0.720177 1.26781 0.473533 1.63724 0.305347 2.04379C0.137162 2.45034 0.0507327 2.88604 0.0509955 3.32601V34.674C0.0508641 35.1139 0.137384 35.5496 0.305616 35.9561C0.473848 36.3626 0.720496 36.7319 1.03148 37.0431C1.34246 37.3543 1.71169 37.6012 2.11808 37.7696C2.52447 37.9381 2.96007 38.0249 3.39999 38.025H34.738C35.178 38.025 35.6136 37.9383 36.0201 37.7699C36.4265 37.6015 36.7958 37.3546 37.1068 37.0434C37.4178 36.7322 37.6645 36.3628 37.8326 35.9562C38.0008 35.5497 38.0873 35.114 38.087 34.674V3.32601C38.0885 2.50807 37.7896 1.71805 37.247 1.10601ZM32.547 20.038C32.2363 20.3483 31.8151 20.5227 31.376 20.5227C30.9369 20.5227 30.5157 20.3483 30.205 20.038L26.992 16.823V25.175C26.9974 25.3958 26.9586 25.6155 26.8779 25.8211C26.7971 26.0267 26.676 26.2141 26.5218 26.3722C26.3675 26.5303 26.1832 26.6559 25.9796 26.7417C25.776 26.8275 25.5574 26.8717 25.3365 26.8717C25.1156 26.8717 24.8969 26.8275 24.6934 26.7417C24.4898 26.6559 24.3055 26.5303 24.1512 26.3722C23.997 26.2141 23.8759 26.0267 23.7951 25.8211C23.7144 25.6155 23.6756 25.3958 23.681 25.175V16.845L14.181 26.345C14.148 26.378 14.113 26.409 14.081 26.439C14.0752 26.4431 14.0698 26.4478 14.065 26.453C14.0076 26.4992 13.9475 26.542 13.885 26.581L13.847 26.603C13.7826 26.6408 13.7158 26.6742 13.647 26.703C13.598 26.723 13.547 26.74 13.499 26.756H13.492C13.446 26.77 13.399 26.781 13.352 26.791H13.333C13.291 26.799 13.249 26.804 13.206 26.809L13.174 26.814C13.129 26.814 13.084 26.82 13.039 26.821H13.014C12.96 26.821 12.907 26.821 12.853 26.813H12.846C12.579 26.7862 12.3225 26.6945 12.099 26.546V26.546C12.054 26.516 12.011 26.484 11.969 26.446C11.9254 26.4108 11.8837 26.3735 11.844 26.334L5.59299 20.1C5.29227 19.7876 5.12611 19.3696 5.13021 18.936C5.13431 18.5024 5.30834 18.0876 5.61492 17.7809C5.92149 17.4742 6.33614 17.3 6.76978 17.2957C7.20341 17.2914 7.62142 17.4574 7.93399 17.758L11.356 21.182V12.825C11.3506 12.6042 11.3894 12.3845 11.4701 12.1789C11.5509 11.9733 11.672 11.7859 11.8262 11.6278C11.9805 11.4697 12.1648 11.3441 12.3684 11.2583C12.5719 11.1725 12.7906 11.1283 13.0115 11.1283C13.2324 11.1283 13.4511 11.1725 13.6546 11.2583C13.8582 11.3441 14.0425 11.4697 14.1968 11.6278C14.351 11.7859 14.4721 11.9733 14.5529 12.1789C14.6336 12.3845 14.6724 12.6042 14.667 12.825V21.177L24.043 11.8C24.2951 11.4769 24.6594 11.2603 25.0636 11.1929C25.4678 11.1255 25.8827 11.2122 26.226 11.436L26.269 11.463C26.3 11.484 26.33 11.507 26.36 11.53C26.39 11.553 26.443 11.598 26.483 11.636L26.506 11.656L26.517 11.667L32.546 17.7C32.8551 18.0105 33.0287 18.4309 33.0287 18.869C33.0287 19.3072 32.8551 19.7275 32.546 20.038H32.547Z" fill="black"/>
<path d="M46.093 13.98H51.005V26.816H53.948V13.98H58.86V11.231H46.093V13.98Z" fill="black"/>
<path d="M65.309 15.1C64.9607 15.1243 64.6161 15.186 64.281 15.284C63.9575 15.3775 63.6481 15.514 63.361 15.69C62.9998 15.9003 62.6837 16.18 62.431 16.513C62.3107 16.6716 62.2021 16.8387 62.106 17.013V15.127H59.506V26.816H62.471V20.842C62.4649 20.4322 62.5271 20.0243 62.655 19.635C62.7687 19.2897 62.9536 18.9721 63.1977 18.7028C63.4417 18.4334 63.7396 18.2181 64.072 18.071C64.4376 17.8994 64.832 17.7976 65.235 17.771C65.6149 17.7332 65.9986 17.7671 66.366 17.871V15.127C66.0153 15.0842 65.6614 15.0752 65.309 15.1V15.1Z" fill="black"/>
<path d="M77.534 16.924C77.1518 16.1704 76.5048 15.5846 75.717 15.279C74.917 14.961 74.001 14.802 72.969 14.802C71.5617 14.802 70.4507 15.1053 69.636 15.712C68.8374 16.2948 68.2522 17.1235 67.97 18.071L70.632 18.915C70.7077 18.6701 70.8346 18.444 71.0042 18.2518C71.1738 18.0596 71.3824 17.9056 71.616 17.8C72.0399 17.6014 72.501 17.4947 72.969 17.487C73.7477 17.487 74.303 17.6493 74.635 17.974C74.895 18.228 75.052 18.598 75.108 19.074L73.694 19.285C72.936 19.397 72.2577 19.514 71.659 19.636C71.1338 19.7391 70.6168 19.8801 70.112 20.058C69.5605 20.2441 69.0509 20.5366 68.612 20.919C68.2526 21.244 67.9762 21.6503 67.806 22.104C67.6352 22.5795 67.5508 23.0818 67.557 23.587C67.5503 24.2092 67.705 24.8224 68.006 25.367C68.3139 25.9136 68.772 26.3606 69.326 26.655C69.906 26.9757 70.6147 27.1363 71.452 27.137C72.462 27.137 73.2953 26.962 73.952 26.612C74.5181 26.2968 75.0193 25.8771 75.429 25.375V26.812H78.004V19.673C78.004 19.1397 77.9823 18.6563 77.939 18.223C77.8903 17.7677 77.7527 17.3263 77.534 16.924V16.924ZM74.786 23.266C74.6649 23.491 74.5139 23.6986 74.337 23.883C74.0837 24.1535 73.7831 24.3755 73.45 24.538C73.023 24.7414 72.5537 24.8398 72.081 24.825C71.7819 24.832 71.4843 24.7804 71.205 24.673C70.977 24.5855 70.7796 24.4332 70.637 24.235C70.5003 24.0324 70.4304 23.7923 70.437 23.548C70.4344 23.3635 70.4769 23.1812 70.561 23.017C70.6569 22.8439 70.7901 22.6942 70.951 22.579C71.1668 22.424 71.4022 22.2982 71.651 22.205C71.9376 22.1014 72.2301 22.0149 72.527 21.946C72.8603 21.866 73.2967 21.7777 73.836 21.681C74.184 21.6183 74.6003 21.546 75.085 21.464C75.079 21.669 75.069 21.898 75.053 22.157C75.037 22.5405 74.9463 22.9172 74.786 23.266Z" fill="black"/>
<path d="M91.481 17.914C91.3367 17.3831 91.1044 16.8802 90.794 16.426C90.4484 15.9283 89.9858 15.5231 89.447 15.246C88.869 14.936 88.1223 14.781 87.207 14.781C86.0597 14.781 85.1093 15.03 84.356 15.528C84.0106 15.7552 83.696 16.0262 83.42 16.334V15.127H80.8V26.816H83.786V20.885C83.786 20.1557 83.867 19.5713 84.029 19.132C84.1534 18.7535 84.3671 18.4105 84.652 18.132C84.8825 17.9172 85.1603 17.7596 85.463 17.672C85.7269 17.5967 85.9996 17.557 86.274 17.554C86.902 17.554 87.3873 17.6947 87.73 17.976C88.0681 18.2516 88.3243 18.6143 88.471 19.025C88.6185 19.4275 88.7093 19.8485 88.741 20.276C88.7697 20.69 88.7843 21.0307 88.785 21.298V26.818H91.771V20.257C91.771 20.0617 91.7563 19.7517 91.727 19.327C91.6905 18.8492 91.6082 18.376 91.481 17.914V17.914Z" fill="black"/>
<path d="M102.5 20.631C101.963 20.3243 101.251 20.0553 100.363 19.824C99.4537 19.5927 98.7773 19.4053 98.334 19.262C97.891 19.117 97.599 18.977 97.458 18.839C97.3893 18.7737 97.3351 18.6948 97.2988 18.6073C97.2624 18.5198 97.2448 18.4257 97.247 18.331C97.247 17.9917 97.411 17.732 97.739 17.552C98.067 17.372 98.5003 17.2997 99.039 17.335C99.594 17.378 100.039 17.526 100.359 17.779C100.519 17.9022 100.651 18.0571 100.748 18.234C100.845 18.411 100.904 18.6061 100.922 18.807L103.93 18.266C103.841 17.5886 103.562 16.9504 103.124 16.426C102.661 15.8892 102.072 15.4767 101.409 15.226C100.631 14.9323 99.8051 14.7891 98.974 14.804C98.0293 14.804 97.209 14.954 96.513 15.254C95.8651 15.517 95.3055 15.9593 94.9 16.529C94.5108 17.1047 94.3106 17.7873 94.327 18.482C94.3107 19.0177 94.4418 19.5477 94.706 20.014C94.958 20.436 95.369 20.7983 95.939 21.101C96.509 21.4037 97.27 21.678 98.222 21.924C99.066 22.148 99.688 22.3283 100.088 22.465C100.488 22.602 100.746 22.741 100.862 22.882C100.983 23.0416 101.045 23.2388 101.035 23.439C101.041 23.6076 101.004 23.7749 100.928 23.9254C100.852 24.076 100.739 24.2048 100.6 24.3C100.312 24.5 99.9 24.608 99.367 24.608C98.7183 24.608 98.1827 24.453 97.76 24.143C97.3367 23.8305 97.0453 23.3712 96.943 22.855L93.935 23.309C94.1297 24.529 94.6797 25.4727 95.585 26.14C96.4903 26.8073 97.6787 27.1407 99.15 27.14C100.679 27.14 101.876 26.7973 102.742 26.112C103.608 25.4267 104.041 24.485 104.042 23.287C104.058 22.746 103.931 22.2104 103.674 21.734C103.429 21.3047 103.038 20.937 102.5 20.631Z" fill="black"/>
<path d="M115.748 16.924C115.366 16.1704 114.719 15.5846 113.931 15.279C113.131 14.961 112.215 14.802 111.183 14.802C109.776 14.802 108.665 15.1053 107.85 15.712C107.051 16.2948 106.466 17.1235 106.184 18.071L108.845 18.915C109.033 18.3817 109.361 18.01 109.83 17.8C110.254 17.6014 110.715 17.4947 111.183 17.487C111.961 17.487 112.516 17.6493 112.849 17.974C113.109 18.228 113.265 18.598 113.322 19.074L111.907 19.285C111.15 19.397 110.472 19.514 109.873 19.636C109.348 19.7391 108.831 19.8801 108.326 20.058C107.774 20.2441 107.265 20.5366 106.826 20.919C106.466 21.2437 106.19 21.6501 106.02 22.104C105.849 22.5795 105.765 23.0818 105.771 23.587C105.764 24.2092 105.919 24.8226 106.22 25.367C106.528 25.9136 106.986 26.3606 107.54 26.655C108.12 26.9757 108.829 27.1363 109.666 27.137C110.676 27.137 111.509 26.962 112.166 26.612C112.732 26.2973 113.234 25.8774 113.643 25.375V26.812H116.218V19.673C116.221 19.1889 116.199 18.7049 116.153 18.223C116.105 17.7676 115.967 17.3262 115.748 16.924V16.924ZM113 23.266C112.879 23.491 112.728 23.6986 112.551 23.883C112.297 24.1533 111.997 24.3752 111.664 24.538C111.237 24.7413 110.768 24.8397 110.295 24.825C109.996 24.832 109.698 24.7804 109.419 24.673C109.191 24.5855 108.994 24.4332 108.851 24.235C108.714 24.0326 108.644 23.7923 108.651 23.548C108.648 23.3635 108.691 23.1812 108.775 23.017C108.871 22.8439 109.004 22.6942 109.165 22.579C109.381 22.424 109.616 22.2982 109.865 22.205C110.152 22.1014 110.444 22.0149 110.741 21.946C111.074 21.866 111.511 21.7777 112.05 21.681C112.398 21.6183 112.814 21.546 113.299 21.464C113.293 21.669 113.283 21.898 113.267 22.157C113.251 22.5405 113.16 22.9172 113 23.266Z" fill="black"/>
<path d="M125.399 20.972L129.619 15.127H125.983L122.023 20.755V11.231H119.037L119.016 26.816H122.023V21.188L126.07 26.816H129.9L125.399 20.972Z" fill="black"/>
</g>
<defs>
<clipPath id="clip0_1_2">
<rect width="130" height="38" fill="white"/>
</clipPath>
</defs>
</svg>
