<svg width="781" height="227" viewBox="0 0 781 227" fill="none" xmlns="http://www.w3.org/2000/svg">
<path d="M68.4 29.6H122.1C109.1 70.9 95.7 112.1 82.8 153.5C80.5 159.2 82.1 167.4 88.6 169.4C98.4 170.6 108.2 169.6 118.1 169.9C133.1 123.2 147.9 76.4 162.8 29.7H223.6C209 45.6 194.1 61.3 179.5 77.2L203.1 70.8C189.5 113.3 176 155.7 162.4 198.1C127.3 198.2 92.3 198.1 57.2 198.2C47.8 198.5 37.3 195.3 32 187.1C25.2 176.6 26 163.1 29.7 151.6C42.5 110.8 55.4 70.2 68.4 29.6Z" fill="#0062DF"/>
<path d="M240.1 29.6H358.7C368 29.2 378 32.4 383.5 40.3C391.1 50.8 390.1 64.8 386.2 76.6C381.4 90.5 378.6 105.5 369.6 117.5C358.8 132.3 341.9 144.3 322.9 144C303.4 144.2 283.9 143.8 264.4 144.1C258.8 162.1 253 179.9 247.3 197.9C229.5 198 211.8 198 194 197.9C207.6 155.5 221.1 113.1 234.7 70.7C241.2 72.9 247.6 75 254.1 77.2C249.4 61.3 244.6 45.5 240.1 29.6ZM291.8 58C285.7 77.2 279.5 96.4001 273.5 115.7C283.5 115.6 293.6 115.9 303.7 115.7C314 116.2 322.7 107.9 325.5 98.5C328.4 89.4 331.8 80.4 333.9 71.1C335.3 65.5 331.6 58.5 325.4 58.2C314.1 57.6 302.9 58.1 291.8 58Z" fill="#0062DF"/>
<path d="M430.9 29.6H484.2C478.5 47.6 472.7 65.6 467 83.7C488.1 83.9 509.2 83.3 530.3 84C541.6 84.4 551.6 93.1 554.1 104.1C558.3 120 550.3 135.2 546.1 150.2C538.6 176.2 514.5 199.8 486.2 198.1C449.9 198 413.7 198.1 377.4 198C395.2 141.9 413 85.7 430.9 29.6ZM457.9 112.1C451.7 131.3 445.7 150.6 439.5 169.8C450.4 169.7 461.2 170.1 472.1 169.7C481.8 169 489.3 160.6 491.9 151.6C494.6 143 497.7 134.6 499.8 125.8C501.5 120.2 498 112.6 491.6 112.3C480.4 111.7 469.2 112.3 457.9 112.1Z" fill="#093687"/>
<path d="M610.8 29.3H664C659.7 43.1 655.2 56.8 650.9 70.7C633.1 70.9 615.3 70.8 597.5 70.8C602 56.9 606.3 43.1 610.8 29.3Z" fill="#093687"/>
<path d="M694.2 29.3C712 29.2 729.7 29.3 747.5 29.3C741.8 47.2 736.1 65.2 730.3 83.2H754.3C751.4 92.7 748.3 102.1 745.3 111.6H721.2C716.9 125.8 711.5 139.7 708.4 154.3C706.8 159.9 708.7 167.3 715.1 168.8C723.4 170.8 732.2 169.6 740.8 169.9C737.9 179.1 735 188.4 732 197.5C714.5 197.4 696.9 197.7 679.4 197.4C669.7 197.3 659.8 192 655.7 182.9C650.2 171.9 652.4 159 656.2 147.9C669.1 108.4 681.7 68.9 694.2 29.3Z" fill="#093687"/>
<path d="M589.4 96.5C607.2 96.5 624.9 96.4 642.7 96.5C631.9 130.2 621.2 163.8 610.5 197.4H557.3C567.9 163.8 578.6 130.2 589.4 96.5Z" fill="#093687"/>
</svg>
