<svg width="63" height="14" viewBox="0 0 63 14" fill="none" xmlns="http://www.w3.org/2000/svg">
<path fill-rule="evenodd" clip-rule="evenodd" d="M1.44652 12.6929C0.481895 11.8524 0 10.7253 0 9.31195V0.315547H2.64247V9.10192C2.64247 10.4962 3.4335 11.3748 5.15025 11.3748C6.86699 11.3748 7.65761 10.4962 7.65761 9.10192V0.315547H10.3193V9.31195C10.3193 10.7253 9.83746 11.8524 8.8728 12.6929C7.90821 13.5334 6.67374 13.9535 5.15025 13.9535C3.64517 13.9535 2.41073 13.5334 1.44652 12.6929ZM21.6427 0.31543V2.83647H17.9971V13.6861H15.335V2.83647H11.7087V0.31543H21.6427Z" fill="black"/>
<path fill-rule="evenodd" clip-rule="evenodd" d="M25.2837 6.96553C25.2837 9.24334 27.1302 11.0899 29.408 11.0899C31.6858 11.0899 33.5324 9.24334 33.5324 6.96553C33.5324 4.68773 31.6858 2.8412 29.408 2.8412C27.1302 2.8412 25.2837 4.68773 25.2837 6.96553ZM29.408 0.0465088C25.5868 0.0465088 22.489 3.14426 22.489 6.96553C22.489 10.7868 25.5868 13.8846 29.408 13.8846C33.2293 13.8846 36.3271 10.7868 36.3271 6.96553C36.3271 3.14426 33.2293 0.0465088 29.408 0.0465088Z" fill="black"/>
<path fill-rule="evenodd" clip-rule="evenodd" d="M40.7206 2.77771V6.73158H43.4597C44.4629 6.73158 45.2924 5.83394 45.2924 4.74533C45.2924 3.6563 44.4629 2.77771 43.4597 2.77771H40.7206ZM45.4656 13.6845L42.7461 9.04298H40.7206V13.6845H38.0585V0.313787H43.4597C44.7134 0.313787 45.7743 0.752876 46.6423 1.61242C47.5103 2.47196 47.9541 3.52246 47.9541 4.74529C47.9541 6.40677 46.9125 7.93494 45.3501 8.64204L48.3398 13.6845H45.4656ZM63 6.50237V7.53382C63 9.44427 62.3825 10.991 61.148 12.1753C59.9135 13.3601 58.3128 13.952 56.3643 13.952C54.2811 13.952 52.5451 13.2834 51.1756 11.9463C49.806 10.5901 49.1309 8.9472 49.1309 7.01809C49.1309 5.06995 49.806 3.42709 51.1564 2.07088C52.5259 0.71467 54.2042 0.0465088 56.2104 0.0465088C58.737 0.0465088 60.9359 1.26892 62.0934 3.15991L59.8178 4.45854C59.1808 3.36993 57.792 2.60566 56.1912 2.60566C54.8985 2.60566 53.8377 3.02611 53.0082 3.8666C52.1787 4.68803 51.7738 5.73853 51.7738 7.01809C51.7738 8.27904 52.1979 9.32955 53.0274 10.151C53.8762 10.9724 54.9948 11.3734 56.384 11.3734C58.4479 11.3734 59.8366 10.4182 60.3184 8.83289H56.2292V6.50237H63Z" fill="black"/>
</svg>
