<svg width="1754" height="380" viewBox="0 0 1754 380" fill="none" xmlns="http://www.w3.org/2000/svg">
<path fill-rule="evenodd" clip-rule="evenodd" d="M1754 372.1H1648.86L1569.24 246.3H1566.34L1486.91 372.3H1388.91L1517.45 187.1L1392.45 8.60001H1497.58L1575 128.5H1577.9L1654.53 8.60001H1752.53L1625.46 188.5L1754 372.1ZM1391.38 226.4H1137.19C1138.29 250.3 1145.89 269.7 1160.19 284.5C1175.49 300.3 1201.8 308.2 1231.91 308.2C1254.91 308.2 1275.43 303.7 1290.03 294.4C1304.97 284.932 1318.23 273.035 1329.25 259.2L1378.86 313C1363.56 333.8 1342.65 350.4 1315.94 362.1C1289.33 374.1 1256.82 380 1221.81 380C1194.1 380 1167.49 375.5 1145.68 366.4C1123.87 357.3 1105.47 344.6 1090.36 328.1C1075.25 311.6 1063.75 291.7 1055.55 268.3C1047.35 244.9 1043.35 218.5 1043.35 189.3C1043.35 160.5 1047.35 134.6 1055.15 111.3C1062.95 88 1074.56 68.4 1089.36 51.9C1104.16 35.4 1122.36 22.7 1143.98 13.6C1165.6 4.50001 1191.7 0 1218.98 0C1248.19 0 1275.4 4.90001 1296.8 14.7C1318.41 24.3 1336.12 37.6 1350.12 54.2C1364.12 70.8 1374.43 90.3 1381.43 112.3C1388.48 135.234 1391.99 159.108 1391.84 183.1L1391.38 226.4ZM1304 151.6C1304 126.5 1296.89 113.2 1282.49 97.4C1268.09 81.6 1245.18 72.6 1220.67 72.6C1196.16 72.6 1173.25 81.5 1158.85 97.4C1144.45 113.3 1137.24 126.5 1137.24 151.6V153.4H1304V151.6ZM529.64 8.60001L477.88 188.8C471.09 212.398 465.684 236.372 461.69 260.6V260.9H460.13C458.74 247.4 455.13 234 452.81 222.5L395.89 8.60001H279.42L222.84 222.3C220.58 233.8 216.91 247.3 215.52 260.7H214V260.4C210.006 236.205 204.6 212.264 197.81 188.7L146.24 8.60001H63.72L87.92 93.3H0V154H105.16L122.38 214.3H0V275.1H139.62L167.31 372.3H265.84L332.51 117.4C334.6 108 336.51 97.7 337.05 90.5H338.61C339.14 97.5 341.05 108 343.14 117.4L409.81 372.3H508.35L612.11 8.60001H529.64ZM659.85 8.60001V372.3H747.61V8.60001H659.85ZM814.43 8.60001V372.3H895V80.7H1028.64V8.60001H814.43Z" fill="#053F33"/>
</svg>
