<?xml version="1.0" encoding="UTF-8"?>
<svg style="content-visibility:visible;height:100%;transform:translate3d(0px, 0px, 0px);width:100%" viewBox="0 0 600 110" xmlns="http://www.w3.org/2000/svg">
<defs>
<clipPath id="e">
<rect width="600" height="110"/>
</clipPath>
<mask id="d">
<path d="m0 0h600v110h-600v-110m0.177-0.014h-0.177v1.009h0.177v-1.009" fill="#fff"/>
</mask>
<filter id="c">
<feColorMatrix color-interpolation-filters="sRGB" values="1 0 0 0 0 0 1 0 0 0 0 0 1 0 0 0 0 0 1 0"/>
<feColorMatrix color-interpolation-filters="sRGB" values="0 0 0 0 1 0 0 0 0 1 0 0 0 0 1 0 0 0 1 0"/>
</filter>
<mask id="b">
<path d="m0 0h600v110h-600v-110m0.177-0.014h-0.177v1.009h0.177v-1.009" fill="#fff"/>
</mask>
<filter id="a">
<feColorMatrix color-interpolation-filters="sRGB" values="1 0 0 0 0 0 1 0 0 0 0 0 1 0 0 0 0 0 1 0"/>
<feColorMatrix color-interpolation-filters="sRGB" values="0 0 0 0 1 0 0 0 0 1 0 0 0 0 1 0 0 0 1 0"/>
</filter>
</defs>
<g clip-path="url(#e)">
<g transform="translate(6.5 3)" display="block" filter="url(#c)" mask="url(#d)">
<g transform="translate(51.621 51.579)">
<path d="m0 51.579c-13.68-0.0089989-26.798-5.445-36.476-15.114-9.677-9.669-15.124-22.782-15.145-36.462 0.021-13.681 5.468-26.795 15.145-36.465 9.677-9.669 22.795-15.106 36.476-15.117 13.681 0.010998 26.799 5.448 36.476 15.117 9.678 9.67 15.124 22.784 15.145 36.465-0.021 13.68-5.468 26.793-15.145 36.462-9.678 9.669-22.796 15.105-36.476 15.114zm0-99.187c-12.628 0.0090027-24.737 5.026-33.67 13.952-8.933 8.926-13.961 21.031-13.98 33.659 0.012001 12.629 5.038 24.738 13.973 33.663 8.934 8.927 21.048 13.941 33.677 13.941 12.63 0 24.743-5.014 33.678-13.941 8.935-8.925 13.96-21.034 13.972-33.663-0.019001-12.628-5.046-24.733-13.98-33.659-8.933-8.926-21.042-13.943-33.67-13.952z"/>
</g>
<g transform="translate(58.147 52.265)">
<path d="m1e-3 42.733c-11.334-0.0080032-22.203-4.512-30.22-12.524-8.017-8.011-12.529-18.875-12.547-30.209 0.017998-11.334 4.53-22.198 12.547-30.21 8.017-8.01 18.886-12.515 30.22-12.523 11.333 0.0080032 22.2 4.513 30.218 12.523 8.017 8.012 12.53 18.876 12.547 30.21-0.016998 11.334-4.53 22.198-12.547 30.209-8.018 8.012-18.885 12.516-30.218 12.524zm0-82.382c-10.516 0.0089989-20.599 4.188-28.037 11.621-7.438 7.433-11.624 17.513-11.64 28.028 0.017998 10.515 4.205 20.592 11.642 28.023 7.438 7.432 17.521 11.611 28.035 11.62 10.514-0.0090027 20.595-4.188 28.033-11.62 7.438-7.431 11.625-17.508 11.642-28.023-0.016998-10.514-4.204-20.592-11.642-28.024-7.438-7.432-17.519-11.61-28.033-11.619v-0.0059967z"/>
</g>
<g transform="translate(64.672 52.957)">
<path d="m0 33.885c-8.987-0.0059967-17.604-3.579-23.962-9.931-6.357-6.353-9.935-14.966-9.949-23.953 0.014-8.987 3.592-17.603 9.949-23.955 6.358-6.352 14.975-9.924 23.962-9.931 8.988 0.0049973 17.606 3.576 23.963 9.929 6.358 6.353 9.936 14.969 9.948 23.957-0.014 8.987-3.592 17.6-9.95 23.953-6.357 6.352-14.974 9.925-23.961 9.931zm0-65.566c-8.403 0.0049992-16.461 3.344-22.405 9.283-5.945 5.94-9.29 13.995-9.303 22.398 0.014999 8.402 3.361 16.456 9.305 22.394 5.944 5.938 14.001 9.275 22.403 9.28 8.402-0.0049992 16.459-3.342 22.403-9.28 5.944-5.938 9.29-13.992 9.305-22.394-0.013-8.403-3.358-16.458-9.303-22.398-5.944-5.939-14.002-9.278-22.405-9.283z"/>
</g>
<g transform="translate(71.197 53.644)">
<path d="m0 25.04c-6.64-0.0050011-13.007-2.646-17.705-7.339-4.697-4.693-7.34-11.059-7.351-17.698 0.0089989-6.642 2.652-13.008 7.349-17.702 4.698-4.696 11.066-7.336 17.707-7.341 6.642 0.0050011 13.01 2.645 17.707 7.341 4.698 4.694 7.34 11.06 7.349 17.702-0.01 6.639-2.654 13.005-7.351 17.698-4.697 4.693-11.064 7.334-17.705 7.339zm0-48.757c-6.29 0.0049992-12.321 2.507-16.771 6.953-4.449 4.447-6.953 10.476-6.961 16.767 0.01 6.289 2.515 12.318 6.963 16.763 4.45 4.446 10.48 6.944 16.769 6.95 6.29-0.0060005 12.32-2.504 16.769-6.95 4.449-4.445 6.953-10.474 6.963-16.763-0.0079994-6.291-2.511-12.32-6.961-16.767-4.449-4.446-10.48-6.948-16.771-6.953z"/>
</g>
</g>
<g transform="translate(6.5 3)" display="block" filter="url(#a)" mask="url(#b)">
<g transform="translate(165.6 50.316)">
<path d="m26.531-18.825-13.544 38.007c-0.062 0.183-0.184 0.341-0.347 0.448-0.163 0.107-0.357 0.156-0.551 0.141h-1.027c-0.195 0.0079994-0.388-0.045-0.552-0.151-0.163-0.105-0.29-0.258-0.363-0.438l-10.154-26.655-10.137 26.655c-0.067 0.18-0.191 0.334-0.352 0.44-0.162 0.106-0.353 0.158-0.547 0.149h-1.043c-0.193 0.01-0.385-0.041-0.547-0.147-0.162-0.106-0.285-0.261-0.351-0.442l-13.544-37.994c-0.208-0.589 0.016001-0.954 0.593-0.954h4.192c0.197-0.018999 0.395 0.027 0.562 0.134 0.166 0.107 0.291 0.267 0.353 0.454l9.654 28.776 9.816-26.353c0.07-0.182 0.197-0.336 0.361-0.442 0.165-0.106 0.358-0.157 0.554-0.147h0.882c0.194-0.01 0.385 0.042999 0.547 0.149 0.162 0.106 0.285 0.259 0.352 0.44l10.107 26.353 9.429-28.776c0.063-0.187 0.187-0.347 0.354-0.454 0.166-0.107 0.364-0.153 0.562-0.134h4.128c0.593 0 0.818 0.365 0.61 0.941"/>
</g>
<g transform="translate(230.93 49.985)">
<path d="m20.148 0.018c-0.038 3.914-1.243 7.729-3.462 10.966-2.219 3.236-5.353 5.749-9.008 7.22-3.656 1.473-7.668 1.839-11.532 1.053-3.864-0.787-7.407-2.69-10.182-5.471-2.776-2.782-4.661-6.316-5.417-10.158-0.756-3.841-0.35-7.82 1.168-11.433 1.518-3.613 4.08-6.7 7.362-8.871 3.283-2.171 7.139-3.329 11.084-3.329 2.651-0.037001 5.283 0.456 7.737 1.452 2.455 0.995 4.681 2.472 6.547 4.341 1.866 1.87 3.333 4.093 4.313 6.538 0.979 2.445 1.452 5.062 1.39 7.692zm-5.543 0c0-9.214-6.057-15.562-14.444-15.562-8.387 0-14.442 6.348-14.442 15.562 0 9.215 6.055 15.561 14.442 15.561 8.387 0 14.444-6.346 14.444-15.561z"/>
</g>
<g transform="translate(289.08 50.013)">
<path d="m14.924 17.861c0.128 0.146 0.209 0.329 0.23 0.522 0.021999 0.193-0.016001 0.387-0.108 0.558-0.092999 0.171-0.235 0.31-0.409 0.399-0.173 0.089001-0.37 0.123-0.564 0.098999h-3.776c-0.123-0.0039997-0.242-0.036999-0.349-0.098999-0.106-0.059999-0.197-0.146-0.262-0.251l-9.476-14.189h-10.184v13.744c-0.0030003 0.211-0.088 0.412-0.238 0.562-0.15 0.149-0.355 0.234-0.567 0.237h-3.688c-0.212-0.0040016-0.414-0.09-0.564-0.239-0.15-0.15-0.235-0.35-0.237-0.56v-37.307c0.0029993-0.211 0.087999-0.412 0.237-0.561 0.149-0.149 0.352-0.235 0.564-0.239h14.506c10.153 0 15.167 5.295 15.167 12.18 0.061999 2.736-0.865 5.404-2.612 7.521-1.747 2.117-4.199 3.544-6.914 4.022l9.244 13.601zm-15.92-17.423c7.984 0 10.665-3.286 10.665-7.718 0-4.432-2.681-7.717-10.665-7.717h-8.982v15.435h8.982z"/>
</g>
<g transform="translate(347.68 49.69)">
<path d="m18.704-19.766h1.204c0.108-7e-3 0.215 0.0090008 0.317 0.047001 0.1 0.037001 0.191 0.096001 0.268 0.172 0.076 0.075001 0.135 0.166 0.173 0.266 0.038 0.1 0.055 0.207 0.046999 0.314v37.936c0.0080013 0.106-0.0089989 0.214-0.046999 0.314-0.038 0.099998-0.097 0.19-0.173 0.266-0.077 0.075001-0.168 0.134-0.268 0.172-0.102 0.036999-0.209 0.053999-0.317 0.046999h-3.687c-0.109 7e-3 -0.217-0.01-0.317-0.046999-0.1-0.038-0.193-0.097-0.268-0.172-0.077-0.076-0.136-0.166-0.174-0.266-0.038-0.1-0.054-0.208-0.047-0.314v-26.932s-14.861 21.348-14.861 21.348c-0.05 0.105-0.127 0.194-0.226 0.258-0.099 0.062-0.213 0.095-0.33 0.095-0.117 0-0.231-0.033-0.33-0.095-0.098-0.063999-0.177-0.153-0.225-0.258l-14.859-21.348v26.928c7e-3 0.107-0.0089998 0.215-0.047 0.314-0.038 0.101-0.097 0.192-0.173 0.267-0.076 0.076-0.168 0.134-0.268 0.171-0.101 0.038-0.208 0.054001-0.317 0.047001h-3.688c-0.108 7e-3 -0.215-0.0090008-0.316-0.047001-0.101-0.036999-0.192-0.094999-0.269-0.171-0.075001-0.074999-0.135-0.166-0.173-0.267-0.038-0.098999-0.054001-0.207-0.047001-0.314v-37.936c-7e-3 -0.107 0.0090008-0.213 0.047001-0.313 0.038-0.1 0.098-0.191 0.173-0.267 0.077-0.074999 0.168-0.134 0.269-0.172 0.101-0.037001 0.208-0.052999 0.316-0.046h1.19c0.2 9.9945e-4 0.398 0.049999 0.572 0.145 0.176 0.095001 0.326 0.231 0.434 0.397 0 0 17.706 24.536 17.706 24.536l17.719-24.536c0.103-0.165 0.248-0.3 0.419-0.395 0.172-0.094999 0.364-0.146 0.56-0.147"/>
</g>
<g transform="translate(410.51 50.001)">
<path d="m17.5-18.652v37.304c-0.0039997 0.211-0.09 0.412-0.24 0.562-0.151 0.148-0.354 0.234-0.566 0.237h-3.689c-0.212-0.0030003-0.415-0.089001-0.565-0.237-0.15-0.15-0.235-0.351-0.238-0.562v-16.994h-24.403v16.994c-0.0039997 0.211-0.09 0.412-0.239 0.562-0.151 0.148-0.353 0.234-0.565 0.237h-3.689c-0.212-0.0030003-0.414-0.089001-0.565-0.237-0.15-0.15-0.237-0.351-0.241-0.562v-37.304c0.0039997-0.211 0.091-0.411 0.241-0.56 0.151-0.149 0.353-0.235 0.565-0.239h3.689c0.212 0.0039997 0.414 0.09 0.565 0.239 0.149 0.149 0.235 0.349 0.239 0.56v15.847h24.403v-15.847c0.0030003-0.211 0.088-0.411 0.238-0.56 0.15-0.149 0.353-0.235 0.565-0.239h3.689c0.212 0.0039997 0.415 0.09 0.566 0.239 0.15 0.149 0.236 0.349 0.24 0.56z"/>
</g>
<g transform="translate(470.57 49.985)">
<path d="m20.147 0.018c-0.038 3.914-1.242 7.729-3.461 10.966-2.219 3.236-5.353 5.749-9.008 7.22-3.655 1.473-7.668 1.839-11.532 1.053-3.864-0.787-7.407-2.69-10.183-5.471-2.776-2.782-4.661-6.316-5.417-10.158-0.755-3.841-0.349-7.82 1.169-11.433 1.518-3.613 4.08-6.7 7.362-8.871 3.283-2.171 7.139-3.329 11.084-3.329 2.651-0.037001 5.282 0.456 7.737 1.452 2.454 0.995 4.681 2.472 6.546 4.341 1.866 1.87 3.333 4.093 4.313 6.538 0.98 2.445 1.452 5.062 1.39 7.692zm-5.543 0c0-9.214-6.056-15.562-14.443-15.562-8.387 0-14.443 6.348-14.443 15.562 0 9.215 6.056 15.561 14.443 15.561 8.387 0 14.443-6.346 14.443-15.561z"/>
</g>
<g transform="translate(527.34 50.004)">
<path d="m13.865 15.78v2.868c7e-3 0.108-0.01 0.214-0.047999 0.314-0.038 0.1-0.098001 0.191-0.174 0.266-0.075999 0.076-0.168 0.135-0.268 0.172-0.101 0.038-0.208 0.054001-0.317 0.047001h-26.135c-0.212-0.0030003-0.415-0.089001-0.565-0.237-0.15-0.15-0.236-0.351-0.24-0.562v-37.303c0.0039997-0.211 0.09-0.412 0.24-0.561 0.15-0.149 0.353-0.234 0.565-0.238h3.689c0.212 0.0050011 0.414 0.09 0.563 0.239 0.15 0.149 0.235 0.349 0.238 0.56v33.636h21.656c0.108-7e-3 0.215 0.01 0.316 0.047 0.101 0.038 0.192 0.097 0.269 0.172 0.075999 0.076 0.135 0.167 0.173 0.267 0.038 0.099 0.054 0.207 0.047 0.313"/>
</g>
<g transform="translate(577.21 49.998)">
<path d="m14.913 15.784v2.868c7e-3 0.107-0.01 0.213-0.048 0.313-0.038 0.098999-0.097 0.191-0.172 0.267-0.077 0.074999-0.168 0.134-0.269 0.172-0.101 0.037001-0.209 0.054001-0.317 0.047001h-28.224c-0.212-0.0039997-0.415-0.089001-0.565-0.238-0.15-0.149-0.236-0.35-0.24-0.561v-37.304c0.0039997-0.21 0.09-0.413 0.24-0.562 0.15-0.149 0.353-0.234 0.565-0.237h27.585c0.107-7e-3 0.215 0.01 0.316 0.047001 0.101 0.038 0.192 0.097 0.268 0.172 0.076 0.076 0.134 0.167 0.172 0.267 0.038 0.1 0.056 0.207 0.049 0.313v2.869c7e-3 0.107-0.011 0.213-0.049 0.314-0.038 0.099-0.096 0.19-0.172 0.266-0.076 0.075-0.167 0.134-0.268 0.172-0.101 0.037-0.209 0.053-0.316 0.046h-23.101v12.18h20.531c0.106-7e-3 0.213 0.0080001 0.312 0.045 0.099 0.036 0.189 0.094 0.264 0.168 0.077 0.074 0.136 0.163 0.174 0.261 0.039001 0.098 0.058001 0.203 0.053 0.308v2.884c0.0059996 0.106-0.01 0.214-0.048 0.313-0.038 0.099-0.098 0.189-0.174 0.264-0.076 0.075-0.166 0.133-0.266 0.171-0.1 0.037-0.208 0.055-0.315 0.049h-20.531v13.326h23.745c0.107-7e-3 0.214 0.01 0.315 0.047999 0.1 0.037001 0.192 0.096001 0.268 0.172 0.076 0.075 0.136 0.166 0.174 0.267 0.037999 0.099 0.054 0.206 0.047 0.313"/>
</g>
</g>
</g>
</svg>
