<svg fill="none" height="40" viewBox="0 0 40 40" width="40" xmlns="http://www.w3.org/2000/svg" xmlns:xlink="http://www.w3.org/1999/xlink"><filter id="a" color-interpolation-filters="sRGB" filterUnits="userSpaceOnUse" height="40" width="40" x="0" y="0"><feFlood flood-opacity="0" result="BackgroundImageFix"/><feColorMatrix in="SourceAlpha" result="hardAlpha" type="matrix" values="0 0 0 0 0 0 0 0 0 0 0 0 0 0 0 0 0 0 127 0"/><feOffset dy="2"/><feGaussianBlur stdDeviation="2"/><feComposite in2="hardAlpha" operator="out"/><feColorMatrix type="matrix" values="0 0 0 0 0 0 0 0 0 0 0 0 0 0 0 0 0 0 0.15 0"/><feBlend in2="BackgroundImageFix" mode="normal" result="effect1_dropShadow_405_67"/><feBlend in="SourceGraphic" in2="effect1_dropShadow_405_67" mode="normal" result="shape"/></filter><radialGradient id="b" cx="0" cy="0" gradientTransform="matrix(-12.288 0 0 -79.1814 24.432 18.424)" gradientUnits="userSpaceOnUse" r="1"><stop offset="0" stop-color="#fe84fc"/><stop offset=".404584" stop-color="#aaa3fd"/><stop offset=".521635" stop-color="#92acfe"/><stop offset="1" stop-color="#2ed1ff"/></radialGradient><g filter="url(#a)"><rect fill="#fff" height="32" rx="16" width="32" x="4" y="2"/></g><path d="m17.4 25.2c-1.4359 0-2.6-1.164-2.6-2.6v-8c0-1.4359 1.1641-2.6 2.6-2.6s2.6 1.1641 2.6 2.6v8c0 1.436-1.1641 2.6-2.6 2.6z" fill="#0f0e25"/><path d="m28 14.6c0 1.4359-1.1641 2.6-2.6 2.6h-10.6v-2.6c0-1.4359 1.1641-2.6 2.6-2.6h8c1.4359 0 2.6 1.1641 2.6 2.6z" fill="#0f0e25"/><path d="m25.2 17.2v2.6c0 1.436-1.1641 2.6-2.6 2.6h-8c-1.436 0-2.6-1.164-2.6-2.6 0-1.4359 1.164-2.6 2.6-2.6z" fill="url(#b)"/></svg>