<svg width="24" height="25" viewBox="0 0 24 25" fill="none" xmlns="http://www.w3.org/2000/svg">
<path d="M20 12.6406V22.6406H4V12.6406" stroke="#8FCDFF" stroke-width="2" stroke-linecap="round" stroke-linejoin="round"/>
<path d="M22 7.64062H2V12.6406H22V7.64062Z" stroke="#8FCDFF" stroke-width="2" stroke-linecap="round" stroke-linejoin="round"/>
<path d="M12 22.6406V7.64062" stroke="#8FCDFF" stroke-width="2" stroke-linecap="round" stroke-linejoin="round"/>
<path d="M12 7.64062H7.5C6.83696 7.64063 6.20107 7.37723 5.73223 6.90839C5.26339 6.43955 5 5.80367 5 5.14062C5 4.47758 5.26339 3.8417 5.73223 3.37286C6.20107 2.90402 6.83696 2.64063 7.5 2.64063C11 2.64062 12 7.64062 12 7.64062Z" stroke="#8FCDFF" stroke-width="2" stroke-linecap="round" stroke-linejoin="round"/>
<path d="M12 7.64062H16.5C17.163 7.64063 17.7989 7.37723 18.2678 6.90839C18.7366 6.43955 19 5.80367 19 5.14062C19 4.47758 18.7366 3.8417 18.2678 3.37286C17.7989 2.90402 17.163 2.64062 16.5 2.64062C13 2.64062 12 7.64062 12 7.64062Z" stroke="#8FCDFF" stroke-width="2" stroke-linecap="round" stroke-linejoin="round"/>
</svg>
