<svg width="49" height="53" viewBox="0 0 49 53" fill="none" xmlns="http://www.w3.org/2000/svg">
<path fill-rule="evenodd" clip-rule="evenodd" d="M27.6926 10.8965C29.5851 11.1014 31.5277 11.1002 32.8674 10.7129C33.8092 10.4407 33.9857 10.1204 34.0199 10.0285C34.0674 9.9004 34.2067 9.25171 33.2904 7.66461C32.3741 6.0775 31.7426 5.87377 31.608 5.85093C31.5113 5.83453 31.1457 5.82721 30.439 6.50673C29.4337 7.47335 28.4614 9.15509 27.6926 10.8965ZM32.2768 1.90725C34.1622 2.22702 35.6143 3.68975 36.7545 5.66461C37.8947 7.63947 38.4354 9.62837 37.7696 11.421C37.0904 13.2498 35.4389 14.1334 33.9782 14.5556C31.0903 15.3904 27.1392 14.9782 24.5339 14.4518L22.3121 14.0029L23.0342 11.8543C23.881 9.33488 25.4996 5.707 27.6665 3.62343C28.7625 2.56957 30.3534 1.58103 32.2768 1.90725Z" fill="#00C1DE"/>
<path fill-rule="evenodd" clip-rule="evenodd" d="M21.1719 10.8965C19.2794 11.1014 17.3368 11.1002 15.9971 10.7129C15.0553 10.4407 14.8788 10.1204 14.8446 10.0285C14.7971 9.9004 14.6578 9.25171 15.5741 7.66461C16.4905 6.0775 17.1219 5.87377 17.2565 5.85093C17.3532 5.83453 17.7188 5.82721 18.4255 6.50673C19.4308 7.47335 20.4031 9.15509 21.1719 10.8965ZM16.5877 1.90725C14.7023 2.22702 13.2502 3.68975 12.11 5.66461C10.9698 7.63947 10.4291 9.62837 11.0949 11.421C11.7741 13.2498 13.4256 14.1334 14.8863 14.5556C17.7742 15.3904 21.7253 14.9782 24.3306 14.4518L26.5524 14.0029L25.8303 11.8543C24.9835 9.33488 23.3649 5.707 21.198 3.62343C20.102 2.56957 18.5111 1.58103 16.5877 1.90725Z" fill="#00C1DE"/>
<rect x="4.00842" y="20.673" width="40.5308" height="31.9677" fill="#F6F3AC"/>
<rect x="0.158813" y="13.88" width="48.6824" height="6.79292" fill="#DBD52A"/>
<path fill-rule="evenodd" clip-rule="evenodd" d="M21.774 52.6406L21.774 20.673L26.774 20.673L26.774 52.6406L21.774 52.6406Z" fill="#80E8F8"/>
<path fill-rule="evenodd" clip-rule="evenodd" d="M21.774 20.6729L21.774 13.88L26.774 13.88L26.774 20.6729L21.774 20.6729Z" fill="#00C1DE"/>
</svg>
