<svg viewBox="0 0 36 35.11" xmlns="http://www.w3.org/2000/svg"><path d="m18 0a18 18 0 0 0 -5.69 35.08c.9.17 1.23-.39 1.23-.87s0-1.56 0-3.06c-5 1.09-6.06-2.41-6.06-2.41a4.75 4.75 0 0 0 -2-2.63c-1.66-1.11.1-1.11.1-1.11a3.78 3.78 0 0 1 2.75 1.86 3.83 3.83 0 0 0 5.24 1.49 3.89 3.89 0 0 1 1.14-2.35c-4-.46-8.19-2-8.19-8.9a7 7 0 0 1 1.85-4.83 6.48 6.48 0 0 1 .17-4.76s1.52-.49 5 1.84a17 17 0 0 1 9 0c3.4-2.35 4.91-1.88 4.91-1.88a6.45 6.45 0 0 1 .18 4.76 6.91 6.91 0 0 1 1.85 4.83c0 6.91-4.21 8.44-8.22 8.88a4.3 4.3 0 0 1 1.23 3.33v4.94s.33 1 1.24.87a18 18 0 0 0 -5.73-35.08z" fill="#999" fill-rule="evenodd"/></svg>