<svg fill="none" height="40" viewBox="0 0 40 40" width="40" xmlns="http://www.w3.org/2000/svg" xmlns:xlink="http://www.w3.org/1999/xlink"><filter id="a" color-interpolation-filters="sRGB" filterUnits="userSpaceOnUse" height="40" width="40" x="0" y="0"><feFlood flood-opacity="0" result="BackgroundImageFix"/><feColorMatrix in="SourceAlpha" result="hardAlpha" type="matrix" values="0 0 0 0 0 0 0 0 0 0 0 0 0 0 0 0 0 0 127 0"/><feOffset dy="2"/><feGaussianBlur stdDeviation="2"/><feComposite in2="hardAlpha" operator="out"/><feColorMatrix type="matrix" values="0 0 0 0 0 0 0 0 0 0 0 0 0 0 0 0 0 0 0.15 0"/><feBlend in2="BackgroundImageFix" mode="normal" result="effect1_dropShadow_405_2"/><feBlend in="SourceGraphic" in2="effect1_dropShadow_405_2" mode="normal" result="shape"/></filter><g filter="url(#a)"><rect fill="#fff" height="32" rx="16" width="32" x="4" y="2"/></g><path d="m25.3381 14.8989h-1.2512v-4.7947c.0014-.47258-.1569-.93183-.4491-1.3033s-.7012-.63339-1.1609-.74334c-.4596-.10995-.943-.06147-1.3716.13757-.4287.19904-.7776.53699-.9902.95909s-.2765.90358-.1813 1.36658c.0953.4629.344.8801.706 1.184.3619.3039.8159.4767 1.2883.4904s.9357-.1326 1.3146-.415v3.1187h-4.8106c-.5546.0002-1.0865.2207-1.4786.613-.3921.3922-.6123.9242-.6123 1.4788v.0452 4.7946h-1.2477c-.413-.0003-.8168.1216-1.1607.3504-.3438.2289-.6122.5544-.7713.9355s-.2019.8008-.1229 1.2062c.0791.4053.2763.7782.5669 1.0717.2906.2934.6616.4943 1.0662.5773.4046.0829.8247.0442 1.2073-.1112.3827-.1554.7107-.4206.9429-.7622.2321-.3416.358-.7442.3617-1.1572v-1.2663h3.139c-.2802.3776-.4248.8388-.4105 1.3088.0144.47.1869.9214.4897 1.2813.3027.3598.718.6069 1.1787.7014.4606.0945.9397.0309 1.3597-.1807.4199-.2115.7563-.5586.9545-.985.1983-.4264.2469-.9072.138-1.3647-.1089-.4574-.369-.8648-.7381-1.1561s-.8258-.4496-1.296-.4492h-4.8141v-3.1648c.402.3057.9012.4553 1.405.4211.5039-.0341.9783-.2497 1.3354-.6068s.5727-.8316.6069-1.3354c.0341-.5039-.1154-1.0031-.4211-1.4051h3.1382v1.2671c.004.4127.1301.815.3623 1.1562s.5602.606.9427.7611.8023.1936 1.2065.1105c.4043-.083.775-.2838 1.0653-.5771.2904-.2933.4874-.666.5664-1.0711.0789-.4051.0362-.8245-.1228-1.2054-.1589-.3808-.4271-.7061-.7706-.9349s-.747-.3507-1.1597-.3506zm-3.3386-3.547c-.2468.0002-.4881-.0729-.6934-.2098-.2053-.137-.3654-.3318-.4599-.5598-.0946-.228-.1194-.4788-.0714-.72092.048-.24208.1668-.46447.3413-.63905.1744-.17457.3967-.29349.6388-.3417.242-.04821.4929-.02356.7209.07085.2281.0944.423.25432.5601.45951s.2103.44645.2103.69321c-.0002.3307-.1316.6478-.3653.8817-.2338.2339-.5508.3655-.8814.366zm1.2467 12.5696c.0002.2468-.0728.4881-.2099.6935-.137.2053-.3318.3653-.5598.4599-.2281.0945-.479.1193-.7211.0712s-.4645-.167-.639-.3415c-.1746-.1746-.2934-.397-.3415-.6391s-.0234-.493.0712-.721c.0945-.228.2546-.4229.4599-.5599s.4466-.2101.6935-.2099c.3305.0005.6473.132.8811.3657.2337.2337.3652.5505.3656.8811zm-8.1527 1.2476c-.2467 0-.488-.0732-.6931-.2103-.2052-.137-.3651-.3319-.4596-.5599-.0944-.228-.1191-.4788-.071-.7208.0482-.2421.167-.4644.3415-.6389.1745-.1744.3968-.2933.6388-.3414s.4929-.0234.7209.071.4228.2543.5599.4595.2103.4464.2103.6932c-.0005.3307-.1321.6478-.366.8817-.2339.2338-.5509.3654-.8817.3659zm3.3386-6.9317c-.2468 0-.488-.0732-.6932-.2103s-.3651-.332-.4596-.5601c-.0944-.228-.119-.4789-.0708-.7209.0482-.2421.1671-.4644.3417-.6388.1746-.1745.397-.2932.639-.3413.2421-.048.493-.0232.721.0714.2279.0945.4227.2546.5597.4599s.21.4466.2099.6934c-.0005.3307-.1321.6476-.366.8814-.2339.2337-.551.3651-.8817.3653zm6.906 0c-.2468 0-.4881-.0732-.6933-.2103s-.3651-.332-.4595-.5601c-.0944-.228-.1191-.4789-.0708-.7209.0482-.2421.1671-.4644.3417-.6388.1745-.1745.3969-.2932.639-.3413.2421-.048.493-.0232.7209.0714.228.0945.4228.2546.5598.4599s.21.4466.2098.6934c-.0005.3307-.1321.6476-.366.8814-.2339.2337-.551.3651-.8816.3653z" fill="#ea3f34"/></svg>