<svg width="80" height="92" viewBox="0 0 80 92" fill="none" xmlns="http://www.w3.org/2000/svg">
<path d="M62.0001 56.34V28.64C62.0001 23.12 56.4 17.71 49.48 17.71C45.7606 17.7749 42.2115 19.2805 39.5801 21.91L27.0901 9.58001C30.4088 6.35023 34.3852 3.8743 38.7479 2.32113C43.1106 0.767949 47.757 0.17407 52.3701 0.580007C68.6101 2.12001 79.3101 15.27 79.3101 29.03V74.03L62.0001 56.34Z" fill="url(#paint0_linear_528_1372)"/>
<path d="M0.100098 18V63C0.100098 76.76 10.8101 89.91 27.0401 91.45C31.6532 91.8559 36.2996 91.2621 40.6623 89.7089C45.025 88.1557 49.0014 85.6798 52.3201 82.45L39.8301 70.12C37.1987 72.7495 33.6496 74.2552 29.9301 74.32C23.0101 74.32 17.4101 68.91 17.4101 63.39V35.89" fill="url(#paint1_linear_528_1372)"/>
<path d="M46.7999 41.19L79.2899 73.77V82.77C79.2899 85.72 76.3699 88.83 72.8599 88.89C70.8599 88.89 68.7698 87.32 67.4698 86.02L34.3999 52.78L0.109863 18.28V9.28003C0.109863 6.33003 3.02986 3.22003 6.53986 3.16003C8.53986 3.16003 10.6299 4.73003 11.9299 6.03003L46.7999 41.19Z" fill="url(#paint2_linear_528_1372)"/>
<defs>
<linearGradient id="paint0_linear_528_1372" x1="34.9601" y1="-0.509992" x2="92.5901" y2="60.34" gradientUnits="userSpaceOnUse">
<stop offset="0.06" stop-color="#B6D7FE"/>
<stop offset="0.12" stop-color="#A6D4FC"/>
<stop offset="0.26" stop-color="#88CEF8"/>
<stop offset="0.38" stop-color="#76CAF6"/>
<stop offset="0.47" stop-color="#70C9F5"/>
<stop offset="0.73" stop-color="#18A0EC"/>
</linearGradient>
<linearGradient id="paint1_linear_528_1372" x1="5.3201" y1="25.88" x2="39.5801" y2="107.2" gradientUnits="userSpaceOnUse">
<stop offset="0.01" stop-color="#8537FF"/>
<stop offset="0.49" stop-color="#D095FE"/>
<stop offset="0.72" stop-color="#E9ADFF"/>
<stop offset="0.85" stop-color="#F8BCFF"/>
</linearGradient>
<linearGradient id="paint2_linear_528_1372" x1="82.3799" y1="87.71" x2="1.90985" y2="9.16004" gradientUnits="userSpaceOnUse">
<stop stop-color="#35D7FD"/>
<stop offset="0.68" stop-color="#9A68FE"/>
<stop offset="1" stop-color="#B45DFF"/>
</linearGradient>
</defs>
</svg>
