<svg width="128" height="128" viewBox="0 0 128 128" fill="none" xmlns="http://www.w3.org/2000/svg">
<circle cx="64" cy="64" r="64" fill="black"/>
<path d="M75.9383 89.7719V104.368C68.2568 101.796 59.9462 101.796 52.2646 104.368V32.165H66.0572C68.6796 32.165 71.1948 33.2065 73.0498 35.0604C74.9047 36.9143 75.9476 39.4289 75.949 42.0514V48.8244L75.9383 89.7719Z" fill="white"/>
<path d="M75.9607 59.3659V104.367C68.2792 101.794 59.9686 101.794 52.2869 104.367V93.866C52.288 86.3977 54.5474 79.1044 58.7688 72.9434C62.99 66.7826 68.9756 62.0424 75.9398 59.345L75.9607 59.3659Z" fill="#4F82F6"/>
<path d="M90.7612 32.1651C89.4623 32.163 88.176 32.4173 86.9755 32.9134C85.7751 33.4095 84.6845 34.1377 83.7658 35.0561C82.8475 35.9746 82.1195 37.0653 81.6233 38.2657C81.1271 39.4661 80.8729 40.7526 80.875 42.0515V106.436C87.8436 103.742 93.8341 99.0027 98.0585 92.8405C102.283 86.6781 104.544 79.3815 104.544 71.9102V32.1651H90.7612Z" fill="white"/>
<path d="M47.3721 48.8244V32.165H23.7036V77.2024L47.3721 106.431V89.7719H47.3565V48.8244H47.3721Z" fill="white"/>
</svg>