<svg xmlns="http://www.w3.org/2000/svg" viewBox="0 0 38 38"><defs><style>.cls-1{fill:none;stroke:#ff595a;stroke-linecap:round;stroke-linejoin:round;stroke-width:2px;}.cls-2{fill:#ff595a;}</style></defs><title>icon-help</title><g id="Layer_2" data-name="Layer 2"><g id="Layer_1-2" data-name="Layer 1"><circle class="cls-1" cx="19" cy="19" r="18"/><path class="cls-2" d="M17.63,21.29c0-1.84,1.15-2.47,3-3.43,1.57-.81,2.5-1.43,2.5-3,0-2-1.43-3.3-4.08-3.3-2.18,0-3.85.93-4.16,3.77H12.7c.33-4,3-5.78,6.42-5.78,3.64,0,6.19,2,6.19,5.26,0,2.54-1.56,3.56-3.49,4.57-1.2.63-2.08,1.12-2.08,2.32v1H17.63Zm-.44,5.54a1.54,1.54,0,1,1,1.54,1.46A1.45,1.45,0,0,1,17.19,26.83Z"/></g></g></svg>