<svg xmlns="http://www.w3.org/2000/svg" viewBox="0 0 36 35.11"><defs><style>.cls-1{fill:#999;fill-rule:evenodd;}</style></defs><title>icon-issues</title><g id="Layer_2" data-name="Layer 2"><g id="Layer_1-2" data-name="Layer 1"><path class="cls-1" d="M18,0a18,18,0,0,0-5.69,35.08c.9.17,1.23-.39,1.23-.87s0-1.56,0-3.06c-5,1.09-6.06-2.41-6.06-2.41a4.75,4.75,0,0,0-2-2.63C3.82,25,5.58,25,5.58,25a3.78,3.78,0,0,1,2.75,1.86,3.83,3.83,0,0,0,5.24,1.49A3.89,3.89,0,0,1,14.71,26c-4-.46-8.19-2-8.19-8.9a7,7,0,0,1,1.85-4.83,6.48,6.48,0,0,1,.17-4.76s1.52-.49,5,1.84a17,17,0,0,1,9,0C25.94,7,27.45,7.47,27.45,7.47a6.45,6.45,0,0,1,.18,4.76,6.91,6.91,0,0,1,1.85,4.83c0,6.91-4.21,8.44-8.22,8.88a4.3,4.3,0,0,1,1.23,3.33c0,2.41,0,4.35,0,4.94s.33,1,1.24.87A18,18,0,0,0,18,0Z"/></g></g></svg>