<svg xmlns="http://www.w3.org/2000/svg" viewBox="0 0 38 38"><defs><style>.cls-1{fill:none;stroke:#8dd4bd;stroke-linecap:round;stroke-linejoin:round;stroke-width:2px;}</style></defs><title>icon-contacts</title><g id="Layer_2" data-name="Layer 2"><g id="Layer_1-2" data-name="Layer 1"><path class="cls-1" d="M1,6A5,5,0,0,1,6,1H32a5,5,0,0,1,5,5V32a5,5,0,0,1-5,5H6a5,5,0,0,1-5-5"/><line class="cls-1" x1="1" y1="10" x2="10" y2="10"/><line class="cls-1" x1="1" y1="19" x2="10" y2="19"/><circle class="cls-1" cx="23.5" cy="14.5" r="4.5"/><path class="cls-1" d="M1,28H15l2.17-4.89A6.92,6.92,0,0,1,23.5,19h0a6.92,6.92,0,0,1,6.33,4.11L32,28"/></g></g></svg>