<svg xmlns="http://www.w3.org/2000/svg" viewBox="0 0 38 38"><defs><style>.cls-1{fill:none;stroke-linecap:round;stroke-linejoin:round;stroke-width:2px;}.cls-1,.cls-2{stroke:#8dd4bd;}.cls-2{fill:#8dd4bd;stroke-miterlimit:10;}</style></defs><title>icon-send</title><g id="Layer_2" data-name="Layer 2"><g id="Layer_1-2" data-name="Layer 1"><line class="cls-1" x1="19" y1="10" x2="1" y2="10"/><line class="cls-1" x1="19" y1="28" x2="1" y2="28"/><polyline class="cls-1" points="19 1 37 19 19 37"/><path class="cls-2" d="M2.5,20.5a1.36,1.36,0,0,1-.29,0l-.28-.08-.26-.14a2.11,2.11,0,0,1-.23-.19,2.11,2.11,0,0,1-.19-.23,1.26,1.26,0,0,1-.13-.26A1.31,1.31,0,0,1,1,19.29a1.42,1.42,0,0,1,0-.58,1.31,1.31,0,0,1,.09-.28,1.26,1.26,0,0,1,.13-.26,2.11,2.11,0,0,1,.19-.23,2.11,2.11,0,0,1,.23-.19l.26-.14.28-.08a1.42,1.42,0,0,1,.58,0l.28.08.26.14a2.11,2.11,0,0,1,.23.19,2.11,2.11,0,0,1,.19.23,2.15,2.15,0,0,1,.14.26,2.29,2.29,0,0,1,.08.28,1.42,1.42,0,0,1,0,.58,2.29,2.29,0,0,1-.08.28,2.15,2.15,0,0,1-.14.26,2.11,2.11,0,0,1-.19.23A1.52,1.52,0,0,1,2.5,20.5Z"/><path class="cls-2" d="M14.5,20.5a1.52,1.52,0,0,1-1.06-.44,2.11,2.11,0,0,1-.19-.23,1.26,1.26,0,0,1-.13-.26,1.31,1.31,0,0,1-.09-.28,1.42,1.42,0,0,1,0-.58,1.31,1.31,0,0,1,.09-.28,1.26,1.26,0,0,1,.13-.26,1.57,1.57,0,0,1,.42-.42l.26-.14.28-.08a1.42,1.42,0,0,1,.58,0l.28.08.26.14a1.57,1.57,0,0,1,.42.42,1.26,1.26,0,0,1,.13.26,1.31,1.31,0,0,1,.09.28,1.42,1.42,0,0,1,0,.58,1.31,1.31,0,0,1-.09.28,1.26,1.26,0,0,1-.13.26,2.11,2.11,0,0,1-.19.23A1.52,1.52,0,0,1,14.5,20.5Z"/><path class="cls-2" d="M26.5,20.5a1.52,1.52,0,0,1-1.06-.44,2.11,2.11,0,0,1-.19-.23,2.15,2.15,0,0,1-.14-.26,2.29,2.29,0,0,1-.08-.28,1.42,1.42,0,0,1,0-.58,2.29,2.29,0,0,1,.08-.28,2.15,2.15,0,0,1,.14-.26,1.57,1.57,0,0,1,.42-.42l.26-.14.28-.08a1.42,1.42,0,0,1,.58,0l.28.08.26.14a1.57,1.57,0,0,1,.42.42,1.26,1.26,0,0,1,.13.26,1.31,1.31,0,0,1,.09.28,1.42,1.42,0,0,1,0,.58,1.31,1.31,0,0,1-.09.28,1.26,1.26,0,0,1-.13.26,1.57,1.57,0,0,1-.42.42l-.26.14-.28.08A1.36,1.36,0,0,1,26.5,20.5Z"/></g></g></svg>