<svg width="200" height="200" viewBox="0 0 200 200" fill="none" xmlns="http://www.w3.org/2000/svg">
<rect width="200" height="200" fill="#FAFAFA"/>
<path d="M108.312 76.0009C108.312 75.9383 108.312 75.9383 108.312 76.0009C108.188 75.8758 108.125 75.7507 108 75.6256L107.938 75.563C107.875 75.5004 107.75 75.4379 107.625 75.3753C107.562 75.3753 107.562 75.3128 107.5 75.3128C107.375 75.2502 107.312 75.2502 107.188 75.1877C107.125 75.1877 107.125 75.1877 107.062 75.1251C106.938 75.0626 106.75 75.0626 106.562 75.0626C106.438 75.0626 106.25 75.0626 106.125 75.1251C106.062 75.1251 106.062 75.1251 106 75.1877C105.875 75.1877 105.812 75.2502 105.688 75.3128C105.688 75.3128 105.688 75.3128 105.625 75.3128C105.375 75.4379 105.188 75.563 105 75.7507L101.625 81.2556L105.625 79.0036V88.5121L95 75.7507C94.625 75.3128 94.0625 75 93.4375 75H93C91.875 75 91 75.8758 91 77.0018V90.5138C91 90.8892 91.125 91.202 91.25 91.4522C91.25 91.5147 91.3125 91.5147 91.3125 91.5773C91.3125 91.5773 91.3125 91.6399 91.375 91.6399C91.4375 91.7024 91.5 91.8275 91.5625 91.8901C91.5625 91.8901 91.625 91.8901 91.625 91.9526C91.6875 92.0152 91.75 92.0777 91.8125 92.1403L91.875 92.2029C92 92.2654 92.0625 92.328 92.1875 92.3905C92.1875 92.3905 92.1875 92.3905 92.25 92.3905C92.375 92.4531 92.4375 92.4531 92.5625 92.4531H92.625C92.75 92.4531 92.875 92.5156 93 92.5156C93.125 92.5156 93.3125 92.5156 93.4375 92.4531C93.5 92.4531 93.5 92.4531 93.5625 92.3905C93.6875 92.3905 93.75 92.328 93.875 92.2654C93.875 92.2654 93.875 92.2654 93.9375 92.2654C94.1875 92.1403 94.375 92.0152 94.5625 91.8275L98.4375 86.4477L94 88.387V79.0036L104.625 91.765C105 92.2029 105.562 92.5156 106.188 92.5156H106.625C107.75 92.5156 108.625 91.6399 108.625 90.5138V77.0018C108.625 76.6265 108.5 76.2511 108.312 76.0009Z" fill="#ABABAB"/>
<path d="M101.688 113.677C101.062 113.677 100.5 113.177 100.438 112.551C100.375 111.863 100.875 111.238 101.562 111.175C101.75 111.175 101.938 111.113 102.188 111.113C102.875 111.05 103.5 111.551 103.562 112.239C103.625 112.927 103.125 113.552 102.438 113.615C102.25 113.615 102 113.677 101.812 113.677C101.75 113.677 101.688 113.677 101.688 113.677ZM95.4375 113.49C95.375 113.49 95.3125 113.49 95.25 113.49C95.0625 113.49 94.8125 113.427 94.625 113.365C93.9375 113.24 93.5 112.614 93.5625 111.926C93.6875 111.238 94.3125 110.8 95 110.862C95.1875 110.925 95.375 110.925 95.5625 110.925C96.25 111.05 96.75 111.676 96.625 112.364C96.5625 113.052 96.0625 113.49 95.4375 113.49ZM108.375 112.301C107.875 112.301 107.375 111.988 107.188 111.425C106.938 110.8 107.312 110.049 108 109.861C108.188 109.799 108.375 109.736 108.562 109.674C109.188 109.424 109.938 109.799 110.188 110.424C110.438 111.05 110.062 111.801 109.438 112.051C109.25 112.113 109 112.176 108.812 112.239C108.688 112.239 108.5 112.301 108.375 112.301ZM88.8125 111.738C88.6875 111.738 88.5 111.738 88.375 111.676C88.1875 111.613 88 111.488 87.75 111.425C87.125 111.175 86.8125 110.425 87.125 109.799C87.375 109.173 88.125 108.861 88.75 109.173C88.9375 109.236 89.125 109.298 89.3125 109.424C89.9375 109.674 90.25 110.424 90 111.05C89.75 111.425 89.3125 111.738 88.8125 111.738ZM114.562 109.299C114.125 109.299 113.75 109.111 113.5 108.736C113.125 108.173 113.312 107.359 113.875 106.984C114.062 106.859 114.188 106.796 114.375 106.671C114.938 106.296 115.75 106.421 116.125 106.984C116.5 107.547 116.375 108.36 115.812 108.736C115.625 108.861 115.438 108.986 115.25 109.111C115 109.236 114.812 109.299 114.562 109.299ZM82.8125 108.423C82.5625 108.423 82.3125 108.36 82.0625 108.173C81.875 108.047 81.6875 107.922 81.5625 107.797C81 107.359 80.9375 106.609 81.3125 106.046C81.75 105.483 82.5 105.42 83.0625 105.795C83.25 105.92 83.375 106.046 83.5625 106.171C84.125 106.609 84.25 107.359 83.8125 107.922C83.5625 108.235 83.1875 108.423 82.8125 108.423ZM119.812 104.92C119.5 104.92 119.188 104.795 118.938 104.607C118.438 104.106 118.438 103.356 118.875 102.855C119 102.73 119.125 102.542 119.25 102.417C119.688 101.917 120.5 101.854 121 102.355C121.5 102.855 121.562 103.606 121.062 104.106C120.938 104.294 120.75 104.419 120.625 104.607C120.5 104.795 120.188 104.92 119.812 104.92ZM77.8125 103.731C77.4375 103.731 77.125 103.606 76.875 103.293C76.75 103.105 76.625 102.98 76.4375 102.793C76 102.23 76.0625 101.479 76.625 101.041C77.1875 100.603 77.9375 100.666 78.375 101.229C78.5 101.354 78.625 101.541 78.75 101.667C79.1875 102.167 79.125 102.98 78.625 103.418C78.375 103.606 78.0625 103.731 77.8125 103.731ZM123.875 99.4147C123.688 99.4147 123.438 99.3521 123.25 99.227C122.625 98.9142 122.438 98.101 122.75 97.538C122.875 97.3503 122.938 97.1626 123.062 97.0375C123.375 96.412 124.125 96.2243 124.75 96.5371C125.375 96.8499 125.562 97.6005 125.25 98.2261C125.125 98.4138 125.062 98.6014 124.938 98.7891C124.75 99.1644 124.312 99.4147 123.875 99.4147ZM74.0625 97.9759C73.625 97.9759 73.125 97.7256 72.9375 97.2878C72.8125 97.1001 72.75 96.9124 72.6875 96.7248C72.375 96.0992 72.6875 95.3485 73.3125 95.0357C73.9375 94.723 74.6875 95.0357 75 95.6613C75.0625 95.849 75.1875 96.0366 75.25 96.2243C75.5625 96.8499 75.3125 97.6005 74.6875 97.9133C74.4375 97.9133 74.25 97.9759 74.0625 97.9759ZM126.5 93.034C126.375 93.034 126.25 93.034 126.188 92.9714C125.5 92.7837 125.125 92.0956 125.312 91.4075C125.375 91.2198 125.438 91.0322 125.438 90.8445C125.625 90.1564 126.25 89.7811 126.938 89.9062C127.625 90.0938 128 90.7194 127.875 91.4075C127.812 91.5952 127.75 91.8454 127.688 92.0331C127.562 92.6586 127.062 93.034 126.5 93.034ZM71.8125 91.4701C71.25 91.4701 70.6875 91.0947 70.5625 90.4692C70.5 90.2815 70.5 90.0313 70.4375 89.8436C70.3125 89.1555 70.75 88.5299 71.4375 88.4048C72.125 88.2797 72.75 88.7176 72.875 89.4057C72.9375 89.5934 72.9375 89.7811 73 89.9687C73.1875 90.6568 72.75 91.2824 72.125 91.4701C72 91.4701 71.9375 91.4701 71.8125 91.4701ZM127.5 86.2154C127.438 86.2154 127.438 86.2154 127.5 86.2154C126.812 86.2154 126.25 85.6524 126.25 84.9643C126.25 84.7766 126.25 84.5889 126.25 84.3387C126.25 83.6506 126.812 83.0876 127.5 83.0876C128.188 83.0876 128.75 83.6506 128.75 84.3387C128.75 84.5264 128.75 84.7766 128.75 84.9643C128.688 85.7149 128.125 86.2154 127.5 86.2154ZM71.25 84.6515C70.5 84.6515 70 84.0259 70 83.3378C70 83.1501 70 82.8999 70 82.7122C70.0625 82.0241 70.625 81.5237 71.3125 81.5237C72 81.5862 72.5 82.1492 72.5 82.8374C72.5 83.025 72.5 83.2127 72.5 83.4629C72.5 84.0885 71.9375 84.6515 71.25 84.6515ZM127.188 81.336C126.562 81.336 126.062 80.8981 125.938 80.2726C125.938 80.0849 125.875 79.8972 125.812 79.7096C125.688 79.0214 126.125 78.3959 126.812 78.2708C127.5 78.1457 128.125 78.5836 128.25 79.2717C128.312 79.4593 128.312 79.7096 128.375 79.8972C128.5 80.5853 128 81.2109 127.312 81.336C127.312 81.336 127.25 81.336 127.188 81.336ZM72.3125 77.8329C72.1875 77.8329 72.0625 77.8329 71.9375 77.7703C71.25 77.5827 70.875 76.8945 71.0625 76.2064C71.125 76.0188 71.1875 75.7685 71.25 75.5809C71.4375 74.8928 72.125 74.58 72.8125 74.7676C73.5 74.9553 73.8125 75.6434 73.625 76.3315C73.5625 76.5192 73.5 76.7069 73.4375 76.8945C73.375 77.5201 72.875 77.8329 72.3125 77.8329ZM125.312 74.7676C124.812 74.7676 124.375 74.4549 124.188 74.017C124.125 73.8293 124.062 73.6416 123.938 73.454C123.688 72.8284 123.938 72.0777 124.562 71.8275C125.188 71.5773 125.938 71.8275 126.188 72.4531C126.25 72.6407 126.375 72.8284 126.438 73.0786C126.688 73.7042 126.375 74.4549 125.75 74.7051C125.625 74.7051 125.5 74.7676 125.312 74.7676ZM75 71.5147C74.8125 71.5147 74.5625 71.4522 74.375 71.3271C73.75 70.9517 73.5625 70.2011 73.9375 69.6381C74.0625 69.4504 74.1875 69.2627 74.25 69.0751C74.625 68.5121 75.375 68.3244 75.9375 68.6372C76.5 69.0125 76.6875 69.7632 76.375 70.3262C76.25 70.5139 76.1875 70.639 76.0625 70.8266C75.875 71.3271 75.4375 71.5147 75 71.5147ZM121.938 68.7623C121.562 68.7623 121.188 68.5746 120.938 68.2618C120.812 68.0742 120.688 67.9491 120.562 67.7614C120.125 67.1984 120.25 66.4477 120.75 66.0098C121.312 65.5719 122.062 65.6971 122.5 66.1975C122.625 66.3852 122.75 66.5728 122.875 66.6979C123.312 67.2609 123.188 68.0116 122.625 68.4495C122.438 68.6997 122.188 68.7623 121.938 68.7623ZM79.125 66.0724C78.8125 66.0724 78.5 65.9473 78.25 65.6971C77.75 65.1966 77.75 64.4459 78.25 63.9455C78.375 63.8204 78.5625 63.6327 78.6875 63.5076C79.1875 63.0071 80 63.0071 80.4375 63.5076C80.9375 64.008 80.9375 64.8213 80.4375 65.2592C80.3125 65.3843 80.125 65.5719 80 65.6971C79.8125 65.9473 79.4375 66.0724 79.125 66.0724ZM117.188 63.8204C116.938 63.8204 116.625 63.7578 116.375 63.5076C116.25 63.3825 116.062 63.2574 115.938 63.1323C115.375 62.6944 115.312 61.9437 115.75 61.3807C116.188 60.8177 116.938 60.7551 117.5 61.193C117.688 61.3181 117.812 61.4432 118 61.6309C118.562 62.0688 118.625 62.882 118.188 63.3825C117.875 63.6953 117.5 63.8204 117.188 63.8204ZM84.4375 61.756C84 61.756 83.625 61.5684 83.375 61.193C83 60.63 83.1875 59.8168 83.75 59.4415C83.9375 59.3164 84.125 59.1912 84.3125 59.1287C84.875 58.7533 85.6875 58.941 86 59.5666C86.4375 60.1296 86.25 60.8802 85.625 61.2556C85.4375 61.3807 85.3125 61.4432 85.125 61.5684C84.9375 61.6935 84.6875 61.756 84.4375 61.756ZM111.375 60.1921C111.188 60.1921 111 60.1296 110.812 60.067C110.625 60.0045 110.438 59.8794 110.25 59.8168C109.625 59.504 109.312 58.8159 109.625 58.1904C109.938 57.5648 110.625 57.252 111.25 57.5648C111.438 57.6274 111.625 57.7525 111.875 57.815C112.5 58.1278 112.75 58.8785 112.5 59.504C112.312 59.8794 111.812 60.1921 111.375 60.1921ZM90.6875 58.8159C90.1875 58.8159 89.6875 58.5031 89.5 57.9401C89.3125 57.252 89.625 56.5639 90.3125 56.3762C90.5 56.3137 90.75 56.2511 90.9375 56.1886C91.625 56.0009 92.3125 56.3762 92.5 57.0018C92.6875 57.6899 92.3125 58.378 91.6875 58.5657C91.4375 58.6282 91.25 58.6908 91.0625 58.7534C90.9375 58.8159 90.8125 58.8159 90.6875 58.8159ZM104.875 58.0027C104.812 58.0027 104.688 58.0027 104.625 58.0027C104.438 57.9401 104.25 57.9401 104.062 57.8776C103.375 57.7525 102.938 57.1269 103.062 56.4388C103.188 55.7507 103.812 55.3128 104.5 55.4379C104.688 55.5004 104.938 55.5004 105.125 55.563C105.812 55.6881 106.25 56.3762 106.125 57.0018C105.938 57.5648 105.438 58.0027 104.875 58.0027ZM97.375 57.5648C96.75 57.5648 96.1875 57.0643 96.125 56.3762C96.0625 55.6881 96.625 55.0626 97.3125 55.0626C97.5 55.0626 97.75 55.0626 97.9375 55C98.625 55 99.1875 55.5004 99.25 56.1886C99.3125 56.8767 98.75 57.4397 98.0625 57.5022C97.875 57.5022 97.6875 57.5022 97.4375 57.5648C97.4375 57.5648 97.4375 57.5648 97.375 57.5648Z" fill="#ABABAB"/>
<path d="M56.2544 139H57.7906V134.56H62.1159V133.243H57.7906V130.141H62.5683V128.818H56.2544V139ZM66.5331 139.169C67.7959 139.169 68.5068 138.528 68.7902 137.956H68.8499V139H70.3016V133.929C70.3016 131.707 68.5516 131.264 67.3385 131.264C65.9564 131.264 64.6837 131.821 64.1865 133.213L65.5835 133.531C65.8023 132.989 66.3591 132.467 67.3584 132.467C68.3179 132.467 68.8101 132.969 68.8101 133.835V133.869C68.8101 134.411 68.2533 134.401 66.8811 134.56C65.4344 134.729 63.9529 135.107 63.9529 136.842C63.9529 138.344 65.0814 139.169 66.5331 139.169ZM66.8563 137.976C66.0161 137.976 65.4095 137.598 65.4095 136.862C65.4095 136.067 66.1155 135.783 66.9756 135.669C67.4578 135.604 68.6013 135.475 68.8151 135.261V136.246C68.8151 137.151 68.0942 137.976 66.8563 137.976ZM72.2815 139H73.768V131.364H72.2815V139ZM73.0322 130.185C73.5443 130.185 73.9719 129.788 73.9719 129.3C73.9719 128.813 73.5443 128.411 73.0322 128.411C72.5152 128.411 72.0926 128.813 72.0926 129.3C72.0926 129.788 72.5152 130.185 73.0322 130.185ZM77.2544 128.818H75.7678V139H77.2544V128.818ZM82.5454 139.154C84.2108 139.154 85.3891 138.334 85.7272 137.091L84.3202 136.837C84.0518 137.558 83.4055 137.926 82.5603 137.926C81.2876 137.926 80.4324 137.101 80.3927 135.629H85.8216V135.102C85.8216 132.343 84.1711 131.264 82.441 131.264C80.3131 131.264 78.9111 132.885 78.9111 135.232C78.9111 137.603 80.2932 139.154 82.5454 139.154ZM80.3976 134.516C80.4573 133.432 81.2428 132.492 82.4509 132.492C83.6043 132.492 84.36 133.347 84.365 134.516H80.3976ZM90.3296 139.149C91.7217 139.149 92.2686 138.299 92.537 137.812H92.6613V139H94.113V128.818H92.6265V132.602H92.537C92.2686 132.129 91.7615 131.264 90.3396 131.264C88.4951 131.264 87.1379 132.721 87.1379 135.197C87.1379 137.668 88.4752 139.149 90.3296 139.149ZM90.6578 137.881C89.3303 137.881 88.6393 136.713 88.6393 135.182C88.6393 133.665 89.3154 132.527 90.6578 132.527C91.9553 132.527 92.6514 133.586 92.6514 135.182C92.6514 136.788 91.9404 137.881 90.6578 137.881ZM103.504 131.364H101.938V129.534H100.452V131.364H99.3332V132.557H100.452V137.066C100.447 138.453 101.506 139.124 102.679 139.099C103.151 139.094 103.47 139.005 103.644 138.94L103.375 137.712C103.276 137.732 103.092 137.777 102.853 137.777C102.371 137.777 101.938 137.618 101.938 136.758V132.557H103.504V131.364ZM108.283 139.154C110.436 139.154 111.843 137.578 111.843 135.217C111.843 132.84 110.436 131.264 108.283 131.264C106.131 131.264 104.724 132.84 104.724 135.217C104.724 137.578 106.131 139.154 108.283 139.154ZM108.288 137.906C106.881 137.906 106.225 136.678 106.225 135.212C106.225 133.75 106.881 132.507 108.288 132.507C109.685 132.507 110.342 133.75 110.342 135.212C110.342 136.678 109.685 137.906 108.288 137.906ZM118.694 128.818H117.207V139H118.694V128.818ZM123.91 139.154C126.063 139.154 127.47 137.578 127.47 135.217C127.47 132.84 126.063 131.264 123.91 131.264C121.758 131.264 120.351 132.84 120.351 135.217C120.351 137.578 121.758 139.154 123.91 139.154ZM123.915 137.906C122.508 137.906 121.852 136.678 121.852 135.212C121.852 133.75 122.508 132.507 123.915 132.507C125.312 132.507 125.968 133.75 125.968 135.212C125.968 136.678 125.312 137.906 123.915 137.906ZM131.351 139.169C132.614 139.169 133.325 138.528 133.609 137.956H133.668V139H135.12V133.929C135.12 131.707 133.37 131.264 132.157 131.264C130.775 131.264 129.502 131.821 129.005 133.213L130.402 133.531C130.621 132.989 131.177 132.467 132.177 132.467C133.136 132.467 133.628 132.969 133.628 133.835V133.869C133.628 134.411 133.072 134.401 131.699 134.56C130.253 134.729 128.771 135.107 128.771 136.842C128.771 138.344 129.9 139.169 131.351 139.169ZM131.675 137.976C130.834 137.976 130.228 137.598 130.228 136.862C130.228 136.067 130.934 135.783 131.794 135.669C132.276 135.604 133.42 135.475 133.633 135.261V136.246C133.633 137.151 132.913 137.976 131.675 137.976ZM139.959 139.149C141.351 139.149 141.897 138.299 142.166 137.812H142.29V139H143.742V128.818H142.255V132.602H142.166C141.897 132.129 141.39 131.264 139.968 131.264C138.124 131.264 136.767 132.721 136.767 135.197C136.767 137.668 138.104 139.149 139.959 139.149ZM140.287 137.881C138.959 137.881 138.268 136.713 138.268 135.182C138.268 133.665 138.944 132.527 140.287 132.527C141.584 132.527 142.28 133.586 142.28 135.182C142.28 136.788 141.569 137.881 140.287 137.881Z" fill="#B4B4B4"/>
</svg>