<svg xmlns="http://www.w3.org/2000/svg" xmlns:xlink="http://www.w3.org/1999/xlink" viewBox="0 0 81 125"><defs><style>.cls-1{isolation:isolate;}.cls-2{fill:url(#New_Gradient_Swatch_5);}.cls-3{fill:url(#New_Gradient_Swatch_5-2);}.cls-17,.cls-4,.cls-8{fill:#4a4f54;}.cls-17,.cls-4{opacity:0.1;}.cls-4{mix-blend-mode:multiply;}.cls-5{fill:url(#New_Gradient_Swatch_5-3);}.cls-16,.cls-6{fill:#d1ccbd;}.cls-7{fill:url(#New_Gradient_Swatch_6);}.cls-9{fill:url(#New_Gradient_Swatch_3);}.cls-10{fill:url(#New_Gradient_Swatch_3-2);}.cls-11{fill:#fff;}.cls-12{fill:#9fa1a5;}.cls-12,.cls-16{opacity:0.5;}.cls-13{fill:url(#New_Gradient_Swatch_3-3);}.cls-14{fill:url(#linear-gradient);}.cls-15{fill:url(#linear-gradient-2);}</style><radialGradient id="New_Gradient_Swatch_5" cx="38.19" cy="98.16" r="26.41" gradientUnits="userSpaceOnUse"><stop offset="0.01" stop-color="#f2f1ed"/><stop offset="0.96" stop-color="#d1ccbd"/></radialGradient><radialGradient id="New_Gradient_Swatch_5-2" cx="40.82" cy="114.76" r="44.69" xlink:href="#New_Gradient_Swatch_5"/><radialGradient id="New_Gradient_Swatch_5-3" cx="40.5" cy="33.24" r="34.46" xlink:href="#New_Gradient_Swatch_5"/><linearGradient id="New_Gradient_Swatch_6" x1="40.5" y1="43.85" x2="40.5" y2="13.53" gradientUnits="userSpaceOnUse"><stop offset="0" stop-color="#d1ccbd"/><stop offset="1" stop-color="#f2f1ed"/></linearGradient><linearGradient id="New_Gradient_Swatch_3" x1="27.02" y1="29.6" x2="27.02" y2="8.84" gradientUnits="userSpaceOnUse"><stop offset="0" stop-color="#4a4f54"/><stop offset="1" stop-color="#4a4f54" stop-opacity="0.5"/></linearGradient><linearGradient id="New_Gradient_Swatch_3-2" x1="53.98" y1="29.6" x2="53.98" y2="8.84" xlink:href="#New_Gradient_Swatch_3"/><linearGradient id="New_Gradient_Swatch_3-3" x1="7.66" y1="44.39" x2="7.68" y2="44.39" xlink:href="#New_Gradient_Swatch_3"/><linearGradient id="linear-gradient" x1="1.27" y1="32.75" x2="14.03" y2="32.75" gradientUnits="userSpaceOnUse"><stop offset="0" stop-color="#4a4f54" stop-opacity="0.5"/><stop offset="1" stop-color="#4a4f54"/></linearGradient><linearGradient id="linear-gradient-2" x1="2008.31" y1="32.75" x2="2021.06" y2="32.75" gradientTransform="matrix(-1, 0, 0, 1, 2088.04, 0)" xlink:href="#linear-gradient"/></defs><title>footer-nearkat</title><g class="cls-1"><g id="Layer_1" data-name="Layer 1"><path class="cls-2" d="M12.54,125.32h51.3C60.82,92.13,53.15,71,40.5,71S17,97.08,12.54,125.32Z"/><path class="cls-3" d="M70.23,114c-1.43-5.31-3-11.13-4.07-15.31a46.29,46.29,0,0,1-1.52-11.77h0c0-5.57-3.14-6.18-8.12-8.67l-.61-.3A17,17,0,0,1,46.53,62.8V58.93H34.47V62.8A17,17,0,0,1,25.09,78l-.61.3c-5,2.49-8.12,3.1-8.12,8.67,0,0-2.34,23.41-5,33.11A6.54,6.54,0,0,0,12.71,126l1.22,1.88a10,10,0,0,1,1,2l1.1,2.94.8-.45.87,1.33a10.24,10.24,0,0,1,1.2,2.6l.8,2.65,1-.61,1.91,2.95a13.41,13.41,0,0,1,2.8,8.21h0a10.3,10.3,0,0,1-.47,3.07l-.94,3h1.41l-1.19,8,1.19-1.2v8.33l12.07-12.07V134.37c0-3.62-1.95-5.86-5.08-7.72-.67-.4-1.35-.83-2-1.26l-8-5.26,3-34a15.18,15.18,0,0,1,15.09-3s6-3,15.09,3l3.65,28-10.19,8c-3.39,1.69-5.53,6.49-5.53,10.28v23.15l12.07,12.07V159l1,1.55-.63-2.39a10,10,0,0,1-.34-2.61v-2.53h.86l-.63-2.88a10.52,10.52,0,0,1-.23-2.17v-1.36a14,14,0,0,1,2.8-8.41l2.87-5,1.06.76,1.54-4.82a10.18,10.18,0,0,1,.87-2l.89-1.54,1,.58.63-2.61a10.31,10.31,0,0,1,1.08-2.7l.58-1A6.54,6.54,0,0,0,70.23,114Z"/><path class="cls-4" d="M34.47,62.11V58.93H46.53V62.8A17,17,0,0,0,52,75.24,31.6,31.6,0,0,1,34.47,62.11Z"/><path class="cls-5" d="M40.5,62.15s-1-4.37-9.41-2.54-11-1.26-11-1.26l-.32,1.26c-6.23-1.85-8.1-6.48-8.1-6.48l-1.06.79a14,14,0,0,1-3-9.63c-3.78-1.75-6.49-7-6.4-13.26.1-7.59,4.31-13.69,9.4-13.62a6,6,0,0,1,1.34.16A2.5,2.5,0,0,0,14.91,16a16.19,16.19,0,0,1,6.45-7.56l-.68-.66A14.23,14.23,0,0,1,31.62,5.3l-.17-1c7.77,0,9.05,4.15,9.05,4.15s1.28-4.15,9-4.15l-.17,1A14.23,14.23,0,0,1,60.32,7.82l-.68.66A16.19,16.19,0,0,1,66.09,16,2.5,2.5,0,0,0,69,17.57a6,6,0,0,1,1.34-.16c5.09-.07,9.3,6,9.4,13.62.09,6.22-2.62,11.51-6.4,13.26a14,14,0,0,1-3,9.63l-1.06-.79s-1.87,4.63-8.1,6.48l-.32-1.26s-2.55,3.09-11,1.26S40.5,62.15,40.5,62.15Z"/><path class="cls-6" d="M54.08,32.14,40.5,30.91,26.92,32.14s-10.29,7.41-2.87,13.72,16.07,5.2,16.45,10.06c.38-4.86,9-3.75,16.45-10.06S54.08,32.14,54.08,32.14Z"/><path class="cls-7" d="M48.2,26.42c-6.53-3.92-7.7-12.89-7.7-12.89s-1.17,9-7.7,12.89S26,34.79,26,34.79c0,5,6.48,9.06,14.48,9.06S55,39.79,55,34.79C55,34.79,54.74,30.34,48.2,26.42Z"/><path class="cls-8" d="M25.41,40.83c1.24.4,2.48.74,3.73,1,.62.15,1.25.28,1.88.39l.94.18.95.15c1.26.18,2.52.36,3.79.44s2.54.16,3.81.16c.63,0,1.27,0,1.9,0s1.27,0,1.91-.11c1.27-.07,2.53-.26,3.79-.42a45.71,45.71,0,0,0,7.48-1.79,20.45,20.45,0,0,1-3.53,1.69,31.8,31.8,0,0,1-3.75,1.13c-.64.13-1.28.29-1.93.38l-1,.15-1,.12c-.32.05-.65.07-1,.09l-1,.07c-.65,0-1.31,0-2,0a35.81,35.81,0,0,1-7.79-.91A30.68,30.68,0,0,1,29,42.47,21.86,21.86,0,0,1,25.41,40.83Z"/><path class="cls-9" d="M32.34,8.85h-.19A16.6,16.6,0,0,0,16.89,29.6,26,26,0,0,0,25,27.38,5.86,5.86,0,1,1,33,21.74a31.33,31.33,0,0,0,3.91-4.95A5.16,5.16,0,0,0,32.34,8.85Z"/><path class="cls-10" d="M64.62,24.62A16.65,16.65,0,0,0,48.85,8.86h-.19a5.16,5.16,0,0,0-4.52,7.94,31.33,31.33,0,0,0,3.91,4.95A5.87,5.87,0,1,1,56,27.38a26,26,0,0,0,8.14,2.22A16.71,16.71,0,0,0,64.62,24.62Z"/><path class="cls-8" d="M56.93,20.55A1.5,1.5,0,0,1,56,17.87a4.57,4.57,0,1,0,2,2.18A1.47,1.47,0,0,1,56.93,20.55Z"/><circle class="cls-11" cx="56.93" cy="19.04" r="1.51"/><circle class="cls-11" cx="29.94" cy="19.04" r="1.51"/><path class="cls-12" d="M19.38,5.47a10,10,0,0,1,3.09-2.73c.31-.17.61-.34.92-.49s.64-.29,1-.42.67-.22,1-.33.69-.17,1-.25a11.75,11.75,0,0,1,4.18-.11,11.62,11.62,0,0,1,2,.47,6.66,6.66,0,0,1,1,.39c.32.14.62.29.93.45-.35,0-.69-.06-1-.09a8.47,8.47,0,0,0-1-.1c-.66,0-1.31-.1-2-.07a18.25,18.25,0,0,0-3.84.37c-.31.07-.63.12-.94.21L24.77,3l-.92.31-.91.35A24.71,24.71,0,0,0,19.38,5.47Z"/><path class="cls-12" d="M46.53,2.45c.31-.16.61-.31.93-.45a6.66,6.66,0,0,1,1-.39,12.61,12.61,0,0,1,2-.47,11.75,11.75,0,0,1,4.18.11c.34.08.69.14,1,.24l1,.33,1,.42c.31.15.62.33.92.5a10,10,0,0,1,3.09,2.73,25.78,25.78,0,0,0-3.56-1.79l-.91-.35c-.31-.09-.61-.2-.92-.3l-.93-.26c-.31-.09-.63-.13-.94-.21a18.25,18.25,0,0,0-3.84-.37,16.22,16.22,0,0,0-2,.07,8.47,8.47,0,0,0-1,.1C47.22,2.39,46.88,2.43,46.53,2.45Z"/><path class="cls-8" d="M31.11,20a1.5,1.5,0,1,1-2.18-2.06A4.55,4.55,0,1,0,31.11,20Z"/><path class="cls-13" d="M7.68,44.29s0,.07,0,.19A1.11,1.11,0,0,0,7.68,44.29Z"/><path class="cls-14" d="M13.57,22.5c-1.59-.85-10-4.77-12.24,7.28,0,.41-.05.82-.05,1.25-.09,6.22,2.62,11.51,6.4,13.26C8.2,34.19,14,29.6,14,29.6A22.44,22.44,0,0,1,13.57,22.5Z"/><path class="cls-15" d="M67.43,22.5c1.59-.85,10-4.77,12.24,7.28,0,.41,0,.82,0,1.25.09,6.22-2.62,11.51-6.4,13.26C72.8,34.19,67,29.6,67,29.6A22.44,22.44,0,0,0,67.43,22.5Z"/><path class="cls-8" d="M47.58,32A3.55,3.55,0,0,0,43.5,28.8a20.56,20.56,0,0,1-6,0A3.55,3.55,0,0,0,33.42,32a2.62,2.62,0,0,0,0,.28c0,2.94,3.17,5.32,7.09,5.32s7.09-2.38,7.09-5.32A2.62,2.62,0,0,0,47.58,32Z"/><path class="cls-16" d="M37.46,33.92a1.18,1.18,0,0,1-1-1.09,1.86,1.86,0,0,0,0,.34c0,.78.48,1.42,1.07,1.42s1.06-.64,1.06-1.42a1.87,1.87,0,0,0,0-.34A1.18,1.18,0,0,1,37.46,33.92Zm7.15-1.09a1,1,0,1,1-2.06,0,1.86,1.86,0,0,0,0,.34c0,.78.48,1.42,1.07,1.42s1.06-.64,1.06-1.42A1.87,1.87,0,0,0,44.61,32.83Z"/><path class="cls-17" d="M40.5,77.88c.21,3.7.32,7.41.39,11.11,0,1.85.06,3.7.08,5.55l0,5.55,0,5.55c0,1.85,0,3.7-.09,5.56-.07,3.7-.18,7.4-.39,11.1-.21-3.7-.32-7.4-.39-11.1,0-1.86-.06-3.71-.09-5.56l0-5.55,0-5.55c0-1.85,0-3.7.08-5.55C40.18,85.29,40.29,81.58,40.5,77.88Z"/></g></g></svg>