<svg width="76" height="76" viewBox="0 0 76 76" fill="none" xmlns="http://www.w3.org/2000/svg">
<path d="M33.0144 26.4556L32.6458 26.0846C32.3667 25.8059 31.8873 26.0033 31.8873 26.3985V31.6974C31.8873 31.9421 32.0881 32.1412 32.3334 32.1412H37.6337C38.0289 32.1412 38.2278 31.6626 37.9468 31.3843C37.7735 31.211 37.7735 30.9304 37.9468 30.7575L43.5842 25.1028C43.7578 24.9305 43.7578 24.65 43.5842 24.476L43.0706 23.9642C42.7915 23.6855 42.9904 23.2068 43.3845 23.2068H48.6815C48.9264 23.2068 49.1269 23.4056 49.1269 23.6506V28.9491C49.1269 29.3443 48.6465 29.5421 48.3669 29.263L48.0098 28.9061C47.8354 28.7279 47.5549 28.7279 47.3842 28.9061L37.8796 38.4061C37.7071 38.579 37.427 38.579 37.2522 38.4061L25.624 26.7778C25.4492 26.603 25.4492 26.3221 25.624 26.1484L41.7213 10.0518C41.8942 9.87848 41.8942 9.59576 41.7213 9.42324L37.9362 5.63844C37.7629 5.46592 37.4823 5.46592 37.3083 5.63844L16.4691 26.4784C16.2965 26.6517 16.2965 26.9344 16.4691 27.1069L37.3061 47.9438C37.4794 48.1161 37.7623 48.1161 37.9348 47.9438L58.7708 27.1069C58.943 26.9336 58.943 26.6524 58.7708 26.4798L46.5122 14.221C46.3407 14.0484 46.0587 14.0484 45.885 14.221L33.6452 26.4558C33.4704 26.6306 33.1892 26.6306 33.0144 26.4558V26.4556Z" fill="#DE5959"/>
<path d="M49.1515 61.9875C48.8323 61.9875 48.557 62.1018 48.3262 62.3318C48.0983 62.5619 47.9819 62.8336 47.9819 63.1483C47.9819 63.6278 48.2252 64.001 48.7084 64.2675C49.2384 64.4122 49.6644 64.318 49.985 63.99C50.2174 63.7584 50.3308 63.4808 50.3308 63.1572C50.3308 62.8306 50.2174 62.5576 49.985 62.3319C49.755 62.1041 49.4789 61.9906 49.1508 61.9906V61.9876H49.1515V61.9875ZM30.3393 53.0887H29.4668C29.0898 53.0887 28.7828 53.3922 28.7828 53.77V54.2569C27.8556 53.2913 26.8037 52.8081 25.6289 52.8081C24.2737 52.8081 23.1422 53.3127 22.2393 54.3192C21.3346 55.3256 20.8849 56.5844 20.8849 58.0939C20.8849 59.6295 21.3354 60.9143 22.2375 61.9414C23.1497 62.9484 24.2997 63.451 25.6928 63.451C26.7945 63.451 27.8251 63.0012 28.7837 62.1039V63.0665C28.7837 63.534 29.1637 63.914 29.6301 63.914H31.1197V53.8688C31.1195 53.439 30.7699 53.0887 30.3392 53.0887H30.3393ZM28.1337 60.4816C27.6017 61.0747 26.9069 61.3708 26.0437 61.3708C25.2366 61.3708 24.5672 61.0658 24.0373 60.4512C23.5204 59.8463 23.2621 59.0582 23.2621 58.0926C23.2621 57.1901 23.5281 56.4301 24.0579 55.8171C24.5952 55.2099 25.2642 54.9086 26.0643 54.9086C26.9126 54.9086 27.601 55.2085 28.1316 55.8112C28.6634 56.4242 28.9295 57.202 28.9295 58.1462C28.9295 59.0908 28.6635 59.8695 28.1316 60.4832H28.1339V60.4816H28.1337ZM20.8833 54.7891V53.7938C20.8833 53.4034 20.5687 53.0902 20.1797 53.0902H19.2598C18.8724 53.0902 18.557 53.4019 18.557 53.7923V54.2257C17.7157 53.2816 16.6608 52.8081 15.3923 52.8081C13.9445 52.8081 12.7779 53.3551 11.8962 54.4425C11.0754 55.4681 10.6653 56.7165 10.6653 58.1861C10.6653 59.695 11.1072 60.9552 11.9905 61.9608C12.8662 62.9561 13.9895 63.4497 15.3619 63.4497C16.5671 63.4497 17.6329 62.9792 18.5569 62.0343V63.4408C18.5569 65.5308 17.7057 66.5758 16.0033 66.5758C15.079 66.5758 14.3769 66.2611 13.8944 65.6332C13.7713 65.4744 13.6692 65.2769 13.5879 65.0388C13.4739 64.7055 13.157 64.4843 12.8067 64.4843H11.9251C11.4805 64.4843 11.1499 64.9073 11.2622 65.3378C11.5034 66.2551 11.9691 67.0003 12.6623 67.5762C13.5312 68.3005 14.6385 68.6628 15.9819 68.6628C17.5742 68.6628 18.8259 68.1388 19.7366 67.0923C20.219 66.5476 20.5419 65.896 20.7077 65.1374C20.763 64.8643 20.8065 64.5429 20.8369 64.18C20.8673 63.8193 20.8825 63.4006 20.8825 62.9242V61.4604C20.2312 60.5224 19.9036 59.4008 19.9036 58.0939C19.9036 56.8092 20.2304 55.7115 20.8825 54.789H20.8833L20.8833 54.7891ZM17.9361 60.4022C17.4193 61.0487 16.717 61.3708 15.8264 61.3708C14.9369 61.3708 14.2408 61.0516 13.7364 60.4081C13.2756 59.8233 13.0447 59.0707 13.0447 58.1549C13.0447 57.2227 13.2755 56.4642 13.7364 55.8795C14.2479 55.2255 14.9433 54.8983 15.8264 54.8983C16.6533 54.8983 17.3328 55.198 17.863 55.797C18.3873 56.3827 18.6504 57.165 18.6504 58.1454C18.6504 59.062 18.4117 59.813 17.936 60.4009V60.4024L17.9361 60.4022ZM40.2266 53.0961V53.0887H35.4008V50.1333C35.4008 49.7533 35.0937 49.446 34.7129 49.446H33.7707C33.387 49.446 33.0753 49.7577 33.0753 50.1421V53.0887H32.0812V55.2581H33.0739V63.9127H34.4008C34.9541 63.9127 35.3995 63.4674 35.3995 62.9137V55.2596H37.7856C37.9741 54.8997 38.2023 54.5679 38.4736 54.2643C38.968 53.7239 39.5528 53.3351 40.2253 53.0962H40.2268L40.2266 53.0961ZM52.1001 49.446C51.6874 49.446 51.3327 49.5952 51.0358 49.8929C50.7404 50.1889 50.5904 50.5414 50.5904 50.9474C50.5904 51.3758 50.7389 51.735 51.0358 52.0341C51.3327 52.3302 51.6919 52.4779 52.112 52.4779C52.5328 52.4779 52.8875 52.3303 53.1747 52.0326C53.4716 51.7335 53.6216 51.3787 53.6216 50.9572C53.6216 50.5372 53.4731 50.1809 53.1755 49.8929C52.8771 49.5938 52.5186 49.4447 52.0986 49.4447L52.1001 49.4461V49.446ZM52.5715 54.2302H51.7275C51.2948 54.2302 50.9422 54.579 50.9422 55.0154V62.4017C51.1204 62.611 51.2057 62.8582 51.2057 63.1432C51.2057 63.4282 51.1218 63.6776 50.9422 63.8877V64.3034H52.44C52.8987 64.3034 53.2698 63.9307 53.2698 63.4719V54.925C53.2698 54.5404 52.9567 54.2288 52.5706 54.2288L52.5714 54.2303L52.5715 54.2302ZM63.5075 55.6552C62.4594 54.6295 61.1837 54.1159 59.6807 54.1159C58.1844 54.1159 56.9153 54.6251 55.8748 55.6478C54.8344 56.6661 54.3132 57.9041 54.3132 59.3587C54.3132 60.9018 54.8224 62.1865 55.8436 63.207C56.8649 64.2409 58.1311 64.7574 59.6391 64.7574C61.1621 64.7574 62.4476 64.2512 63.4963 63.2374C64.5346 62.2147 65.0571 60.9522 65.0571 59.442C65.0571 57.9449 64.5406 56.6832 63.5075 55.6553V55.6552ZM61.8613 61.799C61.3181 62.3861 60.5906 62.6763 59.6794 62.6763C58.7753 62.6763 58.0495 62.3816 57.4972 61.7871C56.9599 61.2023 56.6897 60.4037 56.6897 59.3988C56.6897 58.4622 56.9673 57.6962 57.518 57.104C58.0702 56.5102 58.7901 56.214 59.6807 56.214C60.5825 56.214 61.3105 56.5102 61.8612 57.104C62.4061 57.6888 62.6791 58.4711 62.6791 59.4493C62.6791 60.4305 62.4046 61.2119 61.8612 61.7975V61.8005V61.799H61.8613Z" fill="#DE5959"/>
<path d="M41.0935 61.3923C40.6139 60.9069 40.3461 60.2448 40.2845 59.4166H46.9538C47.2581 59.4166 47.509 59.1731 47.5134 58.8696C47.5134 57.2049 47.0859 55.909 46.2316 54.9708C45.3685 54.0261 44.1943 53.554 42.7143 53.554C41.2478 53.554 40.0678 54.0401 39.1787 55.0124C38.2959 55.9995 37.855 57.2871 37.855 58.8806C37.855 60.486 38.3111 61.7759 39.2188 62.7475C39.8542 63.4235 40.6327 63.8607 41.5567 64.064C41.9442 64.1552 42.3456 64.2036 42.7517 64.1977C44.4082 64.2319 45.8496 64.2659 47.5062 64.3001L47.5091 64.0567C47.3065 63.8363 47.2048 63.5699 47.2048 63.2611C47.2048 62.9598 47.3109 62.7008 47.5179 62.4766L47.5194 62.182C46.2132 62.1493 43.0456 62.1181 42.9195 62.1181C42.1773 62.1181 41.5672 61.8784 41.0937 61.3939V61.3923L41.0935 61.3923ZM40.7699 56.7403C40.9161 56.5115 41.0891 56.3187 41.2931 56.1569C41.4987 55.9921 41.7214 55.8703 41.9708 55.7843C42.2187 55.6982 42.4844 55.6551 42.7694 55.6551C44.0074 55.6551 44.7911 56.2742 45.1176 57.5151H40.4397C40.5161 57.2256 40.6259 56.9674 40.77 56.7388V56.7403H40.7699Z" fill="#DE5959"/>
</svg>
