<svg height="26" viewBox="0 0 26 26" width="26" xmlns="http://www.w3.org/2000/svg"><g fill="none" fill-rule="evenodd" stroke="#999" stroke-linecap="round" stroke-linejoin="round" transform="translate(1 1)"><path d="m18 12c0-2.42677347-1.4618531-4.61459119-3.7038994-5.5432772-2.2420463-.928686-4.82275331-.41535146-6.53874129 1.30063651-1.71598797 1.71598798-2.22932251 4.29669499-1.30063651 6.53874129.92868601 2.2420463 3.11650373 3.7038994 5.5432772 3.7038994 3.3137085 0 6-2.6862915 6-6zm-6 6h-10.38c2.14678657 3.7008261 6.10158836 5.9787377 10.38 5.9787377 4.2784116 0 8.2332134-2.2779116 10.38-5.9787377z"/><path d="m0 12.0000002c.0000001-6.62741713 5.37258307-12.00000002 12-12.00000002 6.6274169 0 11.9999999 5.37258289 12 12.00000002"/></g></svg>