<svg viewBox="0 0 38 38" xmlns="http://www.w3.org/2000/svg"><g stroke="#8dd4bd"><g fill="none" stroke-linecap="round" stroke-linejoin="round" stroke-width="3"><path d="m19 10h-18"/><path d="m19 28h-18"/><path d="m19 1 18 18-18 18"/></g><path d="m2.5 20.5a1.36 1.36 0 0 1 -.29 0l-.28-.08-.26-.14a2.11 2.11 0 0 1 -.23-.19 2.11 2.11 0 0 1 -.19-.23 1.26 1.26 0 0 1 -.13-.26 1.31 1.31 0 0 1 -.12-.31 1.42 1.42 0 0 1 0-.58 1.31 1.31 0 0 1 .09-.28 1.26 1.26 0 0 1 .13-.26 2.11 2.11 0 0 1 .19-.23 2.11 2.11 0 0 1 .23-.19l.26-.14.28-.08a1.42 1.42 0 0 1 .58 0l.28.08.26.14a2.11 2.11 0 0 1 .23.19 2.11 2.11 0 0 1 .19.23 2.15 2.15 0 0 1 .14.26 2.29 2.29 0 0 1 .08.28 1.42 1.42 0 0 1 0 .58 2.29 2.29 0 0 1 -.08.28 2.15 2.15 0 0 1 -.14.26 2.11 2.11 0 0 1 -.19.23 1.52 1.52 0 0 1 -1.03.44z" fill="#8dd4bd" stroke-miterlimit="10"/><path d="m14.5 20.5a1.52 1.52 0 0 1 -1.06-.44 2.11 2.11 0 0 1 -.19-.23 1.26 1.26 0 0 1 -.13-.26 1.31 1.31 0 0 1 -.09-.28 1.42 1.42 0 0 1 0-.58 1.31 1.31 0 0 1 .09-.28 1.26 1.26 0 0 1 .13-.26 1.57 1.57 0 0 1 .42-.42l.26-.14.28-.08a1.42 1.42 0 0 1 .58 0l.28.08.26.14a1.57 1.57 0 0 1 .42.42 1.26 1.26 0 0 1 .13.26 1.31 1.31 0 0 1 .09.28 1.42 1.42 0 0 1 0 .58 1.31 1.31 0 0 1 -.09.28 1.26 1.26 0 0 1 -.13.26 2.11 2.11 0 0 1 -.19.23 1.52 1.52 0 0 1 -1.06.44z" fill="#8dd4bd" stroke-miterlimit="10"/><path d="m26.5 20.5a1.52 1.52 0 0 1 -1.06-.44 2.11 2.11 0 0 1 -.19-.23 2.15 2.15 0 0 1 -.14-.26 2.29 2.29 0 0 1 -.08-.28 1.42 1.42 0 0 1 0-.58 2.29 2.29 0 0 1 .08-.28 2.15 2.15 0 0 1 .14-.26 1.57 1.57 0 0 1 .42-.42l.26-.14.28-.08a1.42 1.42 0 0 1 .58 0l.28.08.26.14a1.57 1.57 0 0 1 .42.42 1.26 1.26 0 0 1 .13.26 1.31 1.31 0 0 1 .09.28 1.42 1.42 0 0 1 0 .58 1.31 1.31 0 0 1 -.09.28 1.26 1.26 0 0 1 -.13.26 1.57 1.57 0 0 1 -.42.42l-.26.14-.28.08a1.36 1.36 0 0 1 -.29.03z" fill="#8dd4bd" stroke-miterlimit="10"/></g></svg>