<svg width="38" height="38" viewBox="0 0 38 38" fill="none" xmlns="http://www.w3.org/2000/svg">
    <path d="M32 37H6C3.2 37 1 34.8 1 32V6C1 3.2 3.2 1 6 1H32C34.8 1 37 3.2 37 6V32C37 34.8 34.8 37 32 37Z" stroke="#8dd4bd" stroke-width="2" stroke-miterlimit="10" stroke-linecap="round" stroke-linejoin="round"/>
    <path d="M19 23.5C21.4853 23.5 23.5 21.4853 23.5 19C23.5 16.5147 21.4853 14.5 19 14.5C16.5147 14.5 14.5 16.5147 14.5 19C14.5 21.4853 16.5147 23.5 19 23.5Z" stroke="#8dd4bd" stroke-width="2" stroke-miterlimit="10" stroke-linecap="round" stroke-linejoin="round"/>
    <path d="M33 10H37" stroke="#8dd4bd" stroke-width="2" stroke-miterlimit="10" stroke-linecap="round" stroke-linejoin="round"/>
    <path d="M33 28H37" stroke="#8dd4bd" stroke-width="2" stroke-miterlimit="10" stroke-linecap="round" stroke-linejoin="round"/>
    <path d="M18.9999 30.5999C25.4064 30.5999 30.5999 25.4064 30.5999 18.9999C30.5999 12.5934 25.4064 7.3999 18.9999 7.3999C12.5934 7.3999 7.3999 12.5934 7.3999 18.9999C7.3999 25.4064 12.5934 30.5999 18.9999 30.5999Z" stroke="#8dd4bd" stroke-width="2" stroke-miterlimit="10" stroke-linecap="round" stroke-linejoin="round"/>
    <path d="M19 7.3999V9.99991" stroke="#8dd4bd" stroke-width="2" stroke-miterlimit="10" stroke-linecap="round" stroke-linejoin="round"/>
    <path d="M19 28V30.6" stroke="#8dd4bd" stroke-width="2" stroke-miterlimit="10" stroke-linecap="round" stroke-linejoin="round"/>
    <path d="M30.6 19H28" stroke="#8dd4bd" stroke-width="2" stroke-miterlimit="10" stroke-linecap="round" stroke-linejoin="round"/>
    <path d="M9.9999 19H7.3999" stroke="#8dd4bd" stroke-width="2" stroke-miterlimit="10" stroke-linecap="round" stroke-linejoin="round"/>
    <path d="M27.1998 10.7998L26.2998 11.6998" stroke="#8dd4bd" stroke-width="2" stroke-miterlimit="10" stroke-linecap="round" stroke-linejoin="round"/>
    <path d="M11.6998 26.2998L10.7998 27.1998" stroke="#8dd4bd" stroke-width="2" stroke-miterlimit="10" stroke-linecap="round" stroke-linejoin="round"/>
    <path d="M27.1998 27.1998L26.2998 26.2998" stroke="#8dd4bd" stroke-width="2" stroke-miterlimit="10" stroke-linecap="round" stroke-linejoin="round"/>
    <path d="M11.6998 11.6998L10.7998 10.7998" stroke="#8dd4bd" stroke-width="2" stroke-miterlimit="10" stroke-linecap="round" stroke-linejoin="round"/>
</svg>