<svg height="20" viewBox="0 0 20 20" width="20" xmlns="http://www.w3.org/2000/svg"><g style="stroke:#999;fill:none;fill-rule:evenodd;stroke-linecap:round;stroke-linejoin:round;stroke-width:2" transform="translate(1 1)"><path d="m0 2.5c0-1.38071187 1.11928813-2.5 2.5-2.5h13c.6630412 0 1.298926.2633921 1.767767.73223305.4688409.46884094.732233 1.10472573.732233 1.76776695v13c0 1.3807119-1.1192881 2.5-2.5 2.5h-13c-.66304122 0-1.29892601-.2633921-1.76776695-.732233-.46884095-.468841-.73223305-1.1047258-.73223305-1.767767"/><path d="m0 4.5h4.5"/><path d="m0 9h4.5"/><circle cx="11.25" cy="6.75" r="2.25"/><path d="m0 13.4999986h7l1.085-2.4449986c.55573561-1.25066142 1.79642609-2.05622822 3.165-2.055 1.3685739-.00122822 2.6092644.80433858 3.165 2.055l1.085 2.4449986"/></g></svg>