<svg viewBox="0 0 38 38" xmlns="http://www.w3.org/2000/svg"><circle cx="19" cy="19" fill="none" r="17" stroke="#ffffff" stroke-linecap="round" stroke-linejoin="round" stroke-width="3"/><path d="m17.63 21.29c0-1.84 1.15-2.47 3-3.43 1.57-.81 2.5-1.43 2.5-3 0-2-1.43-3.3-4.08-3.3-2.18 0-3.85.93-4.16 3.77h-2.19c.33-4 3-5.78 6.42-5.78 3.64 0 6.19 2 6.19 5.26 0 2.54-1.56 3.56-3.49 4.57-1.2.63-2.08 1.12-2.08 2.32v1h-2.11zm-.44 5.54a1.54 1.54 0 1 1 1.54 1.46 1.45 1.45 0 0 1 -1.54-1.46z" fill="#ffffff"/></svg>