<svg fill="none" height="24" viewBox="0 0 24 24" width="24" xmlns="http://www.w3.org/2000/svg"><path d="m7 7 .70711-.70711c-.286-.28599-.71612-.37155-1.08979-.21677-.37368.15478-.61732.51942-.61732.92388zm0 10h-1c0 .4045.24364.7691.61732.9239.37367.1548.80379.0692 1.08979-.2168zm10-10h1c0-.40446-.2436-.7691-.6173-.92388s-.8038-.06922-1.0898.21677zm0 10-.7071.7071c.286.286.7161.3716 1.0898.2168s.6173-.5194.6173-.9239zm-3.2071-8.20711c-.3905.39053-.3905 1.02369 0 1.41421.3905.3905 1.0237.3905 1.4142 0zm-3.5858 6.41421c.3905-.3905.3905-1.0237 0-1.4142-.39052-.3905-1.02368-.3905-1.41421 0zm-4.2071-8.2071v10h2v-10zm10 0v10h2v-10zm1.7071 9.2929-9.99999-10.00001-1.41422 1.41422 10.00001 9.99999zm-2.5-6.0858 2.5-2.49999-1.4142-1.41422-2.5 2.5zm-7.49999 7.5 2.49999-2.5-1.41421-1.4142-2.5 2.5z" fill="#999"/><circle cx="12" cy="12" r="11" stroke="#999" stroke-width="2"/></svg>