<svg height="26" viewBox="0 0 26 26" width="26" xmlns="http://www.w3.org/2000/svg"><g style="stroke:#ccc;fill:none;fill-rule:evenodd;stroke-linecap:round;stroke-linejoin:round;stroke-width:2" transform="translate(1 1)"><path d="m0 3.33333333c0-1.84066666 1.49266667-3.33333333 3.33333333-3.33333333h17.33333337c1.8406666 0 3.3333333 1.49266667 3.3333333 3.33333333v17.33333337c0 1.8406666-1.4926667 3.3333333-3.3333333 3.3333333h-17.33333337c-1.84066666 0-3.33333333-1.4926667-3.33333333-3.3333333"/><path d="m0 6h6"/><path d="m0 12h6"/><path d="m18 9c0 1.6566667-1.3433333 3-3 3s-3-1.3433333-3-3c0-1.65666667 1.3433333-3 3-3s3 1.34333333 3 3z"/><path d="m0 18h6 3.33333333l1.44799997-3.2586667c.7413334-1.6673333 2.3946667-2.7413333 4.2186667-2.7413333s3.4773333 1.074 4.2186667 2.7413333l1.448 3.2586667"/></g></svg>