<svg fill="none" height="38" viewBox="0 0 38 38" width="38" xmlns="http://www.w3.org/2000/svg"><g stroke="#8dd4bd" stroke-linecap="round" stroke-linejoin="round" stroke-miterlimit="10" stroke-width="2"><path d="m32 37h-26c-2.8 0-5-2.2-5-5v-26c0-2.8 2.2-5 5-5h26c2.8 0 5 2.2 5 5v26c0 2.8-2.2 5-5 5z"/><path d="m19 23.5c2.4853 0 4.5-2.0147 4.5-4.5s-2.0147-4.5-4.5-4.5-4.5 2.0147-4.5 4.5 2.0147 4.5 4.5 4.5z"/><path d="m33 10h4"/><path d="m33 28h4"/><path d="m18.9999 30.5999c6.4065 0 11.6-5.1935 11.6-11.6s-5.1935-11.6-11.6-11.6-11.6 5.1935-11.6 11.6 5.1935 11.6 11.6 11.6z"/><path d="m19 7.3999v2.60001"/><path d="m19 28v2.6"/><path d="m30.6 19h-2.6"/><path d="m9.9999 19h-2.6"/><path d="m27.1998 10.7998-.9.9"/><path d="m11.6998 26.2998-.9.9"/><path d="m27.1998 27.1998-.9-.9"/><path d="m11.6998 11.6998-.9-.9"/></g></svg>