<svg viewBox="0 0 433 180.5" xmlns="http://www.w3.org/2000/svg" xmlns:xlink="http://www.w3.org/1999/xlink"><linearGradient id="a" gradientUnits="userSpaceOnUse" x1="40.11" x2="140.87" y1="140.87" y2="40.11"><stop offset=".21" stop-color="#4a4f54"/><stop offset=".42" stop-color="#4a4f54" stop-opacity="0"/><stop offset=".59" stop-color="#4a4f54" stop-opacity="0"/><stop offset=".81" stop-color="#4a4f54"/></linearGradient><path d="m48.84 144.5a12.32 12.32 0 0 0 9.35-4.28l84.42-97.93a12.32 12.32 0 0 0 -10.45-5.79 12.31 12.31 0 0 0 -9.31 4.24l-84.85 97.35a12.34 12.34 0 0 0 10.84 6.41z" fill="url(#a)"/><g fill="#4a4f54"><path d="m48.84 144.5a12.38 12.38 0 0 0 5.66-1.37v-81.77l65.58 78.7a12.37 12.37 0 0 0 9.49 4.44h2.59a12.35 12.35 0 0 0 12.34-12.34v-83.32a12.35 12.35 0 0 0 -12.34-12.34 12.45 12.45 0 0 0 -5.62 1.35v81.79l-65.62-78.7a12.37 12.37 0 0 0 -9.49-4.44h-2.59a12.35 12.35 0 0 0 -12.34 12.34v83.32a12.35 12.35 0 0 0 12.34 12.34z"/><path d="m225.71 64.25v52.5a.76.76 0 0 1 -.75.75h-5.51a7.49 7.49 0 0 1 -6.3-3.43l-24.78-38.3.85 19.13v21.85a.76.76 0 0 1 -.75.75h-7.22a.76.76 0 0 1 -.75-.75v-52.5a.76.76 0 0 1 .75-.75h5.43a7.52 7.52 0 0 1 6.3 3.42l24.78 38.24-.76-19.06v-21.85a.75.75 0 0 1 .75-.75h7.25a.76.76 0 0 1 .71.75z"/><path d="m299.51 117.5h-7.64a.75.75 0 0 1 -.7-1l20.23-52.28a1.14 1.14 0 0 1 1.05-.72h9.55a1.14 1.14 0 0 1 1.05.72l20.23 52.26a.75.75 0 0 1 -.7 1h-7.58a.76.76 0 0 1 -.71-.48l-16.35-43a.75.75 0 0 0 -1.41 0l-16.31 43a.76.76 0 0 1 -.71.5z"/><path d="m396.34 116.29-15.18-19.39c8.57-1.62 13.58-7.4 13.58-16.27 0-10.19-6.63-17.13-18.36-17.13h-21.17a1.12 1.12 0 0 0 -1.12 1.12 7.2 7.2 0 0 0 7.2 7.21h14.17c7.09 0 10.49 3.63 10.49 8.87s-3.32 9-10.49 9h-20.25a1.13 1.13 0 0 0 -1.12 1.13v26a.75.75 0 0 0 .75.75h7.22a.76.76 0 0 0 .75-.75v-19.46h8.33l13.17 17.19a7.51 7.51 0 0 0 6 2.94h5.48a.75.75 0 0 0 .55-1.21z"/><path d="m276.67 63.5h-33.5a1 1 0 0 0 -1 1 7.33 7.33 0 0 0 7.33 7.33h27.17a.74.74 0 0 0 .75-.75v-6.83a.75.75 0 0 0 -.75-.75zm0 45.67h-25a.76.76 0 0 1 -.75-.75v-13.54a.75.75 0 0 1 .75-.75h23.11a.75.75 0 0 0 .75-.75v-6.84a.75.75 0 0 0 -.75-.75h-31.49a1.13 1.13 0 0 0 -1.12 1.13v29.45a1.12 1.12 0 0 0 1.12 1.13h33.38a.75.75 0 0 0 .75-.75v-6.83a.74.74 0 0 0 -.75-.75z"/></g></svg>