<svg height="40" viewBox="0 0 133 40" width="133" xmlns="http://www.w3.org/2000/svg" xmlns:xlink="http://www.w3.org/1999/xlink"><linearGradient id="a" x1="23.95926%" x2="78.179935%" y1="77.046659%" y2="21.068892%"><stop offset="0" stop-color="#4a4f54"/><stop offset=".274282095" stop-color="#4a4f54" stop-opacity="0"/><stop offset=".68042652" stop-color="#4a4f54" stop-opacity="0"/><stop offset="1" stop-color="#4a4f54"/></linearGradient><g fill="none" fill-rule="evenodd" opacity=".5"><path d="m4.71192661 39.8165138c1.31799371.001612 2.57107372-.5719904 3.43119266-1.5706422l30.97981653-35.93761472c-.826399-1.32212217-2.2757145-2.12514003-3.8348624-2.12477064-1.3106303-.00151509-2.5573113.5662537-3.4165138 1.5559633l-31.13761465 35.72477066c.79598909 1.4526199 2.32157071 2.3547396 3.97798166 2.3522936z" fill="url(#a)"/><g fill="#4a4f54"><path d="m4.71192661 39.8165138c.72248139-.0000449 1.43453432-.1723969 2.07706422-.5027523v-30.00733948l24.06605507 28.88073398c.8621745 1.0321946 2.1376634 1.6289459 3.4825688 1.6293578h.9504587c2.5001499-.0020236 4.5264168-2.0282905 4.5284404-4.5284404v-30.57614679c-.0020236-2.50014988-2.0282905-4.52641678-4.5284404-4.52844037-.7168063.00106576-1.4233051.17077634-2.0623853.49541284v30.01467892l-24.08073397-28.88073396c-.86217457-1.03219459-2.13766343-1.62894597-3.48256881-1.6293578h-.95045871c-2.50014988.00202359-4.52641678 2.02829049-4.52844037 4.52844037v30.57614679c.00202359 2.5001499 2.02829049 4.5264168 4.52844037 4.5284404z"/><path d="m69.6183486 10.3669725v19.266055c-.0019764.1511788-.1240506.2732529-.2752293.2752294h-2.0220184c-.9345102.0007279-1.8053698-.4734067-2.3119266-1.2587156l-9.093578-14.0550459.3119266 7.0201835v8.0183486c-.0019764.1511788-.1240506.2732529-.2752293.2752294h-2.6495413c-.1511787-.0019765-.2732529-.1240506-.2752294-.2752294v-19.266055c.0019765-.1511788.1240507-.2732529.2752294-.2752294h1.9926605c.933286.0004964 1.8030873.4726742 2.3119266 1.2550459l9.093578 14.0330275-.2788991-6.9944954v-8.0183486c0-.152005.1232244-.2752294.2752294-.2752294h2.6605505c.1454197.009579.258948.1295033.2605504.2752294z"/><path d="m96.7009174 29.9082569h-2.8036697c-.0888878-.0008409-.1718969-.0445604-.222873-.1173834s-.0636423-.1657825-.0340077-.2495891l7.423853-19.1853211c.062715-.1582709.215084-.2627525.385321-.2642202h3.504587c.170238.0014677.322607.1059493.385322.2642202l7.423853 19.1779817c.029634.0838065.016968.1767661-.034008.2495891s-.133985.1165424-.222873.1173833h-2.781651c-.114832.0005222-.218245-.0693914-.260551-.1761468l-6-15.7798165c-.039507-.1088489-.142919-.1813281-.258715-.1813281-.115797 0-.219209.0724792-.258716.1813281l-5.9853211 15.7798165c-.0399164.1096438-.1438686.1828496-.2605505.1834863z"/><path d="m132.234862 29.4642202-5.570642-7.1155963c3.144954-.5944955 4.983486-2.7155964 4.983486-5.9706422 0-3.7394496-2.433027-6.2862386-6.737614-6.2862386h-7.768808c-.226994 0-.411009.1840151-.411009.4110092-.000974.7013911.27697 1.3743886.772585 1.8706916.495614.4963029 1.168225.7751806 1.869617.77518h5.2c2.601835 0 3.849541 1.33211 3.849541 3.2550458s-1.218348 3.3027523-3.849541 3.3027523h-7.431193c-.227586.0020141-.411018.1870836-.411009.4146789v9.5412844c0 .152005.123225.2752294.27523.2752294h2.649541c.151179-.0019765.273253-.1240506.275229-.2752294v-7.1412844h3.056881l4.833027 6.3082569c.524735.6843004 1.339518 1.0835441 2.201835 1.0788991h2.01101c.102279-.0056648.19295-.0676629.235339-.1609175.042388-.0932546.02948-.2023345-.033505-.2831192z"/><path d="m88.3192661 10.0917431h-12.293578c-.2026733 0-.3669725.1642992-.3669725.3669725 0 1.4855953 1.2043129 2.6899083 2.6899083 2.6899083h9.9706422c.0732965.0009973.1438832-.0276796.1957165-.0795129s.0805102-.1224199.0795128-.1957165v-2.506422c0-.152005-.1232244-.2752294-.2752293-.2752294zm0 16.759633h-9.174312c-.1511787-.0019764-.2732529-.1240506-.2752293-.2752293v-4.9688074c0-.1520049.1232244-.2752293.2752293-.2752293h8.480734c.152005 0 .2752293-.1232244.2752293-.2752294v-2.5100917c0-.152005-.1232243-.2752294-.2752293-.2752294h-11.5559633c-.2275865.0020142-.4110181.1870836-.4110092.4146789v10.8073395c-.000979.1096408.0418911.2151279.1190766.2930025.0771856.0778747.1822874.1216808.2919326.1216764h12.2495413c.1520049 0 .2752293-.1232244.2752293-.2752294v-2.506422c.0009974-.0732966-.0276795-.1438832-.0795128-.1957165s-.12242-.0805102-.1957165-.0795129z" fill-rule="nonzero"/></g></g></svg>