<svg fill="none" height="37" viewBox="0 0 139 37" width="139" xmlns="http://www.w3.org/2000/svg"><g fill="#000"><path d="m69.5853 8.0602v21.3241c-.0011.0804-.0335.1573-.0903.2142-.0569.0569-.1337.0893-.2141.0904h-2.216c-.5086.0004-1.0092-.1269-1.4559-.3703s-.8253-.5951-1.101-1.0229l-10.0571-15.5564.3449 7.7701v8.8749c-.001.0804-.0334.1573-.0903.2142-.0568.0569-.1337.0893-.2141.0904h-2.9303c-.0804-.0011-.1572-.0335-.214-.0904-.0569-.0569-.0893-.1338-.0903-.2142v-21.3241c.001-.08047.0334-.15734.0903-.21425.0568-.0569.1336-.08933.214-.09038h2.2039c.508.00027 1.0079.12746 1.4544.37003s.8255.59285 1.1025 1.01908l10.0571 15.53202-.3125-7.7416v-8.8749c0-.0808.0321-.15828.0892-.21541.057-.05713.1345-.08922.2152-.08922h2.9303c.0768.00608.1486.04072.2011.0971.0526.05638.0822.13041.083.20753z"/><path d="m99.5335 29.6889h-3.1008c-.0484-.0005-.0961-.0125-.1389-.0351-.0429-.0226-.0798-.0551-.1075-.0948-.0278-.0398-.0457-.0856-.0523-.1336-.0065-.0481-.0015-.097.0146-.1427l8.2144-21.23469c.035-.08891.097-.16475.177-.21711.08-.05237.174-.07868.27-.07533h3.884c.092.00079.181.02904.257.08114.076.05209.135.12566.169.2113l8.19 21.23469c.016.0457.021.0946.015.1427-.007.048-.025.0938-.053.1336-.027.0397-.064.0722-.107.0948s-.091.0346-.139.0351h-3.101c-.062.0003-.123-.0182-.174-.053s-.091-.0842-.114-.142l-6.62-17.4654c-.021-.0588-.06-.1096-.111-.1455s-.112-.0552-.175-.0552c-.062 0-.123.0193-.174.0552-.052.0359-.09.0867-.112.1455l-6.6193 17.4654c-.0231.0584-.0635.1084-.1157.1432s-.1138.0529-.1765.0518z"/><path d="m138.837 29.1974-6.161-7.8757c3.478-.658 5.511-3.0056 5.511-6.6084 0-4.1389-2.691-6.95773-7.451-6.95773h-8.592c-.121 0-.236.04792-.322.13324-.085.08531-.133.20102-.133.32167 0 .38404.076.76432.223 1.11913s.362.67719.633.94879c.271.2715.594.4869.948.6339.355.147.735.2226 1.118.2226h5.768c2.877 0 4.257 1.4744 4.257 3.6028 0 2.1283-1.347 3.6555-4.257 3.6555h-8.235c-.121.0011-.237.0499-.322.1359-.085.0859-.133.2021-.133.3231v10.5605c0 .0808.032.1583.089.2154s.135.0892.216.0892h2.93c.08-.001.157-.0335.214-.0904s.089-.1337.09-.2142v-7.9001h3.381l5.345 6.9821c.287.3737.655.6759 1.078.8831.422.2071.887.3136 1.357.3111h2.224c.056-.0031.11-.0213.155-.0527.046-.0314.083-.0748.106-.1254.023-.0507.031-.1066.025-.1619-.007-.0552-.028-.1076-.062-.1515z"/><path d="m90.2677 7.75557h-13.5962c-.1076 0-.2108.04279-.287.11896-.0761.07617-.1188.17948-.1188.28721 0 .78961.3134 1.54689.8713 2.10526.5579.5583 1.3146.872 2.1036.872h11.0271c.0402.0005.08-.007.1172-.0221.0371-.0151.0709-.0375.0993-.0659s.0508-.0622.0659-.0994.0226-.0771.022-.1172v-2.7742c0-.0808-.0321-.15828-.0891-.21541-.0571-.05713-.1345-.08922-.2153-.08922zm0 18.54993h-10.1464c-.0804-.0011-.1572-.0335-.2141-.0904-.0568-.0569-.0892-.1338-.0903-.2143v-5.4995c0-.0808.0321-.1583.0892-.2154.0571-.0572.1345-.0893.2152-.0893h9.3794c.0807 0 .1581-.0321.2152-.0892s.0892-.1346.0892-.2154v-2.7945c0-.0808-.0321-.1582-.0892-.2154-.0571-.0571-.1345-.0892-.2152-.0892h-12.7805c-.1209.0011-.2365.0499-.3216.1359-.0852.0859-.1329.2021-.1329.3231v11.9658c0 .1207.0479.2364.1331.3217.0853.0853.2009.1332.3214.1332h13.5475c.0808 0 .1582-.0321.2153-.0892.057-.0571.0891-.1346.0891-.2154v-2.7741c-.0031-.0783-.0367-.1523-.0936-.2062-.0569-.0538-.1325-.0834-.2108-.0822z"/><path d="m29.4176 2.30067-7.6383 11.34443c-.1237.1637-.181.3683-.1601.5725.0208.2043.1181.3931.2724.5284.1543.1354.354.2072.5591.2012.205-.0061.4002-.0897.5462-.2339l7.5165-6.49876c.0433-.03977.0974-.06594.1554-.07525.0581-.00932.1176-.00138.1712.02284s.0989.06365.1303.1134.0475.10763.0463.16646v20.42641c-.0006.062-.0201.1224-.0559.173s-.0862.0891-.1444.1103-.1216.0241-.1815.0083-.1136-.0495-.1539-.0966l-22.728-27.21359c-.36283-.43689-.81677-.78906-1.32997-1.031829-.51321-.242769-1.07326-.370257-1.6409-.373525h-.79142c-1.03227 0-2.02226.410385-2.75219 1.140874-.729919.73049-1.1399856 1.72125-1.1399856 2.75432v28.76515c0 1.0331.4100666 2.0238 1.1399856 2.7543.72993.7305 1.71992 1.1409 2.75219 1.1409.66512-.0001 1.31913-.1707 1.89961-.4957.58048-.3249 1.06807-.7934 1.41624-1.3605l7.63824-11.3444c.1238-.1638.181-.3683.1602-.5726-.0209-.2042-.1182-.393-.2725-.5284-.1542-.1353-.354-.2072-.559-.2011-.2051.0061-.4003.0896-.5463.2339l-7.51645 6.4987c-.04334.0398-.09739.066-.15545.0753-.05805.0093-.11757.0013-.17115-.0229-.05359-.0242-.0989-.0636-.1303-.1134-.03141-.0497-.04753-.1076-.04637-.1664v-20.40616c.00061-.06201.02013-.12237.05593-.17299s.08619-.0891.14443-.11029c.05824-.0212.12155-.0241.18148-.00831.05993.01578.11362.04949.15389.09663l22.72799 27.21352c.3656.433.8212.7809 1.3351 1.0194.5138.2385 1.0734.3619 1.6399.3616h.8117c.5111 0 1.0172-.1007 1.4894-.2965.4723-.1957.9013-.4826 1.2628-.8443.3614-.3617.6481-.7911.8437-1.2637s.2962-.9791.2962-1.4907v-28.76105c.0001-.51358-.1014-1.02209-.2985-1.49628-.1972-.47418-.486-.90467-.85-1.26669s-.796-.64843-1.271-.842743c-.4751-.194313-.9838-.292694-1.497-.289481-.6651.00008-1.3191.170739-1.8996.495692-.5805.324952-1.0681.793362-1.4162 1.360522z"/></g></svg>