<svg width="228" height="60" viewBox="0 0 228 60" fill="none" xmlns="http://www.w3.org/2000/svg">
<path fill-rule="evenodd" clip-rule="evenodd" d="M0 30C0 13.4234 13.4234 0 30 0C46.5465 0 60 13.4234 60 30C60 46.5766 46.5766 60 30 60C13.4234 60 0 46.5766 0 30ZM39.4597 39.4595L45.9459 39.4595V20.5405H39.4294V14.024H20.5105V20.5405H13.994V39.4595H20.5105V45.976H39.4294V39.4595L20.5408 39.4595V20.5405H39.4597V39.4595Z" fill="#080013"/>
<path d="M193.303 4.92491C190.811 4.92491 189.069 6.87686 189.069 9.09908C189.069 11.4114 190.811 13.1832 193.303 13.1832C195.736 13.1832 197.538 11.4414 197.538 9.09908C197.538 6.87686 195.736 4.92491 193.303 4.92491Z" fill="#080013"/>
<path d="M128.439 16.997H119.67L110.901 26.1862H108.949V5.31532H101.982V43.3634H108.949V33.0631H110.961L120.511 43.3634H129.82L115.706 29.6096L128.439 16.997Z" fill="#080013"/>
<path fill-rule="evenodd" clip-rule="evenodd" d="M83.8436 16.3364C75.9757 16.3364 69.4592 21.8919 69.4592 30.1802C69.4592 38.4685 75.9457 44.0241 83.8436 44.0241C91.5613 44.0241 98.0478 38.4685 98.0478 30.1802C98.0478 21.8919 91.5613 16.3364 83.8436 16.3364ZM83.8436 38.0781C80.0298 38.0781 76.246 35.1052 76.246 30.2103C76.246 25.2853 80.0598 22.3424 83.8436 22.3424C87.4772 22.3424 91.2911 25.3154 91.2911 30.2103C91.2911 35.1052 87.4772 38.0781 83.8436 38.0781Z" fill="#080013"/>
<path d="M148.319 27.8079C147.388 24.1142 144.895 22.5826 141.832 22.5826C137.448 22.5826 134.475 25.7058 134.475 30.1802C134.475 34.7448 137.448 37.7478 141.832 37.7478C144.895 37.7478 147.388 36.2463 148.589 32.6127L155.045 34.2643C153.574 40.3004 148.108 44.1442 141.832 44.1442C134.114 44.1442 127.718 38.4685 127.718 30.1802C127.718 21.8919 134.114 16.1862 141.832 16.1862C147.958 16.1862 153.303 20.0001 155.045 25.916L148.319 27.8079Z" fill="#080013"/>
<path fill-rule="evenodd" clip-rule="evenodd" d="M171.531 16.3364C163.663 16.3364 157.147 21.8919 157.147 30.1802C157.147 38.4685 163.633 44.0241 171.531 44.0241C179.249 44.0241 185.735 38.4685 185.735 30.1802C185.735 21.8919 179.249 16.3364 171.531 16.3364ZM171.531 38.0781C167.717 38.0781 163.933 35.1052 163.933 30.2103C163.933 25.2853 167.747 22.3424 171.531 22.3424C175.165 22.3424 178.978 25.3154 178.978 30.2103C178.978 35.1052 175.165 38.0781 171.531 38.0781Z" fill="#080013"/>
<path d="M189.82 16.997H196.787V43.3634H189.82V16.997Z" fill="#080013"/>
<path d="M209.099 19.3694C211.141 17.2974 213.904 16.1862 217.387 16.1862C223.754 16.1862 227.958 20.7508 227.958 27.2973V43.3634H220.991V28.7688C220.991 25.0751 218.859 22.5826 215.645 22.5826C211.682 22.5826 209.099 25.2253 209.099 31.6817V43.3634H202.132V16.997H209.099V19.3694Z" fill="#080013"/>
</svg>
