<svg xmlns:dc="http://purl.org/dc/elements/1.1/" xmlns:cc="http://creativecommons.org/ns#" xmlns:rdf="http://www.w3.org/1999/02/22-rdf-syntax-ns#" xmlns:svg="http://www.w3.org/2000/svg" xmlns="http://www.w3.org/2000/svg" xmlns:sodipodi="http://sodipodi.sourceforge.net/DTD/sodipodi-0.dtd" xmlns:inkscape="http://www.inkscape.org/namespaces/inkscape" viewBox="0 0 8.4666667 10.583333625" version="1.1" x="0px" y="0px"><svg:g><svg:path style="color:#000000;font-style:normal;font-variant:normal;font-weight:normal;font-stretch:normal;font-size:medium;line-height:normal;font-family:sans-serif;font-variant-ligatures:normal;font-variant-position:normal;font-variant-caps:normal;font-variant-numeric:normal;font-variant-alternates:normal;font-feature-settings:normal;text-indent:0;text-align:start;text-decoration:none;text-decoration-line:none;text-decoration-style:solid;text-decoration-color:#000000;letter-spacing:normal;word-spacing:normal;text-transform:none;writing-mode:lr-tb;direction:ltr;text-orientation:mixed;dominant-baseline:auto;baseline-shift:baseline;text-anchor:start;white-space:normal;shape-padding:0;clip-rule:nonzero;display:inline;overflow:visible;visibility:visible;opacity:1;isolation:auto;mix-blend-mode:normal;color-interpolation:sRGB;color-interpolation-filters:linearRGB;solid-color:#000000;solid-opacity:1;vector-effect:none;fill:#0072CE;fill-opacity:1;fill-rule:nonzero;stroke:none;stroke-width:0.52916664;stroke-linecap:round;stroke-linejoin:round;stroke-miterlimit:4;stroke-dasharray:none;stroke-dashoffset:0;stroke-opacity:1;color-rendering:auto;image-rendering:auto;shape-rendering:auto;text-rendering:auto;enable-background:accumulate" d="M 0.26560763,-2.6530797e-4 A 0.26460979,0.26460979 0 0 0 -7.5720235e-6,0.26535069 V 2.0993477 a 0.2646485,0.2646485 0 0 0 0.5291666620235,0 V 0.52941769 H 2.1016731 a 0.2648417,0.2648417 0 1 0 0,-0.52968299797 z m 6.10143717,0 a 0.2648417,0.2648417 0 1 0 0,0.52968299797 H 7.9374923 V 2.0993477 a 0.2646485,0.2646485 0 1 0 0.5291667,0 V 0.26535069 A 0.26460979,0.26460979 0 0 0 8.2031075,-2.6530797e-4 Z M 1.5585523,1.2926787 a 0.26460979,0.26460979 0 0 0 -0.2635488,0.265617 v 2.164209 a 0.26460979,0.26460979 0 0 0 0.2635488,0.26355 h 2.1642096 a 0.26460979,0.26460979 0 0 0 0.2635488,-0.26355 V 1.5582957 A 0.26460979,0.26460979 0 0 0 3.7227619,1.2926787 Z m 3.1874036,0 a 0.26460979,0.26460979 0 0 0 -0.2656178,0.265617 v 2.164209 a 0.26460979,0.26460979 0 0 0 0.2656178,0.26355 h 2.1621406 a 0.26460979,0.26460979 0 0 0 0.2656178,-0.26355 V 1.5582957 A 0.26460979,0.26460979 0 0 0 6.9080965,1.2926787 Z m -2.9217858,0.529683 h 1.632974 v 1.634526 h -1.632974 z m 3.1858506,0 h 1.634527 v 1.634526 h -1.634527 z m -3.4514684,2.658236 a 0.26460979,0.26460979 0 0 0 -0.2635488,0.26355 v 2.164209 a 0.26460979,0.26460979 0 0 0 0.2635488,0.265617 h 2.1642096 a 0.26460979,0.26460979 0 0 0 0.2635488,-0.265617 v -2.164209 a 0.26460979,0.26460979 0 0 0 -0.2635488,-0.26355 z m 3.1874036,0 a 0.26460984,0.26460984 0 0 0 -0.2656178,0.26355 v 1.082104 a 0.26460984,0.26460984 0 0 0 0.2656178,0.265617 h 0.8164857 v 0.816488 a 0.26460984,0.26460984 0 0 0 0.2656178,0.265617 H 6.9080965 A 0.26460984,0.26460984 0 0 0 7.1737143,6.9083567 V 5.8262517 A 0.26460984,0.26460984 0 0 0 6.9080965,5.5621857 H 6.0921268 v -0.818038 a 0.26460984,0.26460984 0 0 0 -0.2640674,-0.26355 z m -2.9217858,0.529166 h 1.632974 v 1.634526 h -1.632974 z m 3.1858506,0 h 0.5524209 v 0.552422 H 5.0100207 Z m 1.0821061,1.082105 h 0.5524209 v 0.552421 H 6.0921268 Z m -5.83013602,0.0057 A 0.26460979,0.26460979 0 0 0 -7.5720235e-6,6.3673047 v 1.835546 A 0.26460979,0.26460979 0 0 0 0.26560763,8.4669177 H 2.1016731 a 0.2648417,0.2648417 0 1 0 0,-0.529683 H 0.52915909 v -1.56993 A 0.26460979,0.26460979 0 0 0 0.26199078,6.0975527 Z m 7.93749992,0 a 0.26460979,0.26460979 0 0 0 -0.2619984,0.269752 v 1.56993 H 6.3670448 a 0.2648417,0.2648417 0 1 0 0,0.529683 H 8.2031075 A 0.26460979,0.26460979 0 0 0 8.466659,8.2028507 V 6.3673047 A 0.26460979,0.26460979 0 0 0 8.1994907,6.0975527 Z"/></svg:g></svg>