<svg fill="none" height="108" viewBox="0 0 396 108" width="396" xmlns="http://www.w3.org/2000/svg" xmlns:xlink="http://www.w3.org/1999/xlink"><linearGradient id="a" gradientUnits="userSpaceOnUse" x1="3.6066" x2="104.373" y1="104.374" y2="3.60731"><stop offset=".2111" stop-color="#fff"/><stop offset=".4152" stop-color="#fff" stop-opacity="0"/><stop offset=".5884" stop-color="#fff" stop-opacity="0"/><stop offset=".806" stop-color="#fff"/></linearGradient><path d="m380.5 0h-263.5c2.9 3.4 4.5 7.79999 4.5 12.4v83.3c0 4.6-1.6 8.9-4.5 12.3h263.5c8.3 0 15-6.7 15-15v-78c0-8.3-6.7-15-15-15z" fill="#fff" opacity=".1"/><path d="m12.3 108c3.6 0 7-1.6 9.3-4.3l84.4-97.9c-2.2-3.5-6-5.8-10.5-5.8-3.6 0-7 1.5-9.3 4.2l-84.7 97.4c2.1 3.8 6.2 6.4 10.8 6.4z" fill="url(#a)"/><g fill="#fff"><path d="m12.3 108c2 0 3.9-.5 5.7-1.4v-81.8l65.6 78.7c2.3 2.8 5.8 4.4 9.5 4.4h2.6c6.8 0 12.3-5.5 12.3-12.3v-83.3c0-6.8-5.5-12.3-12.3-12.3-2 0-3.9.499994-5.6 1.39999v81.80001l-65.6-78.7c-2.3-2.8-5.8-4.399994-9.5-4.399994h-2.6c-6.9-.0999999-12.4 5.399994-12.4 12.199994v83.3c0 6.9 5.5 12.4 12.3 12.4z"/><path d="m213.467 21.3284c-2.592-.504-4.464.648-4.968 3.384l-10.008 46.2238-9.576-44.4958c-.576-3.24-2.52-5.04-6.264-5.04h-1.008c-3.744 0-5.688 1.8-6.264 5.04l-9.576 44.4958-10.008-46.2238c-.504-2.736-2.304-3.888-4.968-3.384-2.592.576-3.816 2.376-3.24 5.04l11.16 47.6638c.648 3.024 2.736 5.328 6.408 5.328h.936c3.816 0 5.76-2.304 6.408-5.328l9.648-42.5518 9.648 42.5518c.648 3.024 2.592 5.328 6.336 5.328h1.008c3.744 0 5.76-2.304 6.408-5.328l11.16-47.6638c.504-2.664-.576-4.464-3.24-5.04z"/><path d="m236.747 37.6004c-6.696 0-12.888 2.448-15.336 6.9839-.936 1.584-.216 3.816 2.664 4.752 1.944.576 3.096-.144 3.888-1.008 2.232-2.88 5.184-4.32 8.784-4.32 5.328 0 8.856 3.312 8.856 8.424v2.952h-13.536c-7.848 0-12.96 4.176-12.96 10.656v2.3759c0 6.768 5.256 11.304 13.032 11.304 6.12 0 11.016-2.304 14.04-6.12v1.8c.072 2.664 1.512 4.176 3.96 4.176 2.376 0 3.672-1.584 3.672-4.248v-23.4719c0-8.568-6.84-14.2559-17.064-14.2559zm-2.232 35.4958c-4.32 0-7.2-2.232-7.2-5.6159v-1.0801c0-3.2399 2.592-5.1839 6.552-5.1839h11.736v2.6639c0 5.544-4.464 9.216-11.088 9.216z"/><path d="m270.453 79.5762c2.448 0 4.32-1.224 4.32-3.312 0-1.8-1.008-2.448-1.872-2.952-1.44-.576-2.232-1.728-2.232-3.456v-44.4238c0-2.664-1.44-4.248-4.104-4.248-2.592 0-4.104 1.584-4.104 4.248v45.5758c0 5.112 3.24 8.568 7.992 8.568z"/><path d="m288.734 79.5762c2.448 0 4.32-1.224 4.32-3.312 0-1.8-1.008-2.448-1.872-2.952-1.44-.576-2.232-1.728-2.232-3.456v-44.4238c0-2.664-1.44-4.248-4.104-4.248-2.591 0-4.103 1.584-4.103 4.248v45.5758c0 5.112 3.24 8.568 7.991 8.568z"/><path d="m315.584 37.6004c-10.872 0-18.072 6.9119-18.072 17.3519v7.416c0 10.4399 7.344 17.3519 18.288 17.3519 7.2 0 13.464-2.592 16.056-7.272.864-1.584.216-3.816-2.664-4.752-1.944-.576-3.168.144-3.888 1.008-2.304 3.024-5.616 4.608-9.504 4.608-6.048 0-10.08-4.32-10.08-10.8719v-1.224h24.408c2.232 0 3.456-1.296 3.456-3.456v-2.808c0-10.44-7.2-17.3519-18-17.3519zm9.792 17.7839h-19.656v-.576c0-6.48 3.888-10.8 9.864-10.8 5.904 0 9.792 4.32 9.792 10.8z"/><path d="m357.51 72.4482h-2.16c-2.448 0-4.104-1.656-4.104-4.176v-23.3999h6.984c2.232 0 3.456-1.224 3.456-3.312 0-2.0879-1.224-3.2399-3.456-3.2399h-6.984v-7.344c0-2.664-1.368-4.176-3.96-4.176s-4.032 1.512-4.032 4.176v7.344h-3.528c-2.16 0-3.456 1.152-3.456 3.2399 0 2.088 1.296 3.312 3.456 3.312h3.312v23.8319c0 6.192 4.608 10.296 11.448 10.296h3.024c2.232 0 3.456-1.224 3.456-3.24 0-2.088-1.224-3.312-3.456-3.312z"/></g></svg>