<svg width="33" height="32" viewBox="0 0 33 32" fill="none" xmlns="http://www.w3.org/2000/svg">
<g clip-path="url(#clip0_15_559)">
<path d="M16.248 2.34375e-05C7.266 2.34375e-05 0 7.15602 0 16C0 22.444 3.881 28 9.478 30.533C7.628 27.556 4.288 21.378 4.558 15.867C4.83 9.60002 9.523 6.40002 13.765 5.51002C18.098 4.62102 23.695 5.06602 25.094 9.28802C26.718 14.221 18.684 17.155 18.324 17.288C17.918 17.421 14.172 18.799 12.005 17.821C11.3469 17.5228 10.8296 16.9818 10.561 16.311C10.2 15.377 10.426 14.355 11.148 13.511C12.908 11.421 17.421 10.488 22.115 11.243C21.799 11.91 21.032 12.577 20.129 13.155C16.293 12.888 13.585 13.91 12.772 14.888C12.456 15.288 12.547 15.51 12.547 15.599C12.592 15.688 12.637 15.821 12.863 15.91C13.946 16.399 16.473 15.732 17.557 15.332C17.647 15.288 24.01 12.932 23.017 9.95502C21.98 6.84302 16.97 6.97702 14.172 7.55502C12.502 7.91002 6.95 9.55502 6.634 15.955C6.454 20.888 10.426 28.043 12.592 31.599C13.765 31.866 14.984 31.999 16.248 31.999C25.229 31.999 32.495 24.843 32.495 15.999C32.495 7.15502 25.229 -0.000976562 16.248 -0.000976562V2.34375e-05ZM27.395 20.133C24.733 24.133 20.535 25.2 17.015 25.2C15.2159 25.2013 13.4248 24.9621 11.689 24.489C11.103 24.356 10.787 23.778 10.922 23.2C11.057 22.622 11.644 22.311 12.231 22.444C20.491 24.534 24.146 21.156 25.635 18.978C26.222 18.088 26.448 17.067 26.222 16.178C25.996 15.333 25.5 14.667 24.687 14.178C25.184 13.644 25.545 13.022 25.816 12.4C27.35 13.333 28.027 14.622 28.298 15.733C28.614 17.2 28.298 18.8 27.395 20.133V20.133Z" fill="#594A42"/>
</g>
<defs>
<clipPath id="clip0_15_559">
<rect width="33" height="32" fill="white"/>
</clipPath>
</defs>
</svg>
