<svg width="321" height="269" fill="none" xmlns="http://www.w3.org/2000/svg">
  <g filter="url(#a)">
    <path d="M33.93 165.94a14.83 14.83 0 0 1 18.17-10.49l201.4 53.97a14.83 14.83 0 0 1-7.68 28.66L44.43 184.1a14.83 14.83 0 0 1-10.5-18.17Z" fill="#247AC9" fill-opacity=".5"/>
  </g>
  <g filter="url(#b)">
    <path d="M268.26 90.58a11.48 11.48 0 1 1 22.17 5.94l-31.47 117.45a11.48 11.48 0 0 1-22.17-5.94l31.47-117.45Z" fill="#247AC9" fill-opacity=".5"/>
  </g>
  <path d="M43.09 14.7A15.12 15.12 0 0 1 61.6 4.02l200.85 53.82a15.12 15.12 0 0 1 10.7 18.53l-30.83 115.03a15.12 15.12 0 0 1-18.52 10.7L22.96 148.25a15.12 15.12 0 0 1-10.7-18.52L43.1 14.71Z" fill="url(#c)" fill-opacity=".5"/>
  <path fill-rule="evenodd" clip-rule="evenodd" d="M262.22 58.75 61.36 4.93A14.18 14.18 0 0 0 44 14.95L13.18 130a14.18 14.18 0 0 0 10.02 17.36l200.85 53.82a14.18 14.18 0 0 0 17.37-10.02L272.24 76.1a14.18 14.18 0 0 0-10.02-17.36ZM61.6 4a15.12 15.12 0 0 0-18.52 10.7L12.26 129.74a15.12 15.12 0 0 0 10.7 18.52l200.85 53.82a15.12 15.12 0 0 0 18.52-10.69l30.82-115.03a15.12 15.12 0 0 0-10.69-18.53L61.61 4.01Z" fill="#fff" fill-opacity=".2"/>
  <path opacity=".5" d="m244.6 72.01-7.19 6.27c-.49.42.03 1.23.63.93l6.25-3.05c.16-.08.33.06.28.25l-3.69 13.77c-.05.2-.32.21-.4.05l-10.4-22.46a2.62 2.62 0 0 0-1.74-1.47l-.55-.14a2.72 2.72 0 0 0-3.3 1.93l-5.2 19.4a2.72 2.72 0 0 0 4.5 2.67l7.2-6.27c.49-.42-.03-1.24-.64-.93l-6.23 3.03c-.17.07-.34-.06-.28-.26l3.68-13.75c.05-.19.32-.2.4-.04l10.4 22.46c.33.73.98 1.26 1.74 1.47l.55.14a2.72 2.72 0 0 0 3.33-1.92l5.2-19.4a2.74 2.74 0 0 0-4.53-2.68Z" fill="url(#d)"/>
  <path fill-rule="evenodd" clip-rule="evenodd" d="M61.28 70.96a.95.95 0 0 0 1.16-.67l1.71-6.4a.95.95 0 0 0-.66-1.15l-4.57-1.22a.95.95 0 0 0-1.16.67l-1.7 6.39a.95.95 0 0 0 .66 1.15l4.56 1.23Zm-4.7-.29c-.54-.14-1.1.2-1.1.76.01 2.5 1.68 4.78 4.21 5.46a.95.95 0 0 0 1.16-.67l.86-3.2a.95.95 0 0 0-.67-1.15l-4.47-1.2Zm5.18 5.8a.95.95 0 0 0 .67 1.16l7.3 1.95a.95.95 0 0 0 1.16-.67l1.23-4.56c.07-.25.32-.4.58-.34l6.84 1.84a.95.95 0 0 0 1.16-.67l2.08-7.76a5.67 5.67 0 0 0-4-6.94L67.8 57.54a.95.95 0 0 0-1.15.67l-4.9 18.26Zm3.98-18.5a.95.95 0 0 0-.66-1.16 5.67 5.67 0 0 0-6.38 2.62c-.27.48.03 1.06.56 1.2l4.47 1.2a.95.95 0 0 0 1.16-.67l.85-3.2Zm14.02 19.96c.28-.48-.02-1.05-.56-1.2l-5.38-1.44a.95.95 0 0 0-1.16.67l-.85 3.2a.95.95 0 0 0 .67 1.16l.9.24a5.67 5.67 0 0 0 6.38-2.63Z" fill="#fff" fill-opacity=".3"/>
  <path d="M52.83 100.67a4.25 4.25 0 0 1-1.74-.9 3.56 3.56 0 0 1-1.02-1.48 3.16 3.16 0 0 1-.1-1.77l1.4.38c-.1.55.03 1.07.37 1.54.34.46.82.78 1.43.94a2.57 2.57 0 0 0 2.56-.7c.33-.34.56-.77.7-1.28a2.9 2.9 0 0 0 .03-1.48 2.62 2.62 0 0 0-1.94-1.95 3.87 3.87 0 0 0-2.24.05l-1.3-.53 2.3-5.69 6.2 1.67-.34 1.28-5-1.34-1.36 3.41.07.02a3.62 3.62 0 0 1 2.26-.12 3.8 3.8 0 0 1 2.78 2.84c.17.69.15 1.42-.05 2.2-.2.76-.56 1.4-1.06 1.9a3.9 3.9 0 0 1-3.95 1Z" fill="url(#e)" fill-opacity=".5"/>
  <path d="M63.16 103.44a4.25 4.25 0 0 1-1.75-.9 3.56 3.56 0 0 1-1.01-1.48 3.16 3.16 0 0 1-.11-1.77l1.4.37c-.1.56.03 1.07.37 1.54.35.47.83.79 1.44.95a2.56 2.56 0 0 0 2.56-.7c.33-.34.56-.77.7-1.28a2.9 2.9 0 0 0 .03-1.48 2.62 2.62 0 0 0-1.94-1.96 3.87 3.87 0 0 0-2.24.05l-1.31-.52 2.3-5.69 6.2 1.66-.33 1.29-5-1.34-1.36 3.41.07.02a3.62 3.62 0 0 1 2.26-.12 3.8 3.8 0 0 1 2.78 2.84c.17.69.15 1.42-.06 2.2a4.2 4.2 0 0 1-1.06 1.9 3.9 3.9 0 0 1-3.94 1Z" fill="url(#f)" fill-opacity=".5"/>
  <path d="M73.65 106.25a3.69 3.69 0 0 1-2.06-1.32 4.64 4.64 0 0 1-.86-2.48c-.08-1 .06-2.16.4-3.46.35-1.29.81-2.35 1.38-3.17a4.68 4.68 0 0 1 1.99-1.72 3.65 3.65 0 0 1 2.44-.13c.87.23 1.55.67 2.03 1.33.5.65.79 1.47.87 2.48.08 1-.05 2.15-.4 3.44a10.3 10.3 0 0 1-1.38 3.2 4.64 4.64 0 0 1-1.98 1.71c-.74.31-1.56.35-2.43.12Zm.34-1.29c.87.24 1.66 0 2.37-.71a7.56 7.56 0 0 0 1.68-3.4c.28-1.04.4-1.95.38-2.74a3.76 3.76 0 0 0-.5-1.91c-.3-.5-.75-.82-1.32-.97-.87-.23-1.66.01-2.37.73a7.57 7.57 0 0 0-1.7 3.4 9.57 9.57 0 0 0-.37 2.73c.02.79.19 1.42.5 1.9.3.5.75.82 1.33.97Z" fill="url(#g)" fill-opacity=".5"/>
  <path d="M84.24 109.09a3.68 3.68 0 0 1-2.05-1.32 4.64 4.64 0 0 1-.86-2.48c-.08-1 .06-2.16.4-3.46.35-1.29.81-2.35 1.38-3.17a4.68 4.68 0 0 1 1.99-1.72 3.65 3.65 0 0 1 2.43-.13c.88.23 1.56.67 2.04 1.33.5.65.78 1.47.87 2.48.08 1-.05 2.15-.4 3.44a10.3 10.3 0 0 1-1.38 3.2 4.64 4.64 0 0 1-1.98 1.71c-.74.31-1.56.35-2.44.12Zm.35-1.29c.87.24 1.66 0 2.37-.71a7.56 7.56 0 0 0 1.68-3.4c.28-1.04.4-1.95.38-2.74a3.75 3.75 0 0 0-.5-1.91c-.3-.5-.75-.82-1.32-.97-.87-.23-1.66.01-2.37.73a7.57 7.57 0 0 0-1.7 3.4 9.57 9.57 0 0 0-.37 2.73c.02.79.19 1.42.5 1.9.3.5.75.82 1.33.97Z" fill="url(#h)" fill-opacity=".5"/>
  <path d="m103.34 101.22-3.2 11.95-1.44-.39 2.8-10.43-.08-.02-3.44 1.16.4-1.47 3.52-1.19 1.44.39Z" fill="url(#i)" fill-opacity=".5"/>
  <path d="m103.9 114.18.29-1.05 5.1-3.26c.6-.38 1.1-.72 1.5-1.01.4-.3.72-.6.95-.89.24-.3.4-.62.5-.99a2 2 0 0 0-.63-2.1c-.3-.26-.67-.45-1.1-.57a2.53 2.53 0 0 0-1.28-.03c-.4.1-.73.29-1 .57-.28.3-.47.67-.6 1.12l-1.37-.37a3.49 3.49 0 0 1 2.63-2.6 4.1 4.1 0 0 1 2 .07c.7.18 1.28.5 1.74.94.46.44.78.95.95 1.53.18.59.18 1.19.02 1.8-.12.44-.32.85-.59 1.23-.27.37-.66.77-1.19 1.18-.52.4-1.22.88-2.1 1.43l-3.46 2.15-.02.1 5.55 1.49-.34 1.28-7.54-2.02Z" fill="url(#j)" fill-opacity=".5"/>
  <path d="M118.18 118.18a5.27 5.27 0 0 1-1.95-.95c-.53-.42-.9-.92-1.14-1.48a3.07 3.07 0 0 1-.13-1.81l1.48.4c-.08.39-.03.75.12 1.1.16.34.41.63.75.89.33.25.73.44 1.2.56.5.14.98.17 1.43.1.44-.08.82-.24 1.13-.5.32-.26.53-.6.64-1.02a2.15 2.15 0 0 0-.76-2.3c-.37-.3-.86-.53-1.47-.7l-.95-.25.34-1.29.96.26c.47.13.91.15 1.32.08a2 2 0 0 0 1.64-1.51c.1-.4.11-.78.02-1.13a1.9 1.9 0 0 0-.58-.9 3.1 3.1 0 0 0-2.3-.64c-.4.04-.76.18-1.06.4-.3.22-.52.53-.65.92l-1.4-.38c.2-.62.53-1.11 1-1.5a3.7 3.7 0 0 1 1.7-.73 4.64 4.64 0 0 1 3.78 1.07 3.18 3.18 0 0 1 .9 3.19 2.8 2.8 0 0 1-2.69 2.18l-.01.1c.72.33 1.22.8 1.5 1.44a3 3 0 0 1 .13 2.07c-.17.65-.5 1.19-1 1.61-.48.42-1.07.7-1.76.83-.68.13-1.41.1-2.19-.11Z" fill="url(#k)" fill-opacity=".5"/>
  <path d="m125.36 117.3.31-1.2 7.48-6.9.87.24-.5 1.84-.58-.15-5.65 5.21-.03.1 7.08 1.89-.35 1.28-8.63-2.31Zm4.96 3.96.76-2.82.15-.55 2.3-8.58 1.37.37-3.2 11.95-1.38-.37Z" fill="url(#l)" fill-opacity=".5"/>
  <path d="M147.85 112.97c.5.14.96.36 1.4.67.44.32.8.74 1.1 1.27.29.53.46 1.2.51 1.99.05.79-.07 1.73-.37 2.83a12.36 12.36 0 0 1-1.06 2.75c-.42.77-.89 1.38-1.42 1.85-.52.46-1.1.77-1.7.92-.62.14-1.26.13-1.93-.05a3.66 3.66 0 0 1-2.86-4.17l1.42.38c-.02.58.11 1.1.4 1.56.29.46.75.78 1.38.95.92.24 1.76.03 2.5-.63a6.34 6.34 0 0 0 1.73-3.2l-.1-.02a3.79 3.79 0 0 1-2.14.92 3.76 3.76 0 0 1-3.96-2.9 4.25 4.25 0 0 1 .04-2.2c.2-.73.54-1.36 1.03-1.87.5-.53 1.09-.89 1.78-1.1.7-.2 1.45-.18 2.25.05Zm-.34 1.28a2.54 2.54 0 0 0-1.42.02c-.46.13-.85.38-1.2.73-.33.35-.56.77-.7 1.27-.13.5-.14.98-.03 1.45a2.55 2.55 0 0 0 1.86 1.92 2.56 2.56 0 0 0 2.08-.32c.31-.2.58-.43.8-.72a2.76 2.76 0 0 0 .5-2.37 2.78 2.78 0 0 0-.66-1.24c-.32-.36-.73-.6-1.23-.74Z" fill="url(#m)" fill-opacity=".5"/>
  <path d="M155.17 128.1a5.2 5.2 0 0 1-2.01-1 3.6 3.6 0 0 1-1.11-1.57c-.2-.6-.22-1.22-.05-1.87a3.3 3.3 0 0 1 1.8-2.17c.43-.2.87-.28 1.33-.24l.02-.07c-.54-.3-.9-.75-1.11-1.33-.2-.59-.22-1.2-.05-1.83.16-.61.46-1.11.9-1.5.44-.4.97-.66 1.59-.8.62-.13 1.28-.1 1.98.1.7.18 1.27.48 1.75.9.47.43.8.92.97 1.48.2.56.2 1.15.05 1.76-.18.63-.5 1.15-.98 1.56-.47.4-1 .6-1.6.6l-.02.07c.41.2.75.48 1.02.86a3.36 3.36 0 0 1 .48 2.79c-.18.65-.51 1.18-1 1.59a3.6 3.6 0 0 1-1.74.8c-.68.12-1.42.07-2.22-.14Zm.34-1.3c.55.15 1.03.19 1.48.12a2.06 2.06 0 0 0 1.74-1.53c.1-.45.1-.88-.04-1.3-.13-.4-.38-.76-.72-1.06-.34-.3-.76-.52-1.27-.66-.5-.14-.99-.16-1.44-.07-.45.1-.84.28-1.16.57-.32.28-.54.65-.65 1.1-.12.43-.12.83 0 1.2.13.39.37.71.72 1 .35.28.8.5 1.34.64Zm1.52-5.67c.43.12.83.14 1.21.05a2.03 2.03 0 0 0 1.56-1.5c.1-.41.1-.79 0-1.14-.1-.35-.3-.66-.59-.9a2.6 2.6 0 0 0-1.09-.57 2.69 2.69 0 0 0-1.24-.06c-.38.07-.7.24-.96.5-.26.24-.45.57-.55.98-.12.4-.12.8-.02 1.15.11.36.3.67.6.93.29.26.65.45 1.08.56Z" fill="url(#n)" fill-opacity=".5"/>
  <path d="m162.21 129.8 8.18-9.14.03-.1-6.16-1.64.34-1.29 7.66 2.05-.37 1.36-8.16 9.17-1.52-.4Z" fill="url(#o)" fill-opacity=".5"/>
  <path d="M175.23 133.46a4.61 4.61 0 0 1-1.4-.67c-.44-.31-.8-.73-1.1-1.26a4.8 4.8 0 0 1-.51-2 12.38 12.38 0 0 1 1.42-5.59c.42-.76.9-1.38 1.42-1.84.53-.46 1.1-.76 1.71-.91a3.87 3.87 0 0 1 1.93.05c.67.18 1.23.47 1.68.88.46.4.78.89.99 1.45.2.56.27 1.17.2 1.81l-1.42-.38a2.73 2.73 0 0 0-.42-1.54 2.21 2.21 0 0 0-1.37-.94 2.58 2.58 0 0 0-2.51.62 6.4 6.4 0 0 0-1.71 3.18l.1.02a3.62 3.62 0 0 1 3.36-.8 3.7 3.7 0 0 1 1.74 1.02c.48.5.8 1.08.99 1.77.18.69.17 1.42-.04 2.19-.2.74-.54 1.37-1.04 1.9a3.91 3.91 0 0 1-4.02 1.04Zm.34-1.28c.49.13.96.13 1.42-.01a2.9 2.9 0 0 0 1.9-2.02 2.86 2.86 0 0 0-.61-2.66 2.48 2.48 0 0 0-1.21-.71c-.37-.1-.74-.12-1.1-.06a2.76 2.76 0 0 0-1.79 1.1 2.87 2.87 0 0 0 .15 3.63c.33.35.74.6 1.24.73Z" fill="url(#p)" fill-opacity=".5"/>
  <path d="M190.69 137.6a3.7 3.7 0 0 1-2.06-1.31 4.64 4.64 0 0 1-.85-2.48c-.08-1 .05-2.16.4-3.46.35-1.29.8-2.34 1.38-3.17a4.67 4.67 0 0 1 1.98-1.72 3.65 3.65 0 0 1 2.44-.13c.87.23 1.55.68 2.04 1.33.5.65.78 1.47.86 2.48.09 1-.04 2.15-.39 3.44a10.3 10.3 0 0 1-1.38 3.2 4.63 4.63 0 0 1-1.98 1.71c-.75.31-1.56.35-2.44.12Zm.34-1.28c.88.24 1.66 0 2.37-.71a7.56 7.56 0 0 0 1.69-3.4c.28-1.04.4-1.95.38-2.74a3.75 3.75 0 0 0-.5-1.91c-.31-.5-.75-.82-1.33-.97-.86-.23-1.65.01-2.36.74a7.56 7.56 0 0 0-1.7 3.4 9.58 9.58 0 0 0-.38 2.73c.02.78.19 1.41.5 1.9.3.49.75.8 1.33.96Z" fill="url(#q)" fill-opacity=".5"/>
  <path d="M201.29 140.45a3.68 3.68 0 0 1-2.05-1.32 4.65 4.65 0 0 1-.86-2.48c-.08-1 .05-2.16.4-3.45.34-1.3.8-2.35 1.38-3.18a4.68 4.68 0 0 1 1.98-1.72 3.65 3.65 0 0 1 2.44-.13c.87.23 1.55.68 2.04 1.33.5.65.78 1.47.86 2.48.09 1-.04 2.15-.4 3.44a10.3 10.3 0 0 1-1.37 3.2 4.64 4.64 0 0 1-1.98 1.71c-.75.31-1.56.35-2.44.12Zm.34-1.29c.88.24 1.66 0 2.37-.71a7.56 7.56 0 0 0 1.69-3.4c.28-1.04.4-1.95.38-2.74a3.76 3.76 0 0 0-.5-1.91c-.31-.5-.75-.81-1.33-.97-.86-.23-1.65.01-2.37.74a7.58 7.58 0 0 0-1.69 3.4 9.58 9.58 0 0 0-.38 2.73c.02.78.19 1.41.5 1.9.3.49.75.8 1.33.96Z" fill="url(#r)" fill-opacity=".5"/>
  <path d="M211.89 143.29a3.68 3.68 0 0 1-2.05-1.32 4.65 4.65 0 0 1-.86-2.48c-.08-1 .05-2.16.4-3.45.34-1.3.8-2.35 1.38-3.18a4.68 4.68 0 0 1 1.98-1.72 3.65 3.65 0 0 1 2.44-.13c.87.23 1.55.68 2.04 1.33.5.65.78 1.47.86 2.48.08 1-.05 2.15-.4 3.44-.34 1.3-.8 2.37-1.37 3.2a4.65 4.65 0 0 1-1.98 1.71c-.75.32-1.56.35-2.44.12Zm.34-1.29c.88.24 1.66 0 2.37-.71a7.57 7.57 0 0 0 1.69-3.4c.28-1.04.4-1.95.37-2.74a3.75 3.75 0 0 0-.5-1.91c-.3-.5-.74-.81-1.32-.97-.86-.23-1.65.01-2.37.74a7.56 7.56 0 0 0-1.69 3.4 9.54 9.54 0 0 0-.38 2.73c.02.78.19 1.41.5 1.9.3.49.75.8 1.33.96Z" fill="url(#s)" fill-opacity=".5"/>
  <path d="M222.49 146.13a3.7 3.7 0 0 1-2.06-1.32 4.65 4.65 0 0 1-.85-2.48c-.08-1 .05-2.16.4-3.45.34-1.3.8-2.35 1.38-3.18a4.69 4.69 0 0 1 1.98-1.72 3.66 3.66 0 0 1 2.44-.13c.87.23 1.55.68 2.04 1.33.5.65.78 1.47.86 2.48.08 1-.05 2.15-.4 3.44-.34 1.3-.8 2.37-1.37 3.2a4.65 4.65 0 0 1-1.98 1.71c-.75.32-1.56.35-2.44.12Zm.34-1.28c.87.23 1.66-.01 2.37-.72a7.55 7.55 0 0 0 1.69-3.4c.28-1.04.4-1.95.37-2.73a3.76 3.76 0 0 0-.5-1.92c-.3-.5-.74-.82-1.32-.97-.86-.23-1.65.01-2.37.74a7.58 7.58 0 0 0-1.7 3.4 9.58 9.58 0 0 0-.37 2.73c.02.78.19 1.41.5 1.9.3.49.75.8 1.33.97Z" fill="url(#t)" fill-opacity=".5"/>
  <path d="m50.98 123.3-2.5 9.3-1.08-.3-3.11-8.65-.1-.02-1.95 7.3-1.13-.3 2.5-9.3 1.09.29 3.12 8.68.09.02 1.96-7.31 1.1.3Z" fill="url(#u)" fill-opacity=".5"/>
  <path d="M53.73 134.16a3.09 3.09 0 0 1-2.4-2.46c-.12-.61-.08-1.27.11-1.99.2-.71.5-1.3.9-1.78s.89-.8 1.44-.99a3.05 3.05 0 0 1 1.78-.02c.36.1.7.26 1.02.47a2.76 2.76 0 0 1 1.22 2.11c.05.5 0 1.06-.18 1.71l-.12.46-5.38-1.44.25-.93 4.28 1.15c.11-.4.13-.77.05-1.12a1.84 1.84 0 0 0-1.4-1.44 2 2 0 0 0-1.2.02c-.36.12-.67.33-.93.62-.25.3-.43.63-.54 1.02l-.16.61c-.14.53-.17 1-.09 1.42.09.4.27.75.55 1.03.27.28.63.47 1.06.59.28.07.55.1.8.09.25-.03.48-.1.69-.2.2-.13.39-.3.55-.51l.95.56c-.2.33-.47.59-.8.78-.32.2-.7.32-1.11.37-.42.04-.86 0-1.34-.13Z" fill="url(#v)" fill-opacity=".5"/>
  <path d="M60.55 136c-.44-.11-.82-.3-1.13-.56a2.13 2.13 0 0 1-.67-.97c-.12-.37-.12-.79 0-1.24.1-.4.27-.7.5-.91.22-.2.48-.35.78-.42.3-.07.62-.1.96-.09a41.25 41.25 0 0 1 2.08.24c.27.05.48.05.62.01s.23-.14.28-.31l.01-.04c.12-.45.09-.83-.09-1.14-.17-.31-.5-.54-1-.67a2 2 0 0 0-1.3.01c-.34.15-.61.34-.8.56l-.92-.64A2.53 2.53 0 0 1 62 128.8a4.32 4.32 0 0 1 1.85.44c.28.13.54.3.77.54.23.24.4.55.48.93.1.38.07.84-.08 1.4l-1.23 4.59-1.07-.29.25-.94-.05-.01a2.18 2.18 0 0 1-1.29.65c-.31.04-.67 0-1.08-.1Zm.42-.91c.43.11.8.13 1.14.04a1.75 1.75 0 0 0 1.29-1.24l.26-.98c-.06.04-.17.06-.34.07a5.53 5.53 0 0 1-1.16-.1 39 39 0 0 0-.46-.07 4.25 4.25 0 0 0-.83-.03 1.4 1.4 0 0 0-.68.2.95.95 0 0 0-.39.59 1 1 0 0 0 .2.95c.22.27.55.45.97.57Z" fill="url(#w)" fill-opacity=".5"/>
  <path d="m66 137.3 1.87-6.98 1.03.28-.28 1.05.08.02c.21-.31.52-.53.91-.65.4-.13.8-.14 1.21-.03a10.7 10.7 0 0 1 .56.17l-.3 1.1a3.89 3.89 0 0 0-.63-.25c-.33-.1-.66-.1-.96-.03-.3.06-.56.2-.78.4-.22.21-.37.47-.45.79l-1.19 4.41-1.07-.29Z" fill="url(#x)" fill-opacity=".5"/>
  <path d="m83.6 132.04 1.13.3-1.65 6.16a3.26 3.26 0 0 1-2.48 2.42 4.2 4.2 0 0 1-2.02-.08c-.73-.2-1.33-.51-1.8-.94a3.3 3.3 0 0 1-.94-1.51 3.38 3.38 0 0 1 .01-1.82l1.65-6.16 1.13.3-1.63 6.07a2.5 2.5 0 0 0-.02 1.29c.1.4.31.76.63 1.06.31.3.73.52 1.25.65.52.14.99.16 1.41.06.43-.1.79-.3 1.08-.6.3-.3.5-.68.63-1.13l1.62-6.07Z" fill="url(#y)" fill-opacity=".5"/>
  <path d="m90.98 138.19-1.03.01a1.86 1.86 0 0 0-.15-.54c-.07-.18-.2-.35-.37-.5a1.79 1.79 0 0 0-.72-.36 1.9 1.9 0 0 0-1.15 0c-.33.13-.54.33-.62.63a.8.8 0 0 0 .12.71c.15.21.42.42.8.63l.97.53c.59.32.99.68 1.21 1.07.22.4.27.83.14 1.32-.1.4-.32.72-.63.98-.31.25-.7.41-1.16.49a3.6 3.6 0 0 1-1.5-.11c-.7-.2-1.25-.5-1.64-.94a2.13 2.13 0 0 1-.52-1.59l1.09.02c0 .4.1.73.32 1 .22.25.55.44 1 .56.49.13.92.13 1.27 0 .35-.14.57-.35.65-.65a.84.84 0 0 0-.1-.68c-.12-.21-.35-.4-.68-.58l-1.08-.59c-.6-.32-1-.68-1.22-1.07-.21-.4-.25-.85-.13-1.33.11-.4.31-.7.62-.95.3-.25.67-.4 1.1-.47.43-.07.9-.04 1.38.1.7.18 1.2.47 1.5.88.32.41.5.89.53 1.43Z" fill="url(#z)" fill-opacity=".5"/>
  <path d="M94.41 145.06a3.09 3.09 0 0 1-2.4-2.46c-.12-.61-.08-1.27.1-1.99.2-.71.5-1.3.9-1.78a3.06 3.06 0 0 1 3.22-1c.37.1.7.25 1.03.46a2.76 2.76 0 0 1 1.22 2.11c.05.5-.01 1.06-.19 1.71l-.12.46-5.37-1.44.25-.93 4.28 1.15c.1-.4.12-.77.05-1.12a1.85 1.85 0 0 0-1.4-1.44c-.43-.12-.83-.11-1.2.02-.36.12-.67.33-.93.62-.26.3-.43.63-.54 1.02l-.16.61c-.14.53-.17 1-.09 1.41.09.42.27.76.54 1.04.28.28.64.47 1.07.59.28.07.54.1.8.08.24-.02.48-.08.68-.2.21-.12.4-.29.55-.5l.96.56c-.2.33-.47.59-.8.78-.32.2-.7.32-1.12.36-.41.05-.86 0-1.33-.12Z" fill="url(#A)" fill-opacity=".5"/>
  <path d="m99.22 146.2 1.87-6.98 1.03.28-.28 1.05.08.02c.21-.3.52-.53.91-.65.39-.13.8-.14 1.21-.02a11.23 11.23 0 0 1 .56.16l-.3 1.1a3.26 3.26 0 0 0-.63-.25c-.34-.1-.66-.1-.96-.03a1.62 1.62 0 0 0-1.23 1.2l-1.19 4.4-1.07-.29Z" fill="url(#B)" fill-opacity=".5"/>
  <defs>
    <linearGradient id="c" x1="51.25" y1="6.13" x2="252.57" y2="209.79" gradientUnits="userSpaceOnUse">
      <stop stop-color="#fff"/>
      <stop offset="1" stop-color="#fff" stop-opacity=".1"/>
    </linearGradient>
    <linearGradient id="d" x1="220.07" y1="76.66" x2="250.31" y2="90.84" gradientUnits="userSpaceOnUse">
      <stop stop-color="#fff"/>
      <stop offset="1" stop-color="#fff" stop-opacity="0"/>
    </linearGradient>
    <linearGradient id="e" x1="52.77" y1="93.2" x2="232.36" y2="147.55" gradientUnits="userSpaceOnUse">
      <stop stop-color="#fff"/>
      <stop offset="1" stop-color="#fff" stop-opacity="0"/>
    </linearGradient>
    <linearGradient id="f" x1="52.77" y1="93.2" x2="232.36" y2="147.55" gradientUnits="userSpaceOnUse">
      <stop stop-color="#fff"/>
      <stop offset="1" stop-color="#fff" stop-opacity="0"/>
    </linearGradient>
    <linearGradient id="g" x1="52.77" y1="93.2" x2="232.36" y2="147.55" gradientUnits="userSpaceOnUse">
      <stop stop-color="#fff"/>
      <stop offset="1" stop-color="#fff" stop-opacity="0"/>
    </linearGradient>
    <linearGradient id="h" x1="52.77" y1="93.2" x2="232.36" y2="147.55" gradientUnits="userSpaceOnUse">
      <stop stop-color="#fff"/>
      <stop offset="1" stop-color="#fff" stop-opacity="0"/>
    </linearGradient>
    <linearGradient id="i" x1="52.77" y1="93.2" x2="232.36" y2="147.55" gradientUnits="userSpaceOnUse">
      <stop stop-color="#fff"/>
      <stop offset="1" stop-color="#fff" stop-opacity="0"/>
    </linearGradient>
    <linearGradient id="j" x1="52.77" y1="93.2" x2="232.36" y2="147.55" gradientUnits="userSpaceOnUse">
      <stop stop-color="#fff"/>
      <stop offset="1" stop-color="#fff" stop-opacity="0"/>
    </linearGradient>
    <linearGradient id="k" x1="52.77" y1="93.2" x2="232.36" y2="147.55" gradientUnits="userSpaceOnUse">
      <stop stop-color="#fff"/>
      <stop offset="1" stop-color="#fff" stop-opacity="0"/>
    </linearGradient>
    <linearGradient id="l" x1="52.77" y1="93.2" x2="232.36" y2="147.55" gradientUnits="userSpaceOnUse">
      <stop stop-color="#fff"/>
      <stop offset="1" stop-color="#fff" stop-opacity="0"/>
    </linearGradient>
    <linearGradient id="m" x1="52.77" y1="93.2" x2="232.36" y2="147.55" gradientUnits="userSpaceOnUse">
      <stop stop-color="#fff"/>
      <stop offset="1" stop-color="#fff" stop-opacity="0"/>
    </linearGradient>
    <linearGradient id="n" x1="52.77" y1="93.2" x2="232.36" y2="147.55" gradientUnits="userSpaceOnUse">
      <stop stop-color="#fff"/>
      <stop offset="1" stop-color="#fff" stop-opacity="0"/>
    </linearGradient>
    <linearGradient id="o" x1="52.77" y1="93.2" x2="232.36" y2="147.55" gradientUnits="userSpaceOnUse">
      <stop stop-color="#fff"/>
      <stop offset="1" stop-color="#fff" stop-opacity="0"/>
    </linearGradient>
    <linearGradient id="p" x1="52.77" y1="93.2" x2="232.36" y2="147.55" gradientUnits="userSpaceOnUse">
      <stop stop-color="#fff"/>
      <stop offset="1" stop-color="#fff" stop-opacity="0"/>
    </linearGradient>
    <linearGradient id="q" x1="52.77" y1="93.2" x2="232.36" y2="147.55" gradientUnits="userSpaceOnUse">
      <stop stop-color="#fff"/>
      <stop offset="1" stop-color="#fff" stop-opacity="0"/>
    </linearGradient>
    <linearGradient id="r" x1="52.77" y1="93.2" x2="232.36" y2="147.55" gradientUnits="userSpaceOnUse">
      <stop stop-color="#fff"/>
      <stop offset="1" stop-color="#fff" stop-opacity="0"/>
    </linearGradient>
    <linearGradient id="s" x1="52.77" y1="93.2" x2="232.36" y2="147.55" gradientUnits="userSpaceOnUse">
      <stop stop-color="#fff"/>
      <stop offset="1" stop-color="#fff" stop-opacity="0"/>
    </linearGradient>
    <linearGradient id="t" x1="52.77" y1="93.2" x2="232.36" y2="147.55" gradientUnits="userSpaceOnUse">
      <stop stop-color="#fff"/>
      <stop offset="1" stop-color="#fff" stop-opacity="0"/>
    </linearGradient>
    <linearGradient id="u" x1="38.59" y1="122.97" x2="114.68" y2="148.49" gradientUnits="userSpaceOnUse">
      <stop stop-color="#fff"/>
      <stop offset="1" stop-color="#fff" stop-opacity="0"/>
    </linearGradient>
    <linearGradient id="v" x1="38.59" y1="122.97" x2="114.68" y2="148.49" gradientUnits="userSpaceOnUse">
      <stop stop-color="#fff"/>
      <stop offset="1" stop-color="#fff" stop-opacity="0"/>
    </linearGradient>
    <linearGradient id="w" x1="38.59" y1="122.97" x2="114.68" y2="148.49" gradientUnits="userSpaceOnUse">
      <stop stop-color="#fff"/>
      <stop offset="1" stop-color="#fff" stop-opacity="0"/>
    </linearGradient>
    <linearGradient id="x" x1="38.59" y1="122.97" x2="114.68" y2="148.49" gradientUnits="userSpaceOnUse">
      <stop stop-color="#fff"/>
      <stop offset="1" stop-color="#fff" stop-opacity="0"/>
    </linearGradient>
    <linearGradient id="y" x1="38.59" y1="122.97" x2="114.68" y2="148.49" gradientUnits="userSpaceOnUse">
      <stop stop-color="#fff"/>
      <stop offset="1" stop-color="#fff" stop-opacity="0"/>
    </linearGradient>
    <linearGradient id="z" x1="38.59" y1="122.97" x2="114.68" y2="148.49" gradientUnits="userSpaceOnUse">
      <stop stop-color="#fff"/>
      <stop offset="1" stop-color="#fff" stop-opacity="0"/>
    </linearGradient>
    <linearGradient id="A" x1="38.59" y1="122.97" x2="114.68" y2="148.49" gradientUnits="userSpaceOnUse">
      <stop stop-color="#fff"/>
      <stop offset="1" stop-color="#fff" stop-opacity="0"/>
    </linearGradient>
    <linearGradient id="B" x1="38.59" y1="122.97" x2="114.68" y2="148.49" gradientUnits="userSpaceOnUse">
      <stop stop-color="#fff"/>
      <stop offset="1" stop-color="#fff" stop-opacity="0"/>
    </linearGradient>
    <filter id="a" x="3.42" y="124.94" width="291.09" height="143.64" filterUnits="userSpaceOnUse" color-interpolation-filters="sRGB">
      <feFlood flood-opacity="0" result="BackgroundImageFix"/>
      <feBlend in="SourceGraphic" in2="BackgroundImageFix" result="shape"/>
      <feGaussianBlur stdDeviation="15" result="effect1_foregroundBlur_1_474"/>
    </filter>
    <filter id="b" x="206.39" y="52.07" width="114.43" height="200.41" filterUnits="userSpaceOnUse" color-interpolation-filters="sRGB">
      <feFlood flood-opacity="0" result="BackgroundImageFix"/>
      <feBlend in="SourceGraphic" in2="BackgroundImageFix" result="shape"/>
      <feGaussianBlur stdDeviation="15" result="effect1_foregroundBlur_1_474"/>
    </filter>
  </defs>
</svg>
