<svg width="146" height="146" viewBox="0 0 146 146" fill="none" xmlns="http://www.w3.org/2000/svg">
<rect width="146" height="146" fill="white"/>
<path d="M32 32C32.287 32 32.5741 32.0479 32.909 32.0479C59.6044 32.0479 86.2999 32.0479 113.043 32.0479C113.33 32.0479 113.569 32.0479 114 32.0479C111.464 38.993 108.929 45.7944 106.345 52.6916C95.916 47.4708 85.5823 42.25 75.105 37.0292C75.105 55.9007 75.105 74.6285 75.105 93.4521C73.7655 93.4521 72.4259 93.4521 71.0864 93.4521C71.0864 74.7243 71.0864 55.9486 71.0864 37.0292C60.6091 42.2979 50.2275 47.5187 39.7503 52.7395C39.5111 52.0689 39.2719 51.4463 39.0327 50.7757C36.7363 44.7407 34.5356 38.7535 32.287 32.7185C32.2392 32.6227 32.0957 32.4311 32.0478 32.2395C32 32.1916 32 32.1437 32 32ZM37.8366 36.215C39.1762 39.8072 40.5158 43.3995 41.8553 46.9918C49.0315 43.3995 56.112 39.8072 63.1925 36.2629C63.1925 36.215 63.1447 36.215 63.1447 36.1671C54.7725 36.215 46.4002 36.215 37.8366 36.215ZM108.02 36.215C99.5519 36.215 91.084 36.215 82.6639 36.215V36.2629C89.7923 39.8072 96.8728 43.3995 104.001 46.9918C105.341 43.3995 106.632 39.8551 108.02 36.215ZM83.1424 73.2395C83.1424 71.8026 83.1424 70.5093 83.1424 69.1682C87.2089 69.1682 91.2754 69.1682 95.3419 69.1682C95.3419 84.1121 95.3419 99.0561 95.3419 114C80.4154 114 65.5368 114 50.5624 114C50.5624 99.0561 50.5624 84.1121 50.5624 69.1682C54.5811 69.1682 58.5998 69.1682 62.7141 69.1682C62.7141 70.5093 62.7141 71.8505 62.7141 73.1916C59.9872 73.1916 57.3081 73.1916 54.5811 73.1916C54.5811 85.4533 54.5811 97.6671 54.5811 109.881C66.7806 109.881 78.9802 109.881 91.2275 109.881C91.2275 97.6671 91.2275 85.4533 91.2275 73.1916C88.5963 73.2395 85.8693 73.2395 83.1424 73.2395Z" fill="black"/>
</svg>
