<svg width="146" height="146" viewBox="0 0 146 146" fill="none" xmlns="http://www.w3.org/2000/svg">
<rect width="146" height="146" fill="#384058"/>
<g clip-path="url(#clip0_16_598)">
<path d="M21.6371 49C19.7621 49 18.1797 50.5377 18.1797 52.3625V70.683C18.1797 72.5436 19.7254 74.0476 21.6371 74.0476H23.2181C25.1299 74.0476 26.6735 72.5436 26.6735 70.683V61.6306H22.6663V63.8141H24.2473V70.683C24.2473 71.2554 23.7696 71.6854 23.2181 71.6854H21.6371C21.0857 71.6854 20.608 71.2554 20.608 70.683V52.3625C20.608 51.8258 21.0857 51.3622 21.6371 51.3622H23.2181C23.8063 51.3622 24.2806 51.8268 24.2473 52.3625V55.1541H26.6735V52.3625C26.6735 50.5019 25.1299 49 23.2181 49H21.6371ZM39.9498 49L36.4572 74.0476H38.9207L39.987 66.6755H44.2877L45.3912 74.0476H47.8174L44.3249 49H39.9498ZM58.1484 49V74.0476H65.1336V71.6854H60.5747V49H58.1484ZM78.5397 49L75.0472 74.0476H77.5106L78.5769 66.6755H82.8776L83.9811 74.0476H86.4074L82.9148 49H78.5397ZM96.3023 49L99.8321 60.6282L95.8973 74.0476H98.4351L101.928 62.0969L105.457 74.0476H107.958L103.986 60.6282L107.59 49H105.052L101.928 59.1616L98.8029 49H96.3023ZM116.987 49L121.104 62.633V71.6854H119.008V74.0476H125.626V71.6854H123.532V62.5981L127.758 49H125.26L122.317 58.9829L119.486 49H116.987ZM42.0454 51.3252H42.2293L44.0314 64.494H40.2433L42.0454 51.3252ZM80.6353 51.3252H80.8192L82.6213 64.494H78.8332L80.6353 51.3252ZM20.7344 78.8747C19.3779 78.8747 18.2338 79.9624 18.2338 81.3088V94.5659C18.2338 95.9123 19.3779 97 20.7344 97H22.4911C23.8742 97 24.9896 95.9123 24.9896 94.5659V81.3088C24.9896 79.9624 23.8742 78.8747 22.4911 78.8747H20.7344ZM32.7311 78.8747V97H34.4857V88.7651L33.9814 82.0606L34.1674 82.0072L37.8646 97H40.2309V78.8747H38.4763V87.1096L38.9826 93.5553L38.7967 93.6066L35.1243 78.8747L32.7311 78.8747ZM47.9559 78.8747V97H53.0088V95.291H49.7105V78.8747H47.9559ZM60.4775 78.8747V80.5837H61.9944V95.291H60.4775V97H65.2659V95.291H63.749V80.5837H65.2659V78.8747H60.4775ZM73.0012 78.8747V97H74.7558V88.7651L74.2495 82.0606L74.4375 82.0072L78.1347 97H80.501V78.8747H78.7464V87.1096L79.2507 93.5553L79.0647 93.6066L75.3944 78.8747L73.0012 78.8747ZM88.2239 78.8747V97H93.2768V95.291H89.9785V88.0154H92.8779V86.4358H89.9785V80.5837H93.3036V78.8747H88.2239ZM109.144 78.8747V80.5837H110.661V95.291H109.144V97H113.933V95.291H112.416V80.5837H113.933V78.8747H109.144ZM123.563 78.8747C122.207 78.8747 121.065 79.9624 121.065 81.3088V94.5659C121.065 95.9124 122.207 97 123.563 97H125.32C126.703 97 127.82 95.9124 127.82 94.5659V81.3088C127.82 79.9624 126.703 78.8747 125.32 78.8747H123.563ZM20.7344 80.5837H22.4911C22.89 80.5837 23.235 80.9204 23.235 81.3088V94.5659C23.235 94.9802 22.89 95.291 22.4911 95.291H20.7344C20.3355 95.291 19.9904 94.9802 19.9904 94.5659V81.3088C19.9904 80.9204 20.3355 80.5837 20.7344 80.5837ZM123.563 80.5837H125.32C125.719 80.5837 126.064 80.9204 126.064 81.3088V94.5659C126.064 94.9803 125.719 95.291 125.32 95.291H123.563C123.164 95.291 122.819 94.9803 122.819 94.5659V81.3088C122.819 80.9204 123.164 80.5837 123.563 80.5837ZM100.533 95.1616V97H102.422V95.1616H100.533Z" fill="white"/>
</g>
<defs>
<clipPath id="clip0_16_598">
<rect width="110" height="48" fill="white" transform="translate(18 49)"/>
</clipPath>
</defs>
</svg>
