<svg width="146" height="146" viewBox="0 0 146 146" fill="none" xmlns="http://www.w3.org/2000/svg">
<rect width="146" height="146" fill="#0100BE"/>
<path fill-rule="evenodd" clip-rule="evenodd" d="M55.254 104L47 42L81.8729 48.2C83.3553 48.5907 84.728 48.9048 85.9918 49.1941C90.7446 50.2817 93.9597 51.0175 95.6984 54.152C97.8995 58.0924 99 62.9422 99 68.7013C99 74.4879 97.8995 79.3515 95.6984 83.292C93.4973 87.2324 88.889 89.2025 81.8729 89.2025H66.7683L69.6572 104H55.254ZM59.7936 54.8133L78.614 58.125C79.4141 58.3337 80.1548 58.5015 80.837 58.656C83.4018 59.237 85.1371 59.63 86.0754 61.3043C87.2631 63.4091 87.8572 65.9996 87.8572 69.0758C87.8572 72.1667 87.2631 74.7646 86.0754 76.8695C84.8876 78.9741 82.4002 80.0267 78.614 80.0267H70.0168L64.8358 79.6132L59.7936 54.8133Z" fill="white"/>
</svg>
