<svg width="24" height="25" fill="none" xmlns="http://www.w3.org/2000/svg">
  <path d="m7.45 20.98 2.07-2.99c.28-.4.76-.64 1.3-.64h2.36c.53 0 1.02.25 1.3.65l2.04 2.96c1.13 1.66 3.26 2.32 5 1.26a2.89 2.89 0 0 0 1.44-2.93l-1.38-8.15a3.88 3.88 0 0 0-.88-1.89 5.1 5.1 0 0 0-4.15-2.01h-9.1a5.1 5.1 0 0 0-4.13 2 3.88 3.88 0 0 0-.89 1.89l-1.4 8.17c-.19 1.15.38 2.3 1.46 2.94a3.65 3.65 0 0 0 4.96-1.26ZM12 6.2V2.07" stroke="#0015D2" stroke-width="2" stroke-linecap="round" stroke-linejoin="round"/>
  <path d="M9 13.44c0 .57-.45 1.04-1 1.04S7 14 7 13.44c0-.57.45-1.03 1-1.03s1 .46 1 1.03ZM17 13.44c0 .57-.45 1.04-1 1.04s-1-.47-1-1.04c0-.57.45-1.03 1-1.03s1 .46 1 1.03Z" stroke="#0015D2" stroke-width="2" stroke-linecap="round" stroke-linejoin="round"/>
</svg>
