<svg width="24" height="24" fill="none" xmlns="http://www.w3.org/2000/svg">
  <path fill-rule="evenodd" clip-rule="evenodd" d="M3 4.21c.06-.47.48-.8.93-.74.59.08 1.53.28 2.48.6.93.32 1.97.78 2.69 1.46a10.85 10.85 0 0 1 2.46 4.2c.14.45-.1.94-.53 1.1a.8.8 0 0 1-1.04-.54 9.2 9.2 0 0 0-2-3.46 6.05 6.05 0 0 0-2.1-1.1c-.49-.17-.97-.3-1.38-.39A6.82 6.82 0 0 0 6.15 11a9.44 9.44 0 0 0 2.8 1.96c.96.47 1.9.8 2.6.95.06-.56.18-1.21.38-1.87a5.69 5.69 0 0 1 1.87-2.89 9.03 9.03 0 0 1 4.95-1.65.75.75 0 0 1 .74.87c-.1.55-.3 1.43-.65 2.33a7.57 7.57 0 0 1-1.56 2.58 12.3 12.3 0 0 1-2.7 2.14.75.75 0 1 1-.67-1.34c.24-.12 1.15-.7 2.31-1.86.5-.5.9-1.25 1.22-2.07.14-.36.26-.73.35-1.06-.9.16-2.1.52-3.09 1.26a4.21 4.21 0 0 0-1.33 2.14 8.08 8.08 0 0 0-.37 2.26v4.8c1.36.16 2.6.76 3.54 1.65a.75.75 0 1 1-1.03 1.1 4.73 4.73 0 0 0-6.52 0 .75.75 0 0 1-1.03-1.1c.95-.89 2.18-1.5 3.54-1.66v-3.87c-.91-.16-2.11-.57-3.26-1.13-1.2-.6-2.45-1.4-3.3-2.35C2.28 9.21 2.74 6 2.99 4.23v-.02Z" fill="#3AB500"/>
</svg>
