<svg width="111" height="72" viewBox="0 0 111 72" fill="none" xmlns="http://www.w3.org/2000/svg">
<path d="M21.9206 45.5H26.2644V40.2187H27.7644L30.5769 45.5H35.2956L32.0456 39.5313C33.7487 38.7109 34.7644 37.1562 34.7644 34.9375C34.7644 31.5312 32.3816 29.5 28.8269 29.5H21.9206V45.5ZM26.2644 36.8438V32.9687H27.7956C29.3191 32.9687 30.2331 33.5625 30.2331 34.9375C30.2331 36.3047 29.3191 36.8438 27.7956 36.8438H26.2644ZM39.1422 45.6875C40.7047 45.6875 41.8844 45.1562 42.6109 43.8125H42.7047V45.5H46.7359V37.2812C46.7359 35.0625 44.6344 33.3438 41.2047 33.3438C37.6187 33.3438 35.8531 35.2187 35.7047 37.4062H39.6734C39.775 36.6641 40.3219 36.3125 41.1422 36.3125C41.8922 36.3125 42.4234 36.6562 42.4234 37.2812V37.3125C42.4234 38.0078 41.6578 38.2266 39.6422 38.375C37.1656 38.5547 35.2359 39.5547 35.2359 42.1875C35.2359 44.5781 36.8453 45.6875 39.1422 45.6875ZM40.5484 42.9687C39.8141 42.9687 39.2984 42.6094 39.2984 41.9375C39.2984 41.3203 39.7359 40.8437 40.7359 40.6875C41.4234 40.5781 42.0016 40.4375 42.4547 40.25V41.25C42.4547 42.3438 41.525 42.9687 40.5484 42.9687ZM47.9165 45.5H52.229V33.5H47.9165V45.5ZM50.0727 32.25C51.2446 32.25 52.1977 31.3672 52.1977 30.2812C52.1977 29.1953 51.2446 28.3125 50.0727 28.3125C48.9009 28.3125 47.9477 29.1953 47.9477 30.2812C47.9477 31.3672 48.9009 32.25 50.0727 32.25ZM57.8587 38.75C57.8666 37.5625 58.5384 36.8438 59.6087 36.8438C60.6947 36.8438 61.3353 37.5625 61.3275 38.75V45.5H65.64V37.8437C65.6478 35.2344 63.9994 33.3438 61.4525 33.3438C59.6869 33.3438 58.2884 34.2656 57.765 35.7812H57.64V33.5H53.5462V45.5H57.8587V38.75ZM66.8264 45.5H71.1077V43.5312H71.2014C71.7014 44.75 72.8577 45.6563 74.5452 45.6563C77.1077 45.6563 79.2639 43.6562 79.2639 39.5C79.2639 35.1562 76.9514 33.3438 74.5764 33.3438C72.7952 33.3438 71.6702 34.375 71.2014 35.5937H71.1389V29.5H66.8264V45.5ZM71.0452 39.5C71.0452 37.7187 71.7639 36.6562 72.9514 36.6562C74.1389 36.6562 74.8264 37.7187 74.8264 39.5C74.8264 41.2812 74.1389 42.3438 72.9514 42.3438C71.7639 42.3438 71.0452 41.25 71.0452 39.5ZM85.9698 45.7187C89.8761 45.7187 92.1886 43.2187 92.1886 39.5313C92.1886 35.8437 89.8761 33.3438 85.9698 33.3438C82.0636 33.3438 79.7511 35.8437 79.7511 39.5313C79.7511 43.2187 82.0636 45.7187 85.9698 45.7187ZM86.0011 42.5312C84.8448 42.5312 84.1573 41.3828 84.1573 39.5C84.1573 37.6172 84.8448 36.4687 86.0011 36.4687C87.0948 36.4687 87.7823 37.6172 87.7823 39.5C87.7823 41.3828 87.0948 42.5312 86.0011 42.5312ZM94.9688 45.5H99.625L101.313 39.0625H101.438L103.125 45.5H107.781L110.781 33.5H106.469L105.156 40.75H105.062L103.469 33.5H99.2813L97.75 40.8125H97.6562L96.2813 33.5H91.9687L94.9688 45.5ZM43.8355 66.5H51.3668C54.8434 66.5 56.9918 64.6016 56.9918 61.9687C56.9918 59.7109 55.3277 58.2344 53.273 58.1562V58C55.1246 57.6328 56.3668 56.2656 56.3668 54.5C56.3668 52.0625 54.4293 50.5 50.773 50.5H43.8355V66.5ZM48.1793 63.0313V59.6562H50.273C51.5934 59.6562 52.398 60.2812 52.398 61.4062C52.398 62.4766 51.6715 63.0313 50.2105 63.0313H48.1793ZM48.1793 56.9687V53.9062H50.023C51.1012 53.9062 51.898 54.4531 51.898 55.4375C51.898 56.4219 51.1012 56.9687 49.9605 56.9687H48.1793ZM57.7134 66.5H62.0259V60.25C62.0259 58.875 62.9712 57.9687 64.2446 57.9687C64.6899 57.9687 65.4087 58.0391 65.8384 58.1875V54.5078C65.4946 54.4062 65.1196 54.3438 64.7446 54.3438C63.4634 54.3438 62.4634 55.0937 62.0259 56.7812H61.9009V54.5H57.7134V66.5ZM66.3724 66.5H70.6849V54.5H66.3724V66.5ZM68.5287 53.25C69.7005 53.25 70.6537 52.3672 70.6537 51.2812C70.6537 50.1953 69.7005 49.3125 68.5287 49.3125C67.3568 49.3125 66.4037 50.1953 66.4037 51.2812C66.4037 52.3672 67.3568 53.25 68.5287 53.25ZM76.3459 66.6563C78.0334 66.6563 79.1897 65.75 79.6897 64.5312H79.7834V66.5H84.0647V50.5H79.7522V56.5937H79.6897C79.2209 55.375 78.0959 54.3438 76.3147 54.3438C73.9397 54.3438 71.6272 56.1562 71.6272 60.5C71.6272 64.6562 73.7834 66.6563 76.3459 66.6563ZM77.9397 63.3438C76.7522 63.3438 76.0647 62.2812 76.0647 60.5C76.0647 58.7187 76.7522 57.6562 77.9397 57.6562C79.1272 57.6562 79.8459 58.7187 79.8459 60.5C79.8459 62.25 79.1272 63.3438 77.9397 63.3438ZM91.0831 71.25C94.88 71.25 97.3956 69.5156 97.3956 66.4687V54.5H93.0831V56.5937H92.9894C92.5206 55.375 91.3956 54.3438 89.6144 54.3438C87.2394 54.3438 84.9269 56.1562 84.9269 60.5C84.9269 64.6562 87.0831 66.3437 89.6456 66.3437C91.2706 66.3437 92.5519 65.6562 93.0206 64.4375H93.1456V66.4687C93.1456 67.8828 92.3253 68.3438 91.2081 68.3438C90.2159 68.3438 89.4894 68.0469 89.3644 67.2812H85.2081C85.3722 69.5938 87.4738 71.25 91.0831 71.25ZM91.2394 63.2812C90.0519 63.2812 89.3644 62.2812 89.3644 60.5C89.3644 58.7187 90.0519 57.6562 91.2394 57.6562C92.4269 57.6562 93.1456 58.7187 93.1456 60.5C93.1456 62.25 92.4269 63.2812 91.2394 63.2812ZM104.459 66.7187C107.787 66.7187 109.928 65.125 110.334 62.625H106.396C106.146 63.3047 105.436 63.6875 104.553 63.6875C103.271 63.6875 102.521 62.8437 102.521 61.6875V61.5H110.334V60.5C110.334 56.6797 107.99 54.3438 104.365 54.3438C100.646 54.3438 98.2715 56.8125 98.2715 60.5313C98.2715 64.4141 100.615 66.7187 104.459 66.7187ZM102.521 59.125C102.545 58.0859 103.404 57.375 104.459 57.375C105.529 57.375 106.342 58.0937 106.365 59.125H102.521Z" fill="#111618"/>
<path d="M19.7233 12.2368C24.5704 12.2368 28.4998 16.247 28.4998 21.1938H40C40 9.76491 30.9218 0.5 19.7233 0.5V12.2368Z" fill="#272729"/>
<rect width="5.75264" height="5.87097" transform="matrix(-1 0 0 1 19.7234 6.37097)" fill="#0072CE"/>
<rect width="5.75264" height="5.87097" transform="matrix(-1 0 0 1 13.9707 6.37097)" fill="#37DBF4"/>
<rect width="5.75264" height="5.87097" transform="matrix(-1 0 0 1 5.75269 9.72583)" fill="#F2EE83"/>
<rect width="5.75264" height="5.87097" transform="matrix(-1 0 0 1 13.9707 12.2419)" fill="#00C08B"/>
<rect width="5.75263" height="5.87097" transform="matrix(-1 0 0 1 8.21802 18.1129)" fill="#FFB259"/>
<rect width="5.75263" height="5.87097" transform="matrix(-1 0 0 1 16.436 20.629)" fill="#FF585D"/>
<rect width="5.75264" height="5.87097" transform="matrix(-1 0 0 1 19.7234 0.5)" fill="#8FCDFF"/>
</svg>
