<svg fill="none" height="40" viewBox="0 0 40 40" width="40" xmlns="http://www.w3.org/2000/svg" xmlns:xlink="http://www.w3.org/1999/xlink"><filter id="a" color-interpolation-filters="sRGB" filterUnits="userSpaceOnUse" height="40" width="40" x="0" y="0"><feFlood flood-opacity="0" result="BackgroundImageFix"/><feColorMatrix in="SourceAlpha" result="hardAlpha" type="matrix" values="0 0 0 0 0 0 0 0 0 0 0 0 0 0 0 0 0 0 127 0"/><feOffset dy="2"/><feGaussianBlur stdDeviation="2"/><feComposite in2="hardAlpha" operator="out"/><feColorMatrix type="matrix" values="0 0 0 0 0 0 0 0 0 0 0 0 0 0 0 0 0 0 0.15 0"/><feBlend in2="BackgroundImageFix" mode="normal" result="effect1_dropShadow_405_57"/><feBlend in="SourceGraphic" in2="effect1_dropShadow_405_57" mode="normal" result="shape"/></filter><g filter="url(#a)"><rect fill="#fff" height="32" rx="16" width="32" x="4" y="2"/></g><path d="m21.9088 25h5.0909l-5.0909-5.0909z" fill="#000"/><path d="m27.0001 11h-2.9697l2.9697 2.9697z" fill="#00c6a2"/><g clip-rule="evenodd" fill="#000" fill-rule="evenodd"><path d="m22.1209 19.909c-.0711 0-.1419-.0018-.2121-.0054v-3.1868l3.4652-3.2177c.4886.6669.7772 1.4896.7772 2.3796 0 2.2259-1.8045 4.0303-4.0303 4.0303zm2.3481-7.3063-2.5602 2.3773v-3.1261c.0702-.0036.141-.0055.2121-.0055.8761 0 1.6869.2796 2.3481.7543z"/><path d="m21.485 11.8484h-3.8181v3.7668l1.7132 1.7133 2.1049-1.9546zm0 5.2623-2.1376 1.985-1.6805-1.6806v7.5849h3.8181z"/><path d="m17.2424 11.8484h-4.2424v5.4639l3.182-3.182 1.0604 1.0604zm0 5.1422-1.0604-1.0604-3.182 3.182v5.8878h4.2424z"/></g></svg>