<svg height="20" viewBox="0 0 20 20" width="20" xmlns="http://www.w3.org/2000/svg"><g style="stroke:#999;fill:none;fill-rule:evenodd;stroke-linecap:round;stroke-linejoin:round;stroke-width:2" transform="translate(1 1)"><path d="m13.5 9c0-1.8200801-1.0963898-3.4609434-2.7779246-4.1574579-1.68153471-.6965145-3.61706493-.3115136-4.90405592.97547738-1.28699098 1.28699099-1.67199188 3.22252121-.97547738 4.90405592.6965145 1.6815348 2.3373778 2.7779246 4.1574579 2.7779246 2.4852814 0 4.5-2.0147186 4.5-4.5zm-4.5 4.5h-7.785c1.61008993 2.7756196 4.57619127 4.4840533 7.785 4.4840533 3.2088087 0 6.1749101-1.7084337 7.785-4.4840533z"/><path d="m0 9.00000013c.00000007-4.97056283 4.0294373-9 9-9s8.9999999 4.02943717 9 9"/></g></svg>